<svg width="1340" height="2160" viewBox="0 0 1340 2160" fill="none" xmlns="http://www.w3.org/2000/svg">
<path d="M0 166C0 74.3207 74.3207 0 166 0H1174C1265.68 0 1340 74.3207 1340 166V1994C1340 2085.68 1265.68 2160 1174 2160H166C74.3208 2160 0 2085.68 0 1994V166Z" fill="#343937"/>
<path d="M1033.41 545.999C1032.86 545.888 1032.92 545.398 1032.74 545.087C1026.27 533.883 1019.49 522.878 1012.15 512.222C996.572 489.607 980.374 467.448 963.816 445.549C954.91 433.77 945.74 422.194 936.59 410.607C929.526 401.656 922.459 392.709 915.751 383.478C914.761 382.118 914.75 381.106 915.717 379.753C921.141 372.186 927.218 365.139 933.089 357.928C948.42 339.102 963.242 319.878 977.637 300.324C992.509 280.123 1007.16 259.761 1020.5 238.495C1023.81 233.218 1027.01 227.873 1030.8 222.911C1033.74 219.064 1034.06 218.991 1036.65 222.926C1043.33 233.061 1049.85 243.311 1056.68 253.347C1063.59 263.509 1070.75 273.502 1077.89 283.503C1089.82 300.186 1102.19 316.54 1114.68 332.803C1125.9 347.402 1137.63 361.572 1149.5 375.638C1150.77 377.14 1151.95 378.73 1153.32 380.137C1154.32 381.163 1154.14 381.811 1153.28 382.815C1148.89 387.946 1144.6 393.161 1140.24 398.311C1130.16 410.216 1120.48 422.439 1110.96 434.793C1099.03 450.266 1087.47 466.003 1076.16 481.936C1061.89 502.041 1048 522.407 1035.21 543.505C1034.82 544.152 1034.42 544.792 1034.01 545.428C1033.85 545.674 1033.75 546.018 1033.41 545.999Z" fill="#0BEEE0"/>
<path d="M1033.41 1477C1032.86 1476.89 1032.92 1476.4 1032.74 1476.09C1026.27 1464.88 1019.49 1453.88 1012.15 1443.22C996.572 1420.61 980.374 1398.45 963.816 1376.55C954.91 1364.77 945.74 1353.19 936.59 1341.61C929.526 1332.66 922.459 1323.71 915.751 1314.48C914.761 1313.12 914.75 1312.11 915.717 1310.75C921.141 1303.19 927.218 1296.14 933.089 1288.93C948.42 1270.1 963.242 1250.88 977.637 1231.32C992.509 1211.12 1007.16 1190.76 1020.5 1169.49C1023.81 1164.22 1027.01 1158.87 1030.8 1153.91C1033.74 1150.06 1034.06 1149.99 1036.65 1153.93C1043.33 1164.06 1049.85 1174.31 1056.68 1184.35C1063.59 1194.51 1070.75 1204.5 1077.89 1214.5C1089.82 1231.19 1102.19 1247.54 1114.68 1263.8C1125.9 1278.4 1137.63 1292.57 1149.5 1306.64C1150.77 1308.14 1151.95 1309.73 1153.32 1311.14C1154.32 1312.16 1154.14 1312.81 1153.28 1313.81C1148.89 1318.95 1144.6 1324.16 1140.24 1329.31C1130.16 1341.22 1120.48 1353.44 1110.96 1365.79C1099.03 1381.27 1087.47 1397 1076.16 1412.94C1061.89 1433.04 1048 1453.41 1035.21 1474.5C1034.82 1475.15 1034.42 1475.79 1034.01 1476.43C1033.85 1476.67 1033.75 1477.02 1033.41 1477Z" fill="#0BEEE0"/>
<path d="M665.411 787.999C664.857 787.888 664.922 787.398 664.742 787.087C658.271 775.883 651.49 764.878 644.148 754.222C628.572 731.607 612.374 709.448 595.816 687.549C586.91 675.77 577.74 664.194 568.59 652.607C561.526 643.656 554.459 634.709 547.751 625.478C546.761 624.118 546.75 623.106 547.717 621.753C553.141 614.186 559.218 607.139 565.089 599.928C580.42 581.102 595.242 561.878 609.637 542.324C624.509 522.123 639.16 501.761 652.5 480.495C655.81 475.218 659.009 469.873 662.8 464.911C665.744 461.064 666.061 460.991 668.652 464.926C675.334 475.061 681.85 485.311 688.677 495.347C695.591 505.509 702.747 515.502 709.894 525.503C721.82 542.186 734.188 558.54 746.683 574.803C757.898 589.402 769.632 603.572 781.5 617.638C782.769 619.14 783.95 620.73 785.322 622.137C786.324 623.164 786.136 623.811 785.276 624.815C780.888 629.946 776.604 635.161 772.242 640.311C762.163 652.216 752.478 664.439 742.957 676.793C731.035 692.266 719.469 708.003 708.163 723.936C693.89 744.041 680.001 764.407 667.211 785.505C666.818 786.152 666.416 786.792 666.007 787.428C665.851 787.674 665.751 788.018 665.411 787.999Z" fill="#0BEEE0"/>
<path d="M665.411 1719C664.857 1718.89 664.922 1718.4 664.742 1718.09C658.271 1706.88 651.49 1695.88 644.148 1685.22C628.572 1662.61 612.374 1640.45 595.816 1618.55C586.91 1606.77 577.74 1595.19 568.59 1583.61C561.526 1574.66 554.459 1565.71 547.751 1556.48C546.761 1555.12 546.75 1554.11 547.717 1552.75C553.141 1545.19 559.218 1538.14 565.089 1530.93C580.42 1512.1 595.242 1492.88 609.637 1473.32C624.509 1453.12 639.16 1432.76 652.5 1411.49C655.81 1406.22 659.009 1400.87 662.8 1395.91C665.744 1392.06 666.061 1391.99 668.652 1395.93C675.334 1406.06 681.85 1416.31 688.677 1426.35C695.591 1436.51 702.747 1446.5 709.894 1456.5C721.82 1473.19 734.188 1489.54 746.683 1505.8C757.898 1520.4 769.632 1534.57 781.5 1548.64C782.769 1550.14 783.95 1551.73 785.322 1553.14C786.324 1554.16 786.136 1554.81 785.276 1555.81C780.888 1560.95 776.604 1566.16 772.242 1571.31C762.163 1583.22 752.478 1595.44 742.957 1607.79C731.035 1623.27 719.469 1639 708.163 1654.94C693.89 1675.04 680.001 1695.41 667.211 1716.5C666.818 1717.15 666.416 1717.79 666.007 1718.43C665.851 1718.67 665.751 1719.02 665.411 1719Z" fill="#0BEEE0"/>
<path d="M1015.41 1040C1014.86 1039.89 1014.92 1039.4 1014.74 1039.09C1008.27 1027.88 1001.49 1016.88 994.148 1006.22C978.572 983.607 962.374 961.448 945.816 939.549C936.91 927.77 927.74 916.194 918.59 904.607C911.526 895.656 904.459 886.709 897.751 877.478C896.761 876.118 896.75 875.106 897.717 873.753C903.141 866.186 909.218 859.139 915.089 851.928C930.42 833.102 945.242 813.878 959.637 794.324C974.509 774.123 989.16 753.761 1002.5 732.495C1005.81 727.218 1009.01 721.873 1012.8 716.911C1015.74 713.064 1016.06 712.991 1018.65 716.926C1025.33 727.061 1031.85 737.311 1038.68 747.347C1045.59 757.509 1052.75 767.502 1059.89 777.503C1071.82 794.186 1084.19 810.54 1096.68 826.803C1107.9 841.402 1119.63 855.572 1131.5 869.638C1132.77 871.14 1133.95 872.73 1135.32 874.137C1136.32 875.164 1136.14 875.811 1135.28 876.815C1130.89 881.946 1126.6 887.161 1122.24 892.311C1112.16 904.216 1102.48 916.439 1092.96 928.793C1081.03 944.266 1069.47 960.003 1058.16 975.936C1043.89 996.041 1030 1016.41 1017.21 1037.5C1016.82 1038.15 1016.42 1038.79 1016.01 1039.43C1015.85 1039.67 1015.75 1040.02 1015.41 1040Z" fill="#0BEEE0"/>
<path d="M1015.41 1971C1014.86 1970.89 1014.92 1970.4 1014.74 1970.09C1008.27 1958.88 1001.49 1947.88 994.148 1937.22C978.572 1914.61 962.374 1892.45 945.816 1870.55C936.91 1858.77 927.74 1847.19 918.59 1835.61C911.526 1826.66 904.459 1817.71 897.751 1808.48C896.761 1807.12 896.75 1806.11 897.717 1804.75C903.141 1797.19 909.218 1790.14 915.089 1782.93C930.42 1764.1 945.242 1744.88 959.637 1725.32C974.509 1705.12 989.16 1684.76 1002.5 1663.49C1005.81 1658.22 1009.01 1652.87 1012.8 1647.91C1015.74 1644.06 1016.06 1643.99 1018.65 1647.93C1025.33 1658.06 1031.85 1668.31 1038.68 1678.35C1045.59 1688.51 1052.75 1698.5 1059.89 1708.5C1071.82 1725.19 1084.19 1741.54 1096.68 1757.8C1107.9 1772.4 1119.63 1786.57 1131.5 1800.64C1132.77 1802.14 1133.95 1803.73 1135.32 1805.14C1136.32 1806.16 1136.14 1806.81 1135.28 1807.81C1130.89 1812.95 1126.6 1818.16 1122.24 1823.31C1112.16 1835.22 1102.48 1847.44 1092.96 1859.79C1081.03 1875.27 1069.47 1891 1058.16 1906.94C1043.89 1927.04 1030 1947.41 1017.21 1968.5C1016.82 1969.15 1016.42 1969.79 1016.01 1970.43C1015.85 1970.67 1015.75 1971.02 1015.41 1971Z" fill="#0BEEE0"/>
<path d="M297.411 1040C296.857 1039.89 296.922 1039.4 296.742 1039.09C290.271 1027.88 283.49 1016.88 276.148 1006.22C260.572 983.607 244.374 961.448 227.816 939.549C218.91 927.77 209.74 916.194 200.59 904.607C193.527 895.656 186.459 886.709 179.751 877.478C178.761 876.118 178.75 875.106 179.717 873.753C185.141 866.186 191.218 859.139 197.089 851.928C212.42 833.102 227.242 813.878 241.637 794.324C256.509 774.123 271.16 753.761 284.5 732.495C287.81 727.218 291.009 721.873 294.8 716.911C297.744 713.064 298.061 712.991 300.652 716.926C307.334 727.061 313.85 737.311 320.677 747.347C327.591 757.509 334.747 767.502 341.894 777.503C353.82 794.186 366.188 810.54 378.683 826.803C389.898 841.402 401.632 855.572 413.5 869.638C414.769 871.14 415.95 872.73 417.322 874.137C418.324 875.164 418.136 875.811 417.276 876.815C412.888 881.946 408.604 887.161 404.242 892.311C394.163 904.216 384.478 916.439 374.957 928.793C363.035 944.266 351.469 960.003 340.163 975.936C325.89 996.041 312.001 1016.41 299.211 1037.5C298.818 1038.15 298.416 1038.79 298.007 1039.43C297.851 1039.67 297.751 1040.02 297.411 1040Z" fill="#0BEEE0"/>
<path d="M297.411 1971C296.857 1970.89 296.922 1970.4 296.742 1970.09C290.271 1958.88 283.49 1947.88 276.148 1937.22C260.572 1914.61 244.374 1892.45 227.816 1870.55C218.91 1858.77 209.74 1847.19 200.59 1835.61C193.527 1826.66 186.459 1817.71 179.751 1808.48C178.761 1807.12 178.75 1806.11 179.717 1804.75C185.141 1797.19 191.218 1790.14 197.089 1782.93C212.42 1764.1 227.242 1744.88 241.637 1725.32C256.509 1705.12 271.16 1684.76 284.5 1663.49C287.81 1658.22 291.009 1652.87 294.8 1647.91C297.744 1644.06 298.061 1643.99 300.652 1647.93C307.334 1658.06 313.85 1668.31 320.677 1678.35C327.591 1688.51 334.747 1698.5 341.894 1708.5C353.82 1725.19 366.188 1741.54 378.683 1757.8C389.898 1772.4 401.632 1786.57 413.5 1800.64C414.769 1802.14 415.95 1803.73 417.322 1805.14C418.324 1806.16 418.136 1806.81 417.276 1807.81C412.888 1812.95 408.604 1818.16 404.242 1823.31C394.163 1835.22 384.478 1847.44 374.957 1859.79C363.035 1875.27 351.469 1891 340.163 1906.94C325.89 1927.04 312.001 1947.41 299.211 1968.5C298.818 1969.15 298.416 1969.79 298.007 1970.43C297.851 1970.67 297.751 1971.02 297.411 1971Z" fill="#0BEEE0"/>
<path d="M297.411 545.999C296.857 545.888 296.922 545.398 296.742 545.087C290.271 533.883 283.49 522.878 276.148 512.222C260.572 489.607 244.374 467.448 227.816 445.549C218.91 433.77 209.74 422.194 200.59 410.607C193.527 401.656 186.459 392.709 179.751 383.478C178.761 382.118 178.75 381.106 179.717 379.753C185.141 372.186 191.218 365.139 197.089 357.928C212.42 339.102 227.242 319.878 241.637 300.324C256.509 280.123 271.16 259.761 284.5 238.495C287.81 233.218 291.009 227.873 294.8 222.911C297.744 219.064 298.061 218.991 300.652 222.926C307.334 233.061 313.85 243.311 320.677 253.347C327.591 263.509 334.747 273.502 341.894 283.503C353.82 300.186 366.188 316.54 378.683 332.803C389.898 347.402 401.632 361.572 413.5 375.638C414.769 377.14 415.95 378.73 417.322 380.137C418.324 381.163 418.136 381.811 417.276 382.815C412.888 387.946 408.604 393.161 404.242 398.311C394.163 410.216 384.478 422.439 374.957 434.793C363.035 450.266 351.469 466.003 340.163 481.936C325.89 502.041 312.001 522.407 299.211 543.505C298.818 544.152 298.416 544.792 298.007 545.428C297.851 545.674 297.751 546.018 297.411 545.999Z" fill="#0BEEE0"/>
<path d="M297.411 1477C296.857 1476.89 296.922 1476.4 296.742 1476.09C290.271 1464.88 283.49 1453.88 276.148 1443.22C260.572 1420.61 244.374 1398.45 227.816 1376.55C218.91 1364.77 209.74 1353.19 200.59 1341.61C193.527 1332.66 186.459 1323.71 179.751 1314.48C178.761 1313.12 178.75 1312.11 179.717 1310.75C185.141 1303.19 191.218 1296.14 197.089 1288.93C212.42 1270.1 227.242 1250.88 241.637 1231.32C256.509 1211.12 271.16 1190.76 284.5 1169.49C287.81 1164.22 291.009 1158.87 294.8 1153.91C297.744 1150.06 298.061 1149.99 300.652 1153.93C307.334 1164.06 313.85 1174.31 320.677 1184.35C327.591 1194.51 334.747 1204.5 341.894 1214.5C353.82 1231.19 366.188 1247.54 378.683 1263.8C389.898 1278.4 401.632 1292.57 413.5 1306.64C414.769 1308.14 415.95 1309.73 417.322 1311.14C418.324 1312.16 418.136 1312.81 417.276 1313.81C412.888 1318.95 408.604 1324.16 404.242 1329.31C394.163 1341.22 384.478 1353.44 374.957 1365.79C363.035 1381.27 351.469 1397 340.163 1412.94C325.89 1433.04 312.001 1453.41 299.211 1474.5C298.818 1475.15 298.416 1475.79 298.007 1476.43C297.851 1476.67 297.751 1477.02 297.411 1477Z" fill="#0BEEE0"/>
</svg>
