<svg width="1340" height="2160" viewBox="0 0 1340 2160" fill="none" xmlns="http://www.w3.org/2000/svg">
<path d="M0 166C0 74.3207 74.3207 0 166 0H1174C1265.68 0 1340 74.3207 1340 166V1994C1340 2085.68 1265.68 2160 1174 2160H166C74.3208 2160 0 2085.68 0 1994V166Z" fill="#343937"/>
<path d="M330.524 708.999C329.772 708.848 329.86 708.183 329.617 707.763C320.844 692.572 311.652 677.651 301.698 663.203C280.583 632.541 258.624 602.496 236.177 572.806C224.104 556.836 211.673 541.141 199.268 525.43C189.693 513.294 180.112 501.163 171.018 488.648C169.676 486.804 169.661 485.432 170.972 483.598C178.324 473.338 186.563 463.784 194.522 454.006C215.306 428.482 235.4 402.417 254.914 375.906C275.075 348.517 294.936 320.909 313.02 292.076C317.508 284.922 321.845 277.674 326.985 270.947C330.975 265.73 331.405 265.632 334.918 270.967C343.975 284.709 352.81 298.606 362.064 312.212C371.438 325.99 381.138 339.539 390.827 353.099C406.994 375.719 423.762 397.892 440.7 419.941C455.903 439.735 471.811 458.947 487.9 478.018C489.62 480.055 491.221 482.211 493.081 484.118C494.439 485.51 494.185 486.388 493.019 487.749C487.07 494.706 481.262 501.776 475.35 508.759C461.686 524.9 448.556 541.473 435.648 558.223C419.487 579.201 403.807 600.538 388.48 622.14C369.132 649.399 350.302 677.012 332.964 705.617C332.431 706.495 331.886 707.362 331.332 708.225C331.12 708.557 330.985 709.025 330.524 708.999Z" fill="#0BEEE0"/>
<path d="M330.524 1301C329.772 1300.85 329.86 1300.18 329.617 1299.76C320.844 1284.57 311.652 1269.65 301.698 1255.2C280.583 1224.54 258.624 1194.5 236.177 1164.81C224.104 1148.84 211.673 1133.14 199.268 1117.43C189.693 1105.29 180.112 1093.16 171.018 1080.65C169.676 1078.8 169.661 1077.43 170.972 1075.6C178.324 1065.34 186.563 1055.78 194.522 1046.01C215.306 1020.48 235.4 994.417 254.914 967.906C275.075 940.517 294.936 912.909 313.02 884.076C317.508 876.922 321.845 869.674 326.985 862.946C330.975 857.73 331.405 857.632 334.918 862.967C343.975 876.709 352.81 890.606 362.064 904.212C371.438 917.99 381.138 931.539 390.827 945.099C406.994 967.719 423.762 989.892 440.7 1011.94C455.903 1031.73 471.811 1050.95 487.9 1070.02C489.62 1072.05 491.221 1074.21 493.081 1076.12C494.439 1077.51 494.185 1078.39 493.019 1079.75C487.07 1086.71 481.262 1093.78 475.35 1100.76C461.686 1116.9 448.556 1133.47 435.648 1150.22C419.487 1171.2 403.807 1192.54 388.48 1214.14C369.132 1241.4 350.302 1269.01 332.964 1297.62C332.431 1298.49 331.886 1299.36 331.332 1300.22C331.12 1300.56 330.985 1301.03 330.524 1301Z" fill="#0BEEE0"/>
<path d="M330.524 1879C329.772 1878.85 329.86 1878.18 329.617 1877.76C320.844 1862.57 311.652 1847.65 301.698 1833.2C280.583 1802.54 258.624 1772.5 236.177 1742.81C224.104 1726.84 211.673 1711.14 199.268 1695.43C189.693 1683.29 180.112 1671.16 171.018 1658.65C169.676 1656.8 169.661 1655.43 170.972 1653.6C178.324 1643.34 186.563 1633.78 194.522 1624.01C215.306 1598.48 235.4 1572.42 254.914 1545.91C275.075 1518.52 294.936 1490.91 313.02 1462.08C317.508 1454.92 321.845 1447.67 326.985 1440.95C330.975 1435.73 331.405 1435.63 334.918 1440.97C343.975 1454.71 352.81 1468.61 362.064 1482.21C371.438 1495.99 381.138 1509.54 390.827 1523.1C406.994 1545.72 423.762 1567.89 440.7 1589.94C455.903 1609.73 471.811 1628.95 487.9 1648.02C489.62 1650.05 491.221 1652.21 493.081 1654.12C494.439 1655.51 494.185 1656.39 493.019 1657.75C487.07 1664.71 481.262 1671.78 475.35 1678.76C461.686 1694.9 448.556 1711.47 435.648 1728.22C419.487 1749.2 403.807 1770.54 388.48 1792.14C369.132 1819.4 350.302 1847.01 332.964 1875.62C332.431 1876.49 331.886 1877.36 331.332 1878.22C331.12 1878.56 330.985 1879.03 330.524 1879Z" fill="#0BEEE0"/>
<path d="M997.524 1879C996.772 1878.85 996.86 1878.18 996.617 1877.76C987.844 1862.57 978.652 1847.65 968.698 1833.2C947.583 1802.54 925.624 1772.5 903.177 1742.81C891.104 1726.84 878.673 1711.14 866.268 1695.43C856.693 1683.29 847.112 1671.16 838.018 1658.65C836.676 1656.8 836.661 1655.43 837.972 1653.6C845.324 1643.34 853.563 1633.78 861.522 1624.01C882.306 1598.48 902.4 1572.42 921.914 1545.91C942.075 1518.52 961.936 1490.91 980.02 1462.08C984.508 1454.92 988.845 1447.67 993.985 1440.95C997.975 1435.73 998.405 1435.63 1001.92 1440.97C1010.98 1454.71 1019.81 1468.61 1029.06 1482.21C1038.44 1495.99 1048.14 1509.54 1057.83 1523.1C1073.99 1545.72 1090.76 1567.89 1107.7 1589.94C1122.9 1609.73 1138.81 1628.95 1154.9 1648.02C1156.62 1650.05 1158.22 1652.21 1160.08 1654.12C1161.44 1655.51 1161.18 1656.39 1160.02 1657.75C1154.07 1664.71 1148.26 1671.78 1142.35 1678.76C1128.69 1694.9 1115.56 1711.47 1102.65 1728.22C1086.49 1749.2 1070.81 1770.54 1055.48 1792.14C1036.13 1819.4 1017.3 1847.01 999.964 1875.62C999.431 1876.49 998.886 1877.36 998.332 1878.22C998.12 1878.56 997.985 1879.03 997.524 1879Z" fill="#0BEEE0"/>
<path d="M997.524 1301C996.772 1300.85 996.86 1300.18 996.617 1299.76C987.844 1284.57 978.652 1269.65 968.698 1255.2C947.583 1224.54 925.624 1194.5 903.177 1164.81C891.104 1148.84 878.673 1133.14 866.268 1117.43C856.693 1105.29 847.112 1093.16 838.018 1080.65C836.676 1078.8 836.661 1077.43 837.972 1075.6C845.324 1065.34 853.563 1055.78 861.522 1046.01C882.306 1020.48 902.4 994.417 921.914 967.906C942.075 940.517 961.936 912.909 980.02 884.076C984.508 876.922 988.845 869.674 993.985 862.946C997.975 857.73 998.405 857.632 1001.92 862.967C1010.98 876.709 1019.81 890.606 1029.06 904.212C1038.44 917.99 1048.14 931.539 1057.83 945.099C1073.99 967.719 1090.76 989.892 1107.7 1011.94C1122.9 1031.73 1138.81 1050.95 1154.9 1070.02C1156.62 1072.05 1158.22 1074.21 1160.08 1076.12C1161.44 1077.51 1161.18 1078.39 1160.02 1079.75C1154.07 1086.71 1148.26 1093.78 1142.35 1100.76C1128.69 1116.9 1115.56 1133.47 1102.65 1150.22C1086.49 1171.2 1070.81 1192.54 1055.48 1214.14C1036.13 1241.4 1017.3 1269.01 999.964 1297.62C999.431 1298.49 998.886 1299.36 998.332 1300.22C998.12 1300.56 997.985 1301.03 997.524 1301Z" fill="#0BEEE0"/>
<path d="M997.524 708.999C996.772 708.848 996.86 708.183 996.617 707.763C987.844 692.572 978.652 677.651 968.698 663.203C947.583 632.541 925.624 602.496 903.177 572.806C891.104 556.836 878.673 541.141 866.268 525.43C856.693 513.294 847.112 501.163 838.018 488.648C836.676 486.804 836.661 485.432 837.972 483.598C845.324 473.338 853.563 463.784 861.522 454.006C882.306 428.482 902.4 402.417 921.914 375.906C942.075 348.517 961.936 320.909 980.02 292.076C984.508 284.922 988.845 277.674 993.985 270.947C997.975 265.73 998.405 265.632 1001.92 270.967C1010.98 284.709 1019.81 298.606 1029.06 312.212C1038.44 325.99 1048.14 339.539 1057.83 353.099C1073.99 375.719 1090.76 397.892 1107.7 419.941C1122.9 439.735 1138.81 458.947 1154.9 478.018C1156.62 480.055 1158.22 482.211 1160.08 484.118C1161.44 485.51 1161.18 486.388 1160.02 487.749C1154.07 494.706 1148.26 501.776 1142.35 508.759C1128.69 524.9 1115.56 541.473 1102.65 558.223C1086.49 579.201 1070.81 600.538 1055.48 622.14C1036.13 649.399 1017.3 677.012 999.964 705.617C999.431 706.495 998.886 707.362 998.332 708.225C998.12 708.557 997.985 709.025 997.524 708.999Z" fill="#0BEEE0"/>
</svg>
