<svg width="1340" height="2160" viewBox="0 0 1340 2160" fill="none" xmlns="http://www.w3.org/2000/svg">
<path d="M0 166C0 74.3207 74.3207 0 166 0H1174C1265.68 0 1340 74.3207 1340 166V1994C1340 2085.68 1265.68 2160 1174 2160H166C74.3207 2160 0 2085.68 0 1994V166Z" fill="#343937"/>
<mask id="path-2-outside-1_19_3" maskUnits="userSpaceOnUse" x="111" y="227" width="1118" height="1705" fill="black">
<rect fill="white" x="111" y="227" width="1118" height="1705"/>
<path d="M222.936 263.73C233.775 257.489 244.597 251.248 255.436 245.008C264.563 241.325 273.691 237.66 282.819 233.978C289.682 231.368 291.704 234.082 291.48 240.928C291.186 249.537 291.791 258.181 292.016 266.807C291.618 278.39 291.255 289.973 292.811 301.503C292.102 313 292.309 324.496 293.105 335.992C292.171 341.766 292.379 347.54 293.174 353.314C292.517 359.088 292.534 364.845 293.295 370.602C293.312 382.115 293.347 393.629 293.364 405.143C293.381 416.673 293.381 428.204 293.398 439.752C293.416 451.266 293.416 462.779 293.433 474.293C293.433 485.824 293.416 497.372 293.416 508.903C293.416 520.416 293.398 531.93 293.398 543.443C293.398 554.974 293.381 566.505 293.381 578.053C293.381 589.566 293.364 601.08 293.364 612.593C293.295 623.536 293.243 634.497 293.174 645.44C292.327 648.915 292.223 652.372 293.087 655.864C292.448 664.456 291.843 673.065 292.621 681.692C291.082 693.188 291.497 704.771 291.376 716.319C290.546 721.661 289.785 727.037 288.869 732.362C285.619 751.05 275.23 766.678 266.966 783.205C258.893 794.009 253.016 806.698 242.833 815.584C230.318 826.527 229.159 839.96 230.646 854.723C229.851 860.463 229.557 866.202 230.819 871.907C230.957 872.322 231.078 872.72 231.216 873.135C231.735 872.72 232.254 872.322 232.772 871.907C238.529 867.343 243.681 862.174 248.383 856.573C251.909 854.256 254.883 851.352 257.251 847.86C266.379 839.216 275.506 830.573 284.634 821.929C287.676 820.286 290.166 818.039 292.154 815.221C313.521 797.64 335.268 780.577 358.813 765.952C367.664 761.007 376.515 756.08 385.366 751.136C388.046 749.857 390.743 748.578 393.422 747.281C400.493 744.601 408.168 738.689 412.438 750.859C415.619 758.725 420.235 765.64 426.268 771.605C431.402 778.727 437.608 784.691 445.163 789.203C450.124 794.061 456.071 797.363 462.346 800.164C473.133 806.404 484.076 812.196 497.145 811.331C508.659 812.784 520.172 812.179 531.685 811.159C543.648 811.176 555.42 810.19 566.38 804.762C574.54 800.769 580.781 803.483 586.676 809.724C590.358 813.613 595.06 816.552 599.295 819.906C600.315 820.77 601.335 821.635 602.355 822.499C612.192 831.454 622.27 840.15 633.005 848.033C636.688 852.147 640.819 855.726 645.556 858.561C652.557 865.32 659.921 871.63 667.891 877.214C672.195 881.986 677.14 885.962 682.499 889.471C688.757 895.712 695.568 901.313 702.759 906.43C736.78 935.958 771.355 964.828 806.707 992.765C818.324 1003.1 830.2 1013.09 842.906 1022.07C845.171 1023.85 847.453 1025.63 849.718 1027.41C855.785 1033.56 863.202 1037.95 870.151 1042.95C874.317 1045.94 875.994 1044.52 877.083 1040.15C881.042 1024.35 885.139 1008.57 889.184 992.782C892.123 981.268 895.045 969.772 897.983 958.259C901.735 946.935 904.898 935.474 906.869 923.701C913.646 900.916 919.42 877.871 924.502 854.637C928.322 843.365 931.227 831.869 933.111 820.114C934.131 816.656 935.6 813.25 936.05 809.706C936.897 803.189 939.161 801.512 944.313 806.404C948.514 811.487 953.199 816.068 958.506 820.01C965.438 826.925 972.353 833.84 979.285 840.755C985.128 846.391 990.971 852.009 996.814 857.645C1003.04 863.817 1009.28 869.988 1015.5 876.16C1020.15 881.778 1025.22 886.965 1030.92 891.529C1036.57 897.164 1042.23 902.817 1047.88 908.453C1053.27 914.746 1058.84 920.865 1065.55 925.827C1069.75 931.791 1075.21 936.511 1080.64 941.282C1087.14 948.889 1094.19 955.942 1101.8 962.442C1106.28 966.92 1110.74 971.397 1115.21 975.875C1117.95 979.937 1121.56 983.084 1125.74 986.42C1131.91 976.946 1137.95 967.663 1143.98 958.397C1147.39 953.902 1150.81 949.407 1154.21 944.913C1157.64 941.092 1161.32 937.462 1164.43 933.399C1167.42 929.509 1169.76 928.126 1173.59 932.604C1178.24 938.015 1183.48 942.907 1188.48 948.024C1189.89 952.657 1186.65 955.493 1184.31 958.604C1176.31 969.236 1166.54 978.571 1160.77 990.846C1157.17 994.683 1155.3 999.489 1153.42 1004.23C1149.89 1013.08 1150.9 1014.89 1160.35 1015.41C1170.5 1015.98 1180.34 1017.14 1188.51 1024C1189.55 1025.18 1190.57 1026.37 1191.61 1027.55C1198.04 1038.63 1197.26 1050.21 1193.99 1061.97C1191.5 1067.31 1190.43 1073.07 1192.78 1078.44C1195.32 1084.3 1196.03 1090.4 1197.09 1096.52C1195.31 1102.52 1195.46 1109.01 1192.57 1114.75C1189.13 1121.57 1189.6 1127.9 1194.99 1133.59C1197 1144.38 1197.07 1155.08 1193.61 1165.62C1188.91 1169.48 1189.67 1174.08 1191.95 1178.76C1195.24 1185.56 1197.05 1192.71 1197.41 1200.25C1196.27 1208.29 1193.11 1215.48 1188.22 1221.95C1181.22 1228.71 1172.64 1231 1163.17 1230.88C1158.31 1230.83 1153.44 1231.09 1148.6 1230.87C1144.76 1230.69 1142.91 1231.56 1143.08 1235.98C1143.51 1247.1 1143.5 1258.25 1143.65 1269.37C1142.98 1280.88 1142.94 1292.41 1143.67 1303.92C1142.91 1315.45 1142.91 1326.99 1143.67 1338.5C1142.96 1350.01 1142.98 1361.54 1143.67 1373.06C1142.58 1384.59 1146.31 1397.73 1133 1405.19C1127.94 1408.79 1123.25 1412.82 1119.24 1417.59C1111.51 1424.63 1101.37 1429.85 1100.78 1442.22C1100.33 1447.83 1100.78 1453.32 1102.44 1459.56C1108.75 1453.7 1115.32 1449.29 1119.52 1442.43C1128.68 1438.44 1133.35 1428.67 1143.67 1423.26C1143.67 1430.43 1143.67 1436.31 1143.67 1442.21C1142.93 1453.74 1142.89 1465.27 1143.72 1476.78C1143.76 1488.3 1143.79 1499.81 1143.82 1511.32C1143.06 1514.69 1140.28 1516.41 1137.98 1518.51C1128.47 1527.24 1118.81 1535.82 1109.51 1544.77C1099.31 1554.59 1097.6 1564.34 1103.23 1578.19C1105.2 1576.36 1107.07 1574.63 1108.94 1572.88C1118.62 1563.91 1128.23 1554.87 1138.02 1546C1139.5 1544.65 1141.77 1539.81 1143.69 1545.93C1143.72 1557.45 1143.76 1568.96 1143.79 1580.47C1143.82 1592.02 1143.86 1603.55 1143.91 1615.1C1143.95 1626.6 1143.98 1638.09 1144.01 1649.59C1143.62 1661.15 1143.32 1672.74 1144.64 1684.27C1143.93 1695.78 1144.72 1707.28 1145.48 1718.76C1145.28 1726.28 1144.41 1733.88 1148.27 1742.91C1158.31 1723.3 1159.24 1703.75 1159.8 1684.13C1161.32 1672.69 1161.2 1661.17 1161.03 1649.66C1162.46 1638.13 1162.6 1626.56 1162.08 1614.98C1162.17 1603.5 1162.25 1592 1162.34 1580.53C1162.36 1568.98 1162.37 1557.45 1162.39 1545.9C1162.41 1534.38 1162.43 1522.87 1162.44 1511.37C1162.46 1499.84 1162.46 1488.31 1162.48 1476.77C1162.49 1465.25 1162.51 1453.74 1162.53 1442.22C1163.24 1430.69 1163.31 1419.16 1162.56 1407.63C1163.26 1396.12 1163.31 1384.59 1162.6 1373.07C1163.38 1361.54 1163.48 1350.03 1162.65 1338.5C1163.07 1337.01 1163.36 1334.28 1163.91 1334.23C1166.78 1333.97 1167.2 1337.62 1169.58 1338.46C1175.18 1345.43 1180.78 1352.42 1186.37 1359.38C1190.43 1365.52 1194.51 1371.66 1198.57 1377.79C1209.65 1398.02 1218.97 1418.89 1221.38 1442.19C1221.72 1453.69 1222.08 1465.2 1222.43 1476.7C1221.63 1488.28 1221.82 1499.84 1222.88 1511.39C1222.08 1522.89 1222.19 1534.38 1222.97 1545.86C1222.01 1557.41 1222.14 1568.94 1223 1580.49C1222.22 1591.99 1222.14 1603.5 1222.91 1615C1221.76 1625.37 1221.69 1635.78 1222.34 1646.18C1222.34 1647.36 1222.36 1648.52 1222.36 1649.69C1222.12 1661.19 1221.88 1672.67 1221.63 1684.16C1219.78 1707.28 1218.83 1730.48 1214.62 1753.35C1210.99 1764.83 1207.36 1776.31 1203.72 1787.79C1192.61 1813.16 1177.86 1836.23 1159.66 1857.09C1157.67 1859.18 1155.68 1861.28 1153.7 1863.37C1143.38 1872.1 1133.05 1880.83 1122.75 1889.58C1120.59 1890.25 1118.79 1891.42 1117.43 1893.24C1106.55 1899.17 1095.7 1905.08 1084.82 1911.01C1074.47 1915.51 1064.1 1920 1053.74 1924.5C1052.38 1924.34 1051.04 1924.32 1050.11 1925.59C1049.16 1925.72 1048.19 1925.86 1047.24 1926C1047 1914.52 1046.77 1903.06 1046.53 1891.58C1046.55 1880.07 1046.57 1868.55 1046.58 1857.06C1046.6 1845.53 1046.64 1834 1046.65 1822.45C1046.69 1810.93 1046.71 1799.42 1046.74 1787.89C1047.53 1782.13 1047.52 1776.38 1046.84 1770.62C1047.69 1764.85 1047.78 1759.07 1046.9 1753.3C1047.64 1741.8 1047.79 1730.3 1047.03 1718.79C1048.16 1707.21 1048.3 1695.63 1047.22 1684.03C1048.17 1672.56 1048.24 1661.1 1047.43 1649.62C1048.61 1638.08 1048.36 1626.51 1047.73 1614.94C1047.78 1603.47 1047.83 1591.97 1047.9 1580.49C1047.95 1568.94 1047.98 1557.39 1048.04 1545.83C1048.09 1534.33 1048.12 1522.84 1048.17 1511.32C1048.19 1499.77 1048.21 1488.23 1048.23 1476.68C1048.24 1465.18 1048.26 1453.67 1048.28 1442.17C1048.64 1430.21 1048.3 1418.33 1055.14 1407.37C1061.95 1396.46 1067.42 1384.71 1073.47 1373.33C1077.32 1367.61 1081.18 1361.87 1085.03 1356.15C1089.73 1350.32 1094.44 1344.48 1099.14 1338.65C1112.14 1329.96 1109.67 1316.63 1109.51 1304.01C1109.8 1297.61 1110.1 1291.23 1110.39 1284.84C1109.79 1284.51 1109.18 1284.2 1108.58 1283.87C1101.89 1290.56 1095.2 1297.25 1088.49 1303.94C1087.3 1305.12 1086.09 1306.29 1084.89 1307.47C1073.9 1317.79 1062.92 1328.09 1051.93 1338.41C1051.36 1338.93 1050.77 1339.45 1050.2 1339.97C1027.1 1358.92 1003.5 1377.19 978.196 1393.11C969.743 1397.86 961.306 1402.62 952.853 1407.37C950.312 1407.61 948.272 1408.86 946.405 1410.5C939.801 1412.44 932.333 1419.2 928.15 1407.3C924.329 1398.3 919.056 1390.29 911.9 1383.57C908.84 1379.21 905.106 1375.53 900.594 1372.69C893.938 1365.97 886.263 1360.78 877.481 1357.26C866.832 1350.72 855.682 1345.73 842.872 1345.73C831.324 1345.1 819.776 1344.88 808.228 1345.86C796.508 1346.85 784.614 1346.87 773.689 1352.23C765.304 1356.29 759.271 1352.86 752.754 1347.16C737.074 1333.42 720.686 1320.49 704.592 1307.21C702.846 1304.72 700.529 1302.92 697.815 1301.59C689.12 1293.05 679.698 1285.37 669.896 1278.13C666.422 1275.21 662.929 1272.27 659.455 1269.35C652.021 1262.17 644.156 1255.52 635.737 1249.52C629.842 1244.59 623.947 1239.67 618.069 1234.74C612.866 1229.41 607.299 1224.56 600.99 1220.56C568.057 1192.35 534.918 1164.38 500.534 1137.93C497.093 1134.25 493.169 1131.15 488.726 1128.75C483.022 1123.06 476.107 1118.98 469.607 1114.35C466.115 1111.86 464.334 1112.26 463.245 1116.63C459.148 1132.97 454.844 1149.25 450.626 1165.55C446.891 1176.88 443.693 1188.32 441.774 1200.11C437.868 1211.37 435.015 1222.9 432.768 1234.58C425.818 1257.3 420.511 1280.45 415.014 1303.54C412.144 1315.09 409.275 1326.66 406.405 1338.2C404.918 1343.6 403.449 1348.99 401.945 1354.46C397.969 1353.82 396.672 1349.87 393.439 1348.75C390.449 1344.77 386.836 1341.47 382.877 1338.5C375.392 1330.36 367.63 1322.47 359.107 1315.39C355.131 1311.48 351.138 1307.57 347.162 1303.68C340.178 1295.56 332.571 1288.04 324.412 1281.07C320.937 1276.59 316.961 1272.63 312.484 1269.16C305.465 1261.09 297.962 1253.5 289.82 1246.55C286.345 1242.07 282.352 1238.08 277.875 1234.6C270.925 1226.48 263.371 1218.94 255.246 1211.97C251.771 1207.49 247.778 1203.5 243.3 1200.03C236.351 1191.88 228.779 1184.36 220.689 1177.38C216.453 1169.96 213.359 1171.26 209.573 1178.12C205.355 1185.76 200.048 1192.82 195.207 1200.11C192.13 1204.16 189.07 1208.2 185.993 1212.25C182.415 1216.26 178.473 1220.01 175.362 1224.35C172.042 1228.98 169.622 1228.34 166.217 1224.56C162.241 1220.15 157.763 1216.19 153.493 1212.04C149.5 1207.06 152.145 1203.1 155.36 1199.13C164.004 1188.46 173.546 1178.42 179.147 1165.59C182.518 1161.65 184.368 1156.88 186.252 1152.17C189.623 1143.81 188.794 1142.08 179.701 1141.77C170.175 1141.42 161.03 1140.45 153.009 1134.76C151.315 1132.93 149.621 1131.1 147.927 1129.27C142.015 1118.79 141.807 1107.87 145.472 1096.66C147.564 1091.13 151.782 1085.44 148.67 1079.62C145.628 1073.9 144.314 1067.91 142.758 1061.86C143.519 1053.56 144.625 1045.39 148.687 1037.85C150.796 1033.93 150.382 1030.09 146.613 1027.11C142.516 1015.72 142.602 1004.24 145.921 992.695C150.503 988.235 150.537 983.239 147.754 977.88C144.538 971.708 143.19 965.035 142.55 958.172C143.605 949.961 146.613 942.544 151.436 935.837C158.334 928.904 166.701 926.138 176.416 926.709C181.291 927.003 186.201 926.38 191.076 926.709C195.674 927.02 197.092 925.291 196.936 920.831C196.556 910.216 196.556 899.602 196.383 888.987C197.178 877.474 197.178 865.96 196.383 854.464C197.178 842.933 197.178 831.385 196.383 819.854C197.178 808.341 197.178 796.827 196.383 785.314C196.711 777.24 197.04 769.15 197.368 761.076C200.082 758.604 202.796 756.132 205.51 753.643C210.887 749.546 216.056 745.241 220.429 740.037C228.105 733.209 237.768 727.919 239.203 716.181C239.635 710.165 239.929 704.148 236.887 696.732C230.179 703.785 224.353 709.905 218.528 716.025C214.119 719.102 210.299 722.802 206.842 726.899C203.194 728.057 201.828 732.794 197.247 733.226C196.936 728.437 196.642 724.012 196.348 719.586C196.331 718.428 196.314 717.287 196.314 716.129C197.143 704.598 197.092 693.084 196.296 681.554C196.244 670.023 196.21 658.492 196.158 646.961C196.331 643.4 198.976 641.533 201.292 639.424C210.385 631.091 219.081 622.292 228.606 614.478C240.344 604.849 241.381 593.076 236.99 576.791C230.732 583.689 225.615 589.359 220.481 595.012C213.687 600.285 207.36 606.041 201.604 612.438C199.858 612.784 198.077 616.328 196.348 612.403C197.074 600.872 196.867 589.342 196.175 577.811C196.141 566.297 196.106 554.784 196.072 543.27C196.037 531.722 196.002 520.191 195.985 508.643C195.795 497.13 195.605 485.616 195.415 474.12C196.141 467.205 196.072 460.324 194.896 453.461C195.812 449.381 195.484 445.319 194.585 441.274C196.02 432.612 191.681 424.643 191.75 416.016C178.542 445.82 179.389 477.335 179.078 508.678C177.903 520.157 177.609 531.67 177.972 543.201C177.868 554.749 177.782 566.315 177.678 577.863C177.661 589.359 177.643 600.855 177.609 612.369C177.592 623.917 177.574 635.448 177.557 646.996C177.557 658.509 177.54 670.005 177.54 681.519C177.522 693.05 177.522 704.581 177.505 716.129C177.488 727.642 177.471 739.156 177.471 750.669C176.779 762.2 176.693 773.731 177.436 785.262C176.727 796.775 176.675 808.306 177.384 819.82C176.693 821.929 176.468 825.04 173.374 821.462C172.077 819.958 170.59 818.627 169.19 817.209C163.33 809.827 157.469 802.446 151.609 795.064C149.707 790.258 146.423 786.368 143.415 782.271C137.952 771.743 132.507 761.215 127.044 750.687C125.332 744.671 123.483 738.706 121.944 732.638C117.657 715.818 119.437 698.495 117.709 681.45C117.536 669.971 117.363 658.492 117.19 647.013C118.297 635.448 118.176 623.882 117.086 612.317C117.795 600.803 117.812 589.29 117 577.776C117.934 566.245 118.193 554.697 117.121 543.149C118.158 531.688 118.193 520.209 117.812 508.712C118.729 497.164 118.884 485.616 118.4 474.051C118.452 471.181 118.487 468.294 118.539 465.424C119.749 460.808 120.198 456.141 119.662 451.404C119.835 447.497 120.008 443.59 120.181 439.683C122.549 425.231 124.918 410.778 127.286 396.326C129.36 393.802 129.429 390.604 130.225 387.63C130.484 386.524 130.761 385.417 131.02 384.311C132.818 383.032 132.714 380.992 133.06 379.125C134.598 376.428 135.947 373.645 136.102 370.446C146.82 346.157 160.616 323.787 177.626 303.405C180.427 300.397 183.245 297.406 186.045 294.398C195.899 286.066 205.735 277.508 215.572 268.934C218.493 267.862 220.81 265.943 222.936 263.73ZM307.367 958.207C305.379 948.128 298.152 946.935 289.734 947.782C278.255 945.587 266.69 946.468 255.125 946.78C243.646 946.762 232.167 946.745 220.671 946.745C209.089 946.157 197.524 945.863 186.028 947.921C182.899 947.921 179.614 947.333 176.658 948.042C171.04 949.407 164.419 950.064 164.211 958.241C162.673 965.329 166.372 968.977 172.699 970.308C177.073 971.224 181.481 972.573 186.062 971.812C197.576 972.538 209.089 973.109 220.619 972.348C232.133 973.333 243.646 973.437 255.159 972.227C266.69 973.195 278.203 972.728 289.716 971.864C300.867 973.178 309.545 968.233 307.367 958.207ZM1175.01 1200.35C1177.19 1193.84 1174.06 1189.98 1168.16 1188.53C1163.58 1187.39 1158.73 1187.42 1153.99 1186.94C1147.07 1186.78 1140.14 1186.63 1133.23 1186.47C1128.61 1185.66 1123.98 1185.26 1119.33 1186.2C1107.85 1184.85 1096.35 1185 1084.84 1185.49C1071.2 1184.66 1057.54 1184.28 1043.96 1186.04C1032.44 1187.53 1029.26 1194.68 1034.95 1205.47C1038.84 1211.05 1044.7 1210.24 1050.32 1210.21C1061.81 1210.26 1073.29 1210.29 1084.79 1210.35C1096.35 1210.9 1107.92 1211.09 1119.47 1209.88C1131 1210.36 1142.46 1209.57 1153.94 1208.69C1161.73 1207.86 1171.07 1210.92 1175.01 1200.35ZM165.37 1062C164.989 1069.44 167.479 1073.72 175.915 1072.32C179.199 1071.77 182.622 1072.05 185.976 1071.92C197.524 1071.92 209.072 1071.92 220.619 1071.92C232.098 1071.91 243.594 1071.87 255.073 1071.86C265.895 1072.94 276.647 1071.82 287.383 1070.66C292.776 1070.09 296.562 1067.5 296.908 1061.64C297.254 1055.8 296.994 1050.11 289.699 1048.34C278.272 1046.04 266.724 1046.27 255.159 1046.56C243.646 1045.65 232.115 1045.34 220.585 1046.36C209.054 1045.37 197.558 1046.1 186.045 1046.82C181.135 1045.91 176.382 1047.27 171.818 1048.53C165.024 1050.44 161.86 1054.79 165.37 1062ZM1084.84 1086.12C1073.28 1085.94 1061.64 1084.73 1050.27 1087.98C1042.9 1088.57 1042.85 1094.14 1043.01 1099.33C1043.18 1105.06 1045.93 1109.37 1052.08 1110.04C1056.61 1110.54 1061.24 1110.32 1065.82 1110.42C1067.55 1111.29 1069.3 1111.5 1071.08 1110.65C1075.63 1111.74 1080.22 1111.96 1084.88 1111.31C1096.37 1112.15 1107.88 1112.33 1119.4 1111.55C1128.61 1112.24 1137.81 1112.22 1146.97 1111.06C1149.41 1111.96 1151.71 1111.36 1153.99 1110.48C1175.2 1110.72 1179.23 1105.91 1172.87 1087.95C1172.99 1086.77 1172.83 1085.81 1171.28 1086.03C1165.52 1085.06 1159.75 1085.06 1153.99 1086.03C1142.46 1085.06 1130.93 1085.17 1119.38 1086C1107.87 1084.87 1096.35 1085.41 1084.84 1086.12ZM270.718 1020.53C277.131 1020.56 283.597 1021.44 289.855 1019.16C297.081 1019.39 302.682 1016.79 302.474 1008.84C302.267 1001.29 296.614 999.161 289.837 999.472C283.009 997.121 275.973 998.089 268.989 998.072C264.944 997.207 260.864 996.896 256.784 997.743C256.248 997.778 255.73 997.813 255.194 997.847C243.698 996.291 232.167 996.481 220.619 996.862C205.666 996.049 190.73 996.067 175.863 998.037C168.931 998.954 163.641 1001.55 163.814 1009.79C163.987 1017.73 169.449 1019.73 175.863 1020.6C190.73 1022.62 205.666 1022.64 220.619 1021.79C232.202 1022.21 243.802 1022.43 255.332 1020.93C258.167 1021.81 260.968 1021.58 263.751 1020.72C266.102 1021.67 268.419 1021.31 270.718 1020.53ZM1154.23 1137.5C1142.67 1135.72 1131.05 1136.29 1119.43 1136.49C1107.9 1135.61 1096.35 1134.92 1084.79 1135.94C1073.28 1135.23 1061.81 1135.51 1050.37 1137.03C1042.71 1137.29 1036.82 1139.81 1037.08 1148.75C1037.32 1157.29 1043.11 1159.42 1050.44 1159.28C1060.1 1161.51 1069.89 1160.82 1079.65 1160.56C1092.93 1161.49 1106.19 1160.89 1119.45 1160.25C1131 1160.45 1142.55 1160.9 1154.01 1158.9C1159.21 1159.4 1164.29 1158.98 1169.29 1157.29C1173.68 1155.8 1175.98 1152.52 1176.03 1148.27C1176.08 1143.56 1173.52 1140.04 1168.7 1138.86C1163.95 1137.74 1159.14 1136.98 1154.23 1137.5ZM659.299 1096.73C669.568 1104.41 677.157 1102.99 686.89 1091.6C695.412 1081.61 694.876 1073.88 684.953 1063.94C674.702 1053.67 668.116 1053.18 657.812 1061.98C643.101 1074.31 643.533 1084.63 659.299 1096.73ZM186.114 1120.05C197.593 1120.24 209.089 1120.43 220.568 1120.62C232.098 1121.37 243.629 1121.63 255.159 1120.74C264.356 1121.19 273.518 1121.11 282.663 1119.85C289.215 1118.95 292.603 1115.04 292.534 1108.89C292.465 1102.85 289.232 1098.74 282.698 1097.77C273.57 1096.4 264.425 1096.02 255.211 1096.37C243.681 1094.59 232.098 1094.9 220.516 1095.64C208.985 1095.07 197.489 1095.04 186.028 1096.68C181.135 1095.99 176.416 1096.8 171.731 1098.15C165.836 1099.84 163.641 1103.73 164.073 1109.7C164.505 1115.66 166.839 1119.34 173.408 1119.34C177.643 1119.34 181.81 1121.04 186.114 1120.05ZM1084.88 1036.45C1076.28 1036.28 1067.62 1036.78 1059.15 1035.76C1050.91 1034.77 1049.18 1038.8 1048.02 1045.58C1046.77 1052.82 1048.62 1057.44 1055.94 1059.15C1065.44 1061.36 1075.09 1062.43 1084.88 1061.72C1096.37 1061.76 1107.88 1061.79 1119.38 1061.83C1130.96 1061.95 1142.58 1063.19 1154.08 1060.64C1158.09 1061.05 1161.99 1060.39 1165.9 1059.49C1174.18 1057.58 1176.01 1052.55 1175.49 1044.3C1174.92 1035.05 1168.96 1037.83 1164.22 1037.5C1160.85 1037.26 1157.43 1037.63 1154.02 1037.71C1142.49 1036.36 1130.93 1036.35 1119.36 1036.81C1107.87 1036.67 1096.37 1036.55 1084.88 1036.45ZM771.666 1197.02C781.727 1203.5 789.748 1201.82 799.101 1191.28C807.485 1181.82 807.502 1175.44 799.204 1165.85C793.949 1159.02 787.76 1153.04 778.46 1155.84C769.021 1158.69 761.639 1165.09 759.893 1175.22C758.234 1184.95 763.524 1192.02 771.666 1197.02ZM541.815 993.007C546.95 999.057 552.724 1004.81 561.385 1001.77C571.411 998.245 578.827 990.915 580.141 980.196C581.334 970.412 575.335 963.635 566.467 959.624C555.662 954.49 547.226 956.789 540.052 966.816C532.342 977.603 532.74 983.516 541.815 993.007Z"/>
<path d="M600.886 282.055C612.399 279.773 623.895 277.491 635.408 275.209C658.469 271.873 681.513 268.519 704.574 265.182C716.088 264.404 727.584 263.626 739.097 262.848C750.645 263.056 762.193 263.229 773.689 261.828C785.202 261.863 796.698 261.915 808.211 261.949C819.724 263.523 831.307 263.16 842.889 262.969C854.385 263.54 865.881 264.093 877.377 264.664C900.646 267.603 923.638 272.149 946.578 276.903C947.909 277.37 949.24 277.889 950.606 278.286C969.017 283.611 969.016 283.611 965.438 301.434C960.77 312.723 956.622 324.202 953.354 335.992C949.707 343.201 946.906 350.721 944.918 358.535C938.055 373.679 932.298 389.255 927.026 405.004C918.037 417.106 923.136 428.498 928.72 439.891C936.24 463.16 944.382 486.187 953.389 508.92C956.587 520.762 960.736 532.258 965.715 543.478C971.074 559.158 976.45 574.82 981.809 590.5C982.794 593.37 984.938 596.343 981.135 598.815C966.354 602.134 951.608 605.506 936.81 608.738C930.293 610.173 927.009 614.167 926.525 620.684C925.85 629.535 925.176 638.369 924.519 647.22C923.759 658.734 921.874 670.161 922.393 681.761C920.059 693.223 920.491 704.857 920.059 716.457C918.434 727.867 918.365 739.329 918.624 750.825C918.313 754.957 915.547 755.942 912.021 755.959C900.559 754.092 888.994 754.265 877.446 754.403C865.898 753.487 854.351 752.588 842.803 751.672C819.344 749.546 796.179 745.915 773.965 737.652C763.8 732.241 751.561 730.045 743.004 718.428C754.621 719.742 763.8 723.493 773.533 723.787C785.029 726.034 796.456 728.939 808.315 728.386C819.742 730.979 831.393 730.719 842.993 730.996C854.454 731.93 865.916 731.878 877.394 731.307C898.9 731.947 894.63 734.35 894.526 716.302C894.647 706.638 894.785 696.974 894.906 687.31C898.606 683.766 897.517 679.133 897.724 674.794C897.862 671.924 898.018 669.055 898.156 666.185C899.09 655 892.192 664.612 889.547 662.935C888.959 662.969 888.389 663.021 887.801 663.056C885.882 662.745 884.067 662.831 882.581 664.318C862.32 666.963 843.442 674.794 823.891 680.119C818.704 680.81 813.518 681.502 808.332 682.193C796.784 682.971 785.271 682.193 773.758 681.502C771.666 679.894 769.211 680.05 766.774 680.119C759.478 677.802 752.166 675.503 744.888 673.152C743.228 672.616 740.29 672.772 742.399 669.556C767.5 664.041 788.262 650.246 808.28 635.015C818.687 628.17 829.094 621.341 839.484 614.495C841.783 614.063 843.736 613.008 845.327 611.28C856.045 606.595 866.745 601.91 877.464 597.225C890.118 594.891 902.288 590.759 914.596 587.163C924.796 585.175 935.064 583.429 944.866 579.799C949.465 579.574 951.124 577.067 949.603 572.901C945.973 562.995 942.083 553.176 938.314 543.322C934.892 531.567 930.881 520.036 925.85 508.868C918.642 485.478 910.033 462.572 901.285 439.718C898.502 434.998 901.441 426.112 891.604 426.545C879.987 427.063 868.353 427.53 856.736 428.031C852.051 427.685 847.367 427.392 842.768 428.757C815.247 426.873 793.569 439.666 773.412 456.314C766.376 461.033 760.602 466.997 755.9 474.033C748.397 482.453 741.966 491.58 737.368 501.936C728.811 514.763 723.106 528.956 717.54 543.218C712.492 554.542 707.859 566.021 704.678 578.036C703.503 579.557 702.707 581.234 702.915 583.222C698.61 592.713 694.963 602.446 692.456 612.576C687.858 624.107 683.242 635.638 678.644 647.151C667.476 670.68 656.343 694.208 642.582 716.371C640.197 719.794 637.829 723.199 635.443 726.622C628.563 734.713 621.665 742.803 614.785 750.894C610.169 754.974 605.571 759.054 600.955 763.134C580.349 778.52 557.045 787.077 531.754 790.69C520.241 790.707 508.728 790.742 497.197 790.759C465.475 783.654 441.584 766.73 429.086 735.871C426.527 729.544 424.989 722.819 422.983 716.267C422.257 704.771 421.635 693.257 422.672 681.744C423.588 678.424 424.453 675.105 425.438 671.803C436.104 635.828 461.586 617.192 497.214 610.398C509.713 608.41 522.315 609.032 535.039 609.551C524.252 599.161 511.494 594.372 497.18 593.283C488.744 593.024 487.516 589.117 491.544 582.357C492.236 581.199 492.218 579.609 492.53 578.226C495.417 572.676 497.647 566.868 498.96 560.748C506.809 543.875 513.05 526.398 519.29 508.903C524.321 497.717 528.729 486.29 532.411 474.587C532.826 473.359 533.241 472.132 533.656 470.904C538.686 460.929 542.541 450.488 545.653 439.77C549.664 428.584 558.169 418.004 550.373 405.212C542.196 381.113 533.673 357.135 523.405 333.831C522.419 330.875 521.555 327.867 520.414 324.98C515.245 311.755 515.21 311.772 524.995 303.457C527.588 303.785 529.939 303.319 531.789 301.313C543.406 297.579 555.023 293.845 566.657 290.111C578.032 287.414 589.459 284.735 600.886 282.055Z"/>
<path d="M393.647 1880.64C391.521 1879.93 389.412 1879.13 387.233 1878.53C369.929 1873.69 369.929 1873.71 374.147 1857.14C378.192 1845.63 382.237 1834.12 386.283 1822.62C395.652 1799.82 404.763 1776.89 412.576 1753.5C421.618 1741.59 416.985 1730.08 411.556 1718.6C403.777 1695.45 396.05 1672.29 386.784 1649.68C383.465 1637.89 379.42 1626.37 374.458 1615.17C368.995 1599.09 363.498 1583.03 358.122 1566.92C357.223 1564.24 354.699 1561.11 359.124 1559C374.769 1555.61 390.414 1552.16 406.076 1548.87C410.208 1548.01 412.334 1546.3 412.559 1541.59C413.043 1531.58 414.219 1521.61 415.118 1511.63C416.138 1500.07 417.814 1488.54 417.451 1476.87C419.025 1465.41 419.751 1453.88 419.543 1442.29C421.981 1430.88 421.168 1419.3 421.445 1407.79C422.43 1404.5 425.507 1403.97 428.048 1402.7C439.596 1403 451.127 1403.28 462.675 1403.57C474.171 1404.3 485.649 1405.02 497.145 1405.73C520.604 1408.41 543.821 1412.39 566.259 1419.98C576.494 1425.73 588.283 1428.77 596.581 1438.8C586.52 1437 576.442 1435.21 566.38 1433.39C555.006 1430.3 543.337 1429.81 531.668 1429.21C520.189 1428.57 508.71 1427.93 497.232 1427.29C485.684 1426.96 474.119 1426.61 462.571 1426.29C457.454 1424.99 452.268 1425.23 447.082 1425.46C445.854 1425.08 445.318 1425.46 445.578 1426.77C445.543 1431.94 445.491 1437.12 445.457 1442.29C444.592 1453.82 443.711 1465.37 442.846 1476.9C440.547 1501.33 437.245 1496.82 460.22 1493.24C461.05 1493.12 461.81 1492.63 462.623 1492.31C486.012 1487.95 508.157 1478.53 531.772 1475.07C543.216 1475.28 554.694 1474.4 566.104 1476.16C577.876 1479 589.632 1481.88 600.765 1486.77C589.13 1490.58 576.753 1492.36 566.363 1499.53C559.569 1502.16 553.726 1506.27 548.35 1511.1C542.732 1515.04 537.131 1518.98 531.512 1522.92C508.676 1537.39 485.857 1551.91 460.203 1561.15C449.485 1564.14 438.749 1567.14 428.031 1570.14C416.38 1571.35 405.247 1575.03 393.889 1577.66C391.918 1578.1 388.945 1579.14 391.728 1582.31C393.924 1593.66 397.917 1604.45 402.221 1615.13C405.575 1628 410.312 1640.39 415.308 1652.68C418.333 1662.88 421.721 1672.94 426.216 1682.61C426.112 1684.58 426.475 1686.39 428.048 1687.76C431.661 1698.1 435.292 1708.45 438.905 1718.79C439.856 1728.82 444.99 1733.14 455.155 1730.98C457.61 1730.46 460.185 1730.49 462.709 1730.27C474.188 1729.82 485.667 1729.39 497.163 1728.94C525.548 1730.77 547.779 1717.48 568.282 1699.96C573.693 1696.23 578.222 1691.61 581.974 1686.22C600.644 1665.58 612.295 1641 621.89 1615.24C627.076 1604.9 630.948 1594.08 634.146 1582.98C635.979 1580.16 637.172 1577.12 637.362 1573.73C641.217 1565.64 643.948 1557.17 646.317 1548.54C651.209 1536.17 656.101 1523.79 660.993 1511.39C671.003 1489.02 681.894 1467.1 694.323 1445.96C698.385 1440.15 702.448 1434.34 706.528 1428.53C711.766 1422.38 717.004 1416.21 722.242 1410.05C727.947 1404.87 733.651 1399.7 739.373 1394.51C757.127 1382.43 775.538 1371.79 797.32 1368.79C800.985 1368.29 804.633 1367.77 808.297 1367.25C819.845 1367.18 831.376 1367.11 842.924 1367.04C881.491 1374.32 907.733 1399.94 915.841 1438.21C916.135 1439.6 916.74 1440.93 917.207 1442.28C917.795 1453.81 918.123 1465.32 917.276 1476.85C914.96 1484.34 912.626 1491.82 910.309 1499.31C902.202 1513.97 891.777 1526.52 877.412 1535.47C870.514 1538.41 863.634 1541.35 856.736 1544.29C852.086 1545.36 847.453 1546.43 842.803 1547.51C830.252 1548.37 817.65 1548.09 804.961 1548.11C815.835 1558.57 828.731 1563.19 842.941 1564.6C851.066 1564.08 853.071 1567.21 848.871 1574.3C848.179 1575.48 848.162 1577.03 847.816 1578.42C837.98 1601.91 828.696 1625.61 820.399 1649.69C815.524 1660.2 811.409 1670.99 808.021 1682.07C806.552 1683.01 806.43 1684.46 806.517 1685.98C801.763 1696.66 797.095 1707.36 794.07 1718.7C789.368 1729.96 782.004 1740.9 790.163 1753.59C798.098 1776.96 806.707 1800.08 816.059 1822.91C816.44 1824.28 816.751 1825.7 817.235 1827.03C824.651 1847.12 824.651 1847.12 806.085 1856.94C795.298 1860.41 784.493 1863.89 773.706 1867.36C762.192 1870.3 750.679 1873.22 739.166 1876.16C729.036 1877.89 718.923 1879.79 708.758 1881.35C688.964 1884.37 669.136 1887.19 649.307 1890.09C644.709 1890.34 640.11 1890.6 635.512 1890.84C623.964 1891.82 612.399 1892.81 600.851 1893.78C589.355 1894.35 577.842 1894.92 566.346 1895.49C554.798 1895.68 543.25 1895.87 531.702 1896.06C520.206 1895.88 508.693 1895.69 497.197 1895.52C493.74 1895.4 490.265 1895.28 486.808 1895.16C484.543 1894.29 482.244 1893.88 479.858 1894.61C474.24 1892.89 468.466 1893.31 462.709 1893.15C439.665 1888.99 416.656 1884.8 393.647 1880.64Z"/>
<path d="M876.219 923.234C876.184 923.632 876.323 923.96 876.634 924.219C871.897 935.266 870.255 947.143 867.42 958.691C864.325 967.594 861.749 976.653 860.09 985.953C853.745 991.745 851.481 982.34 846.692 982.357C836.355 974.267 826.017 966.194 815.679 958.103C802.956 946.468 789.368 935.854 775.763 925.274C774.968 923.632 773.723 922.508 771.96 922.006C761.605 913.363 751.25 904.702 740.895 896.058C737.973 892.514 734.429 889.713 730.505 887.379C722.294 879.479 713.616 872.149 704.453 865.372C699.855 860.497 694.807 856.141 689.171 852.476C683.38 846.494 676.915 841.291 670.225 836.364C650.465 819.387 630.706 802.411 610.964 785.435C627.715 767.836 645.383 751.032 659.161 730.806C661.961 726.691 664.745 730.529 667.511 730.477C679.491 736.908 691.54 743.218 704.419 747.696C708.187 750.082 712.198 751.897 716.623 752.675C723.642 756.789 731.318 759.071 739.149 761.007C750.333 765.156 761.691 768.631 773.498 770.515C784.787 774.129 796.369 776.255 808.142 777.413C819.603 779.643 831.082 781.752 842.82 781.873C854.264 784.017 865.795 785.141 877.429 785.193C884.344 785.85 891.241 786.506 898.156 787.163C906.679 788.097 908.235 792.298 905.486 800.181C903.273 806.474 902.841 813.389 901.614 820.027C898.001 831.333 895.442 842.916 893.247 854.568C890.429 866.116 887.594 877.647 884.776 889.195C881.924 900.553 879.071 911.893 876.219 923.234Z"/>
<path d="M463.245 1235.15C464.524 1233.53 464.455 1231.63 464.421 1229.71C468.31 1220.22 470.039 1210.14 472.355 1200.22C475.83 1189.53 477.3 1178.26 481.829 1167.89C486.012 1166 488.173 1169.44 490.663 1171.48C512.929 1189.88 535.108 1208.39 557.339 1226.82C560.174 1229.17 563.182 1231.32 566.121 1233.55C566.674 1234.01 567.245 1234.48 567.798 1234.95C578.24 1244.85 589.303 1254.01 600.834 1262.62C603.081 1265.58 606.02 1267.71 609.166 1269.57C617.36 1277.66 626.194 1284.99 635.495 1291.79C640.456 1295.95 645.4 1300.12 650.362 1304.29C656.378 1310.49 663.016 1315.97 670.069 1320.93C677.019 1326.8 683.951 1332.64 690.9 1338.5C695.014 1342.96 699.509 1346.97 704.661 1350.22C710.798 1355.58 716.935 1360.96 723.054 1366.31C725.129 1368.13 727.826 1369.58 726.944 1373.09C724.23 1376.39 721.654 1379.82 718.802 1382.98C707.306 1395.81 694.133 1407.2 684.21 1421.34C680.061 1427.24 676.275 1429.5 669.983 1425.27C658.832 1419.18 647.665 1413.11 635.529 1409.14C633.559 1407.23 631.121 1406.42 628.476 1406.11C619.694 1401.63 610.325 1398.82 600.903 1396.12C589.58 1392.3 578.205 1388.65 566.294 1387.06C555.023 1383.55 543.423 1381.74 531.772 1380.27C520.362 1377.64 508.78 1376.36 497.128 1375.48C485.684 1374.34 474.223 1373.2 462.778 1372.05C459.269 1371.79 455.76 1371.55 452.268 1371.29C451.075 1370.52 449.917 1370.5 448.81 1371.45C446.528 1371.35 444.264 1371.22 441.982 1371.12C431.713 1369.44 432.128 1363.2 434.704 1355.32C436.467 1349.93 437.072 1344.15 438.196 1338.53C440.997 1326.99 443.797 1315.45 446.598 1303.91C449.381 1292.46 452.147 1281.03 454.93 1269.59C457.696 1258.16 460.462 1246.67 463.245 1235.15Z"/>
<path d="M837.651 477.629C839.397 477.249 841.126 476.869 842.872 476.471C850.703 478.252 858.067 481.07 864.688 485.754C868.941 488.763 868.733 491.373 864.688 494.277C858.085 498.997 850.737 501.901 842.872 503.595C835.836 501.382 828.973 498.893 822.853 494.588C818.462 491.494 817.996 488.399 822.715 485.547C827.538 482.66 832.655 480.257 837.651 477.629Z"/>
<path d="M497.128 1654.38C504.423 1656.18 511.2 1659.08 517.406 1663.38C521.78 1666.43 521.33 1668.97 517.354 1671.91C511.252 1676.42 504.337 1679.05 497.128 1681.07C489.02 1679.96 481.898 1676.51 475.242 1671.92C471.18 1669.12 471.042 1666.29 475.191 1663.32C481.829 1658.61 488.986 1655.31 497.128 1654.38Z"/>
</mask>
<path d="M222.936 263.73C233.775 257.489 244.597 251.248 255.436 245.008C264.563 241.325 273.691 237.66 282.819 233.978C289.682 231.368 291.704 234.082 291.48 240.928C291.186 249.537 291.791 258.181 292.016 266.807C291.618 278.39 291.255 289.973 292.811 301.503C292.102 313 292.309 324.496 293.105 335.992C292.171 341.766 292.379 347.54 293.174 353.314C292.517 359.088 292.534 364.845 293.295 370.602C293.312 382.115 293.347 393.629 293.364 405.143C293.381 416.673 293.381 428.204 293.398 439.752C293.416 451.266 293.416 462.779 293.433 474.293C293.433 485.824 293.416 497.372 293.416 508.903C293.416 520.416 293.398 531.93 293.398 543.443C293.398 554.974 293.381 566.505 293.381 578.053C293.381 589.566 293.364 601.08 293.364 612.593C293.295 623.536 293.243 634.497 293.174 645.44C292.327 648.915 292.223 652.372 293.087 655.864C292.448 664.456 291.843 673.065 292.621 681.692C291.082 693.188 291.497 704.771 291.376 716.319C290.546 721.661 289.785 727.037 288.869 732.362C285.619 751.05 275.23 766.678 266.966 783.205C258.893 794.009 253.016 806.698 242.833 815.584C230.318 826.527 229.159 839.96 230.646 854.723C229.851 860.463 229.557 866.202 230.819 871.907C230.957 872.322 231.078 872.72 231.216 873.135C231.735 872.72 232.254 872.322 232.772 871.907C238.529 867.343 243.681 862.174 248.383 856.573C251.909 854.256 254.883 851.352 257.251 847.86C266.379 839.216 275.506 830.573 284.634 821.929C287.676 820.286 290.166 818.039 292.154 815.221C313.521 797.64 335.268 780.577 358.813 765.952C367.664 761.007 376.515 756.08 385.366 751.136C388.046 749.857 390.743 748.578 393.422 747.281C400.493 744.601 408.168 738.689 412.438 750.859C415.619 758.725 420.235 765.64 426.268 771.605C431.402 778.727 437.608 784.691 445.163 789.203C450.124 794.061 456.071 797.363 462.346 800.164C473.133 806.404 484.076 812.196 497.145 811.331C508.659 812.784 520.172 812.179 531.685 811.159C543.648 811.176 555.42 810.19 566.38 804.762C574.54 800.769 580.781 803.483 586.676 809.724C590.358 813.613 595.06 816.552 599.295 819.906C600.315 820.77 601.335 821.635 602.355 822.499C612.192 831.454 622.27 840.15 633.005 848.033C636.688 852.147 640.819 855.726 645.556 858.561C652.557 865.32 659.921 871.63 667.891 877.214C672.195 881.986 677.14 885.962 682.499 889.471C688.757 895.712 695.568 901.313 702.759 906.43C736.78 935.958 771.355 964.828 806.707 992.765C818.324 1003.1 830.2 1013.09 842.906 1022.07C845.171 1023.85 847.453 1025.63 849.718 1027.41C855.785 1033.56 863.202 1037.95 870.151 1042.95C874.317 1045.94 875.994 1044.52 877.083 1040.15C881.042 1024.35 885.139 1008.57 889.184 992.782C892.123 981.268 895.045 969.772 897.983 958.259C901.735 946.935 904.898 935.474 906.869 923.701C913.646 900.916 919.42 877.871 924.502 854.637C928.322 843.365 931.227 831.869 933.111 820.114C934.131 816.656 935.6 813.25 936.05 809.706C936.897 803.189 939.161 801.512 944.313 806.404C948.514 811.487 953.199 816.068 958.506 820.01C965.438 826.925 972.353 833.84 979.285 840.755C985.128 846.391 990.971 852.009 996.814 857.645C1003.04 863.817 1009.28 869.988 1015.5 876.16C1020.15 881.778 1025.22 886.965 1030.92 891.529C1036.57 897.164 1042.23 902.817 1047.88 908.453C1053.27 914.746 1058.84 920.865 1065.55 925.827C1069.75 931.791 1075.21 936.511 1080.64 941.282C1087.14 948.889 1094.19 955.942 1101.8 962.442C1106.28 966.92 1110.74 971.397 1115.21 975.875C1117.95 979.937 1121.56 983.084 1125.74 986.42C1131.91 976.946 1137.95 967.663 1143.98 958.397C1147.39 953.902 1150.81 949.407 1154.21 944.913C1157.64 941.092 1161.32 937.462 1164.43 933.399C1167.42 929.509 1169.76 928.126 1173.59 932.604C1178.24 938.015 1183.48 942.907 1188.48 948.024C1189.89 952.657 1186.65 955.493 1184.31 958.604C1176.31 969.236 1166.54 978.571 1160.77 990.846C1157.17 994.683 1155.3 999.489 1153.42 1004.23C1149.89 1013.08 1150.9 1014.89 1160.35 1015.41C1170.5 1015.98 1180.34 1017.14 1188.51 1024C1189.55 1025.18 1190.57 1026.37 1191.61 1027.55C1198.04 1038.63 1197.26 1050.21 1193.99 1061.97C1191.5 1067.31 1190.43 1073.07 1192.78 1078.44C1195.32 1084.3 1196.03 1090.4 1197.09 1096.52C1195.31 1102.52 1195.46 1109.01 1192.57 1114.75C1189.13 1121.57 1189.6 1127.9 1194.99 1133.59C1197 1144.38 1197.07 1155.08 1193.61 1165.62C1188.91 1169.48 1189.67 1174.08 1191.95 1178.76C1195.24 1185.56 1197.05 1192.71 1197.41 1200.25C1196.27 1208.29 1193.11 1215.48 1188.22 1221.95C1181.22 1228.71 1172.64 1231 1163.17 1230.88C1158.31 1230.83 1153.44 1231.09 1148.6 1230.87C1144.76 1230.69 1142.91 1231.56 1143.08 1235.98C1143.51 1247.1 1143.5 1258.25 1143.65 1269.37C1142.98 1280.88 1142.94 1292.41 1143.67 1303.92C1142.91 1315.45 1142.91 1326.99 1143.67 1338.5C1142.96 1350.01 1142.98 1361.54 1143.67 1373.06C1142.58 1384.59 1146.31 1397.73 1133 1405.19C1127.94 1408.79 1123.25 1412.82 1119.24 1417.59C1111.51 1424.63 1101.37 1429.85 1100.78 1442.22C1100.33 1447.83 1100.78 1453.32 1102.44 1459.56C1108.75 1453.7 1115.32 1449.29 1119.52 1442.43C1128.68 1438.44 1133.35 1428.67 1143.67 1423.26C1143.67 1430.43 1143.67 1436.31 1143.67 1442.21C1142.93 1453.74 1142.89 1465.27 1143.72 1476.78C1143.76 1488.3 1143.79 1499.81 1143.82 1511.32C1143.06 1514.69 1140.28 1516.41 1137.98 1518.51C1128.47 1527.24 1118.81 1535.82 1109.51 1544.77C1099.31 1554.59 1097.6 1564.34 1103.23 1578.19C1105.2 1576.36 1107.07 1574.63 1108.94 1572.88C1118.62 1563.91 1128.23 1554.87 1138.02 1546C1139.5 1544.65 1141.77 1539.81 1143.69 1545.93C1143.72 1557.45 1143.76 1568.96 1143.79 1580.47C1143.82 1592.02 1143.86 1603.55 1143.91 1615.1C1143.95 1626.6 1143.98 1638.09 1144.01 1649.59C1143.62 1661.15 1143.32 1672.74 1144.64 1684.27C1143.93 1695.78 1144.72 1707.28 1145.48 1718.76C1145.28 1726.28 1144.41 1733.88 1148.27 1742.91C1158.31 1723.3 1159.24 1703.75 1159.8 1684.13C1161.32 1672.69 1161.2 1661.17 1161.03 1649.66C1162.46 1638.13 1162.6 1626.56 1162.08 1614.98C1162.17 1603.5 1162.25 1592 1162.34 1580.53C1162.36 1568.98 1162.37 1557.45 1162.39 1545.9C1162.41 1534.38 1162.43 1522.87 1162.44 1511.37C1162.46 1499.84 1162.46 1488.31 1162.48 1476.77C1162.49 1465.25 1162.51 1453.74 1162.53 1442.22C1163.24 1430.69 1163.31 1419.16 1162.56 1407.63C1163.26 1396.12 1163.31 1384.59 1162.6 1373.07C1163.38 1361.54 1163.48 1350.03 1162.65 1338.5C1163.07 1337.01 1163.36 1334.28 1163.91 1334.23C1166.78 1333.97 1167.2 1337.62 1169.58 1338.46C1175.18 1345.43 1180.78 1352.42 1186.37 1359.38C1190.43 1365.52 1194.51 1371.66 1198.57 1377.79C1209.65 1398.02 1218.97 1418.89 1221.38 1442.19C1221.72 1453.69 1222.08 1465.2 1222.43 1476.7C1221.63 1488.28 1221.82 1499.84 1222.88 1511.39C1222.08 1522.89 1222.19 1534.38 1222.97 1545.86C1222.01 1557.41 1222.14 1568.94 1223 1580.49C1222.22 1591.99 1222.14 1603.5 1222.91 1615C1221.76 1625.37 1221.69 1635.78 1222.34 1646.18C1222.34 1647.36 1222.36 1648.52 1222.36 1649.69C1222.12 1661.19 1221.88 1672.67 1221.63 1684.16C1219.78 1707.28 1218.83 1730.48 1214.62 1753.35C1210.99 1764.83 1207.36 1776.31 1203.72 1787.79C1192.61 1813.16 1177.86 1836.23 1159.66 1857.09C1157.67 1859.18 1155.68 1861.28 1153.7 1863.37C1143.38 1872.1 1133.05 1880.83 1122.75 1889.58C1120.59 1890.25 1118.79 1891.42 1117.43 1893.24C1106.55 1899.17 1095.7 1905.08 1084.82 1911.01C1074.47 1915.51 1064.1 1920 1053.74 1924.5C1052.38 1924.34 1051.04 1924.32 1050.11 1925.59C1049.16 1925.72 1048.19 1925.86 1047.24 1926C1047 1914.52 1046.77 1903.06 1046.53 1891.58C1046.55 1880.07 1046.57 1868.55 1046.58 1857.06C1046.6 1845.53 1046.64 1834 1046.65 1822.45C1046.69 1810.93 1046.71 1799.42 1046.74 1787.89C1047.53 1782.13 1047.52 1776.38 1046.84 1770.62C1047.69 1764.85 1047.78 1759.07 1046.9 1753.3C1047.64 1741.8 1047.79 1730.3 1047.03 1718.79C1048.16 1707.21 1048.3 1695.63 1047.22 1684.03C1048.17 1672.56 1048.24 1661.1 1047.43 1649.62C1048.61 1638.08 1048.36 1626.51 1047.73 1614.94C1047.78 1603.47 1047.83 1591.97 1047.9 1580.49C1047.95 1568.94 1047.98 1557.39 1048.04 1545.83C1048.09 1534.33 1048.12 1522.84 1048.17 1511.32C1048.19 1499.77 1048.21 1488.23 1048.23 1476.68C1048.24 1465.18 1048.26 1453.67 1048.28 1442.17C1048.64 1430.21 1048.3 1418.33 1055.14 1407.37C1061.95 1396.46 1067.42 1384.71 1073.47 1373.33C1077.32 1367.61 1081.18 1361.87 1085.03 1356.15C1089.73 1350.32 1094.44 1344.48 1099.14 1338.65C1112.14 1329.96 1109.67 1316.63 1109.51 1304.01C1109.8 1297.61 1110.1 1291.23 1110.39 1284.84C1109.79 1284.51 1109.18 1284.2 1108.58 1283.87C1101.89 1290.56 1095.2 1297.25 1088.49 1303.94C1087.3 1305.12 1086.09 1306.29 1084.89 1307.47C1073.9 1317.79 1062.92 1328.09 1051.93 1338.41C1051.36 1338.93 1050.77 1339.45 1050.2 1339.97C1027.1 1358.92 1003.5 1377.19 978.196 1393.11C969.743 1397.86 961.306 1402.62 952.853 1407.37C950.312 1407.61 948.272 1408.86 946.405 1410.5C939.801 1412.44 932.333 1419.2 928.15 1407.3C924.329 1398.3 919.056 1390.29 911.9 1383.57C908.84 1379.21 905.106 1375.53 900.594 1372.69C893.938 1365.97 886.263 1360.78 877.481 1357.26C866.832 1350.72 855.682 1345.73 842.872 1345.73C831.324 1345.1 819.776 1344.88 808.228 1345.86C796.508 1346.85 784.614 1346.87 773.689 1352.23C765.304 1356.29 759.271 1352.86 752.754 1347.16C737.074 1333.42 720.686 1320.49 704.592 1307.21C702.846 1304.72 700.529 1302.92 697.815 1301.59C689.12 1293.05 679.698 1285.37 669.896 1278.13C666.422 1275.21 662.929 1272.27 659.455 1269.35C652.021 1262.17 644.156 1255.52 635.737 1249.52C629.842 1244.59 623.947 1239.67 618.069 1234.74C612.866 1229.41 607.299 1224.56 600.99 1220.56C568.057 1192.35 534.918 1164.38 500.534 1137.93C497.093 1134.25 493.169 1131.15 488.726 1128.75C483.022 1123.06 476.107 1118.98 469.607 1114.35C466.115 1111.86 464.334 1112.26 463.245 1116.63C459.148 1132.97 454.844 1149.25 450.626 1165.55C446.891 1176.88 443.693 1188.32 441.774 1200.11C437.868 1211.37 435.015 1222.9 432.768 1234.58C425.818 1257.3 420.511 1280.45 415.014 1303.54C412.144 1315.09 409.275 1326.66 406.405 1338.2C404.918 1343.6 403.449 1348.99 401.945 1354.46C397.969 1353.82 396.672 1349.87 393.439 1348.75C390.449 1344.77 386.836 1341.47 382.877 1338.5C375.392 1330.36 367.63 1322.47 359.107 1315.39C355.131 1311.48 351.138 1307.57 347.162 1303.68C340.178 1295.56 332.571 1288.04 324.412 1281.07C320.937 1276.59 316.961 1272.63 312.484 1269.16C305.465 1261.09 297.962 1253.5 289.82 1246.55C286.345 1242.07 282.352 1238.08 277.875 1234.6C270.925 1226.48 263.371 1218.94 255.246 1211.97C251.771 1207.49 247.778 1203.5 243.3 1200.03C236.351 1191.88 228.779 1184.36 220.689 1177.38C216.453 1169.96 213.359 1171.26 209.573 1178.12C205.355 1185.76 200.048 1192.82 195.207 1200.11C192.13 1204.16 189.07 1208.2 185.993 1212.25C182.415 1216.26 178.473 1220.01 175.362 1224.35C172.042 1228.98 169.622 1228.34 166.217 1224.56C162.241 1220.15 157.763 1216.19 153.493 1212.04C149.5 1207.06 152.145 1203.1 155.36 1199.13C164.004 1188.46 173.546 1178.42 179.147 1165.59C182.518 1161.65 184.368 1156.88 186.252 1152.17C189.623 1143.81 188.794 1142.08 179.701 1141.77C170.175 1141.42 161.03 1140.45 153.009 1134.76C151.315 1132.93 149.621 1131.1 147.927 1129.27C142.015 1118.79 141.807 1107.87 145.472 1096.66C147.564 1091.13 151.782 1085.44 148.67 1079.62C145.628 1073.9 144.314 1067.91 142.758 1061.86C143.519 1053.56 144.625 1045.39 148.687 1037.85C150.796 1033.93 150.382 1030.09 146.613 1027.11C142.516 1015.72 142.602 1004.24 145.921 992.695C150.503 988.235 150.537 983.239 147.754 977.88C144.538 971.708 143.19 965.035 142.55 958.172C143.605 949.961 146.613 942.544 151.436 935.837C158.334 928.904 166.701 926.138 176.416 926.709C181.291 927.003 186.201 926.38 191.076 926.709C195.674 927.02 197.092 925.291 196.936 920.831C196.556 910.216 196.556 899.602 196.383 888.987C197.178 877.474 197.178 865.96 196.383 854.464C197.178 842.933 197.178 831.385 196.383 819.854C197.178 808.341 197.178 796.827 196.383 785.314C196.711 777.24 197.04 769.15 197.368 761.076C200.082 758.604 202.796 756.132 205.51 753.643C210.887 749.546 216.056 745.241 220.429 740.037C228.105 733.209 237.768 727.919 239.203 716.181C239.635 710.165 239.929 704.148 236.887 696.732C230.179 703.785 224.353 709.905 218.528 716.025C214.119 719.102 210.299 722.802 206.842 726.899C203.194 728.057 201.828 732.794 197.247 733.226C196.936 728.437 196.642 724.012 196.348 719.586C196.331 718.428 196.314 717.287 196.314 716.129C197.143 704.598 197.092 693.084 196.296 681.554C196.244 670.023 196.21 658.492 196.158 646.961C196.331 643.4 198.976 641.533 201.292 639.424C210.385 631.091 219.081 622.292 228.606 614.478C240.344 604.849 241.381 593.076 236.99 576.791C230.732 583.689 225.615 589.359 220.481 595.012C213.687 600.285 207.36 606.041 201.604 612.438C199.858 612.784 198.077 616.328 196.348 612.403C197.074 600.872 196.867 589.342 196.175 577.811C196.141 566.297 196.106 554.784 196.072 543.27C196.037 531.722 196.002 520.191 195.985 508.643C195.795 497.13 195.605 485.616 195.415 474.12C196.141 467.205 196.072 460.324 194.896 453.461C195.812 449.381 195.484 445.319 194.585 441.274C196.02 432.612 191.681 424.643 191.75 416.016C178.542 445.82 179.389 477.335 179.078 508.678C177.903 520.157 177.609 531.67 177.972 543.201C177.868 554.749 177.782 566.315 177.678 577.863C177.661 589.359 177.643 600.855 177.609 612.369C177.592 623.917 177.574 635.448 177.557 646.996C177.557 658.509 177.54 670.005 177.54 681.519C177.522 693.05 177.522 704.581 177.505 716.129C177.488 727.642 177.471 739.156 177.471 750.669C176.779 762.2 176.693 773.731 177.436 785.262C176.727 796.775 176.675 808.306 177.384 819.82C176.693 821.929 176.468 825.04 173.374 821.462C172.077 819.958 170.59 818.627 169.19 817.209C163.33 809.827 157.469 802.446 151.609 795.064C149.707 790.258 146.423 786.368 143.415 782.271C137.952 771.743 132.507 761.215 127.044 750.687C125.332 744.671 123.483 738.706 121.944 732.638C117.657 715.818 119.437 698.495 117.709 681.45C117.536 669.971 117.363 658.492 117.19 647.013C118.297 635.448 118.176 623.882 117.086 612.317C117.795 600.803 117.812 589.29 117 577.776C117.934 566.245 118.193 554.697 117.121 543.149C118.158 531.688 118.193 520.209 117.812 508.712C118.729 497.164 118.884 485.616 118.4 474.051C118.452 471.181 118.487 468.294 118.539 465.424C119.749 460.808 120.198 456.141 119.662 451.404C119.835 447.497 120.008 443.59 120.181 439.683C122.549 425.231 124.918 410.778 127.286 396.326C129.36 393.802 129.429 390.604 130.225 387.63C130.484 386.524 130.761 385.417 131.02 384.311C132.818 383.032 132.714 380.992 133.06 379.125C134.598 376.428 135.947 373.645 136.102 370.446C146.82 346.157 160.616 323.787 177.626 303.405C180.427 300.397 183.245 297.406 186.045 294.398C195.899 286.066 205.735 277.508 215.572 268.934C218.493 267.862 220.81 265.943 222.936 263.73ZM307.367 958.207C305.379 948.128 298.152 946.935 289.734 947.782C278.255 945.587 266.69 946.468 255.125 946.78C243.646 946.762 232.167 946.745 220.671 946.745C209.089 946.157 197.524 945.863 186.028 947.921C182.899 947.921 179.614 947.333 176.658 948.042C171.04 949.407 164.419 950.064 164.211 958.241C162.673 965.329 166.372 968.977 172.699 970.308C177.073 971.224 181.481 972.573 186.062 971.812C197.576 972.538 209.089 973.109 220.619 972.348C232.133 973.333 243.646 973.437 255.159 972.227C266.69 973.195 278.203 972.728 289.716 971.864C300.867 973.178 309.545 968.233 307.367 958.207ZM1175.01 1200.35C1177.19 1193.84 1174.06 1189.98 1168.16 1188.53C1163.58 1187.39 1158.73 1187.42 1153.99 1186.94C1147.07 1186.78 1140.14 1186.63 1133.23 1186.47C1128.61 1185.66 1123.98 1185.26 1119.33 1186.2C1107.85 1184.85 1096.35 1185 1084.84 1185.49C1071.2 1184.66 1057.54 1184.28 1043.96 1186.04C1032.44 1187.53 1029.26 1194.68 1034.95 1205.47C1038.84 1211.05 1044.7 1210.24 1050.32 1210.21C1061.81 1210.26 1073.29 1210.29 1084.79 1210.35C1096.35 1210.9 1107.92 1211.09 1119.47 1209.88C1131 1210.36 1142.46 1209.57 1153.94 1208.69C1161.73 1207.86 1171.07 1210.92 1175.01 1200.35ZM165.37 1062C164.989 1069.44 167.479 1073.72 175.915 1072.32C179.199 1071.77 182.622 1072.05 185.976 1071.92C197.524 1071.92 209.072 1071.92 220.619 1071.92C232.098 1071.91 243.594 1071.87 255.073 1071.86C265.895 1072.94 276.647 1071.82 287.383 1070.66C292.776 1070.09 296.562 1067.5 296.908 1061.64C297.254 1055.8 296.994 1050.11 289.699 1048.34C278.272 1046.04 266.724 1046.27 255.159 1046.56C243.646 1045.65 232.115 1045.34 220.585 1046.36C209.054 1045.37 197.558 1046.1 186.045 1046.82C181.135 1045.91 176.382 1047.27 171.818 1048.53C165.024 1050.44 161.86 1054.79 165.37 1062ZM1084.84 1086.12C1073.28 1085.94 1061.64 1084.73 1050.27 1087.98C1042.9 1088.57 1042.85 1094.14 1043.01 1099.33C1043.18 1105.06 1045.93 1109.37 1052.08 1110.04C1056.61 1110.54 1061.24 1110.32 1065.82 1110.42C1067.55 1111.29 1069.3 1111.5 1071.08 1110.65C1075.63 1111.74 1080.22 1111.96 1084.88 1111.31C1096.37 1112.15 1107.88 1112.33 1119.4 1111.55C1128.61 1112.24 1137.81 1112.22 1146.97 1111.06C1149.41 1111.96 1151.71 1111.36 1153.99 1110.48C1175.2 1110.72 1179.23 1105.91 1172.87 1087.95C1172.99 1086.77 1172.83 1085.81 1171.28 1086.03C1165.52 1085.06 1159.75 1085.06 1153.99 1086.03C1142.46 1085.06 1130.93 1085.17 1119.38 1086C1107.87 1084.87 1096.35 1085.41 1084.84 1086.12ZM270.718 1020.53C277.131 1020.56 283.597 1021.44 289.855 1019.16C297.081 1019.39 302.682 1016.79 302.474 1008.84C302.267 1001.29 296.614 999.161 289.837 999.472C283.009 997.121 275.973 998.089 268.989 998.072C264.944 997.207 260.864 996.896 256.784 997.743C256.248 997.778 255.73 997.813 255.194 997.847C243.698 996.291 232.167 996.481 220.619 996.862C205.666 996.049 190.73 996.067 175.863 998.037C168.931 998.954 163.641 1001.55 163.814 1009.79C163.987 1017.73 169.449 1019.73 175.863 1020.6C190.73 1022.62 205.666 1022.64 220.619 1021.79C232.202 1022.21 243.802 1022.43 255.332 1020.93C258.167 1021.81 260.968 1021.58 263.751 1020.72C266.102 1021.67 268.419 1021.31 270.718 1020.53ZM1154.23 1137.5C1142.67 1135.72 1131.05 1136.29 1119.43 1136.49C1107.9 1135.61 1096.35 1134.92 1084.79 1135.94C1073.28 1135.23 1061.81 1135.51 1050.37 1137.03C1042.71 1137.29 1036.82 1139.81 1037.08 1148.75C1037.32 1157.29 1043.11 1159.42 1050.44 1159.28C1060.1 1161.51 1069.89 1160.82 1079.65 1160.56C1092.93 1161.49 1106.19 1160.89 1119.45 1160.25C1131 1160.45 1142.55 1160.9 1154.01 1158.9C1159.21 1159.4 1164.29 1158.98 1169.29 1157.29C1173.68 1155.8 1175.98 1152.52 1176.03 1148.27C1176.08 1143.56 1173.52 1140.04 1168.7 1138.86C1163.95 1137.74 1159.14 1136.98 1154.23 1137.5ZM659.299 1096.73C669.568 1104.41 677.157 1102.99 686.89 1091.6C695.412 1081.61 694.876 1073.88 684.953 1063.94C674.702 1053.67 668.116 1053.18 657.812 1061.98C643.101 1074.31 643.533 1084.63 659.299 1096.73ZM186.114 1120.05C197.593 1120.24 209.089 1120.43 220.568 1120.62C232.098 1121.37 243.629 1121.63 255.159 1120.74C264.356 1121.19 273.518 1121.11 282.663 1119.85C289.215 1118.95 292.603 1115.04 292.534 1108.89C292.465 1102.85 289.232 1098.74 282.698 1097.77C273.57 1096.4 264.425 1096.02 255.211 1096.37C243.681 1094.59 232.098 1094.9 220.516 1095.64C208.985 1095.07 197.489 1095.04 186.028 1096.68C181.135 1095.99 176.416 1096.8 171.731 1098.15C165.836 1099.84 163.641 1103.73 164.073 1109.7C164.505 1115.66 166.839 1119.34 173.408 1119.34C177.643 1119.34 181.81 1121.04 186.114 1120.05ZM1084.88 1036.45C1076.28 1036.28 1067.62 1036.78 1059.15 1035.76C1050.91 1034.77 1049.18 1038.8 1048.02 1045.58C1046.77 1052.82 1048.62 1057.44 1055.94 1059.15C1065.44 1061.36 1075.09 1062.43 1084.88 1061.72C1096.37 1061.76 1107.88 1061.79 1119.38 1061.83C1130.96 1061.95 1142.58 1063.19 1154.08 1060.64C1158.09 1061.05 1161.99 1060.39 1165.9 1059.49C1174.18 1057.58 1176.01 1052.55 1175.49 1044.3C1174.92 1035.05 1168.96 1037.83 1164.22 1037.5C1160.85 1037.26 1157.43 1037.63 1154.02 1037.71C1142.49 1036.36 1130.93 1036.35 1119.36 1036.81C1107.87 1036.67 1096.37 1036.55 1084.88 1036.45ZM771.666 1197.02C781.727 1203.5 789.748 1201.82 799.101 1191.28C807.485 1181.82 807.502 1175.44 799.204 1165.85C793.949 1159.02 787.76 1153.04 778.46 1155.84C769.021 1158.69 761.639 1165.09 759.893 1175.22C758.234 1184.95 763.524 1192.02 771.666 1197.02ZM541.815 993.007C546.95 999.057 552.724 1004.81 561.385 1001.77C571.411 998.245 578.827 990.915 580.141 980.196C581.334 970.412 575.335 963.635 566.467 959.624C555.662 954.49 547.226 956.789 540.052 966.816C532.342 977.603 532.74 983.516 541.815 993.007Z" fill="black"/>
<path d="M600.886 282.055C612.399 279.773 623.895 277.491 635.408 275.209C658.469 271.873 681.513 268.519 704.574 265.182C716.088 264.404 727.584 263.626 739.097 262.848C750.645 263.056 762.193 263.229 773.689 261.828C785.202 261.863 796.698 261.915 808.211 261.949C819.724 263.523 831.307 263.16 842.889 262.969C854.385 263.54 865.881 264.093 877.377 264.664C900.646 267.603 923.638 272.149 946.578 276.903C947.909 277.37 949.24 277.889 950.606 278.286C969.017 283.611 969.016 283.611 965.438 301.434C960.77 312.723 956.622 324.202 953.354 335.992C949.707 343.201 946.906 350.721 944.918 358.535C938.055 373.679 932.298 389.255 927.026 405.004C918.037 417.106 923.136 428.498 928.72 439.891C936.24 463.16 944.382 486.187 953.389 508.92C956.587 520.762 960.736 532.258 965.715 543.478C971.074 559.158 976.45 574.82 981.809 590.5C982.794 593.37 984.938 596.343 981.135 598.815C966.354 602.134 951.608 605.506 936.81 608.738C930.293 610.173 927.009 614.167 926.525 620.684C925.85 629.535 925.176 638.369 924.519 647.22C923.759 658.734 921.874 670.161 922.393 681.761C920.059 693.223 920.491 704.857 920.059 716.457C918.434 727.867 918.365 739.329 918.624 750.825C918.313 754.957 915.547 755.942 912.021 755.959C900.559 754.092 888.994 754.265 877.446 754.403C865.898 753.487 854.351 752.588 842.803 751.672C819.344 749.546 796.179 745.915 773.965 737.652C763.8 732.241 751.561 730.045 743.004 718.428C754.621 719.742 763.8 723.493 773.533 723.787C785.029 726.034 796.456 728.939 808.315 728.386C819.742 730.979 831.393 730.719 842.993 730.996C854.454 731.93 865.916 731.878 877.394 731.307C898.9 731.947 894.63 734.35 894.526 716.302C894.647 706.638 894.785 696.974 894.906 687.31C898.606 683.766 897.517 679.133 897.724 674.794C897.862 671.924 898.018 669.055 898.156 666.185C899.09 655 892.192 664.612 889.547 662.935C888.959 662.969 888.389 663.021 887.801 663.056C885.882 662.745 884.067 662.831 882.581 664.318C862.32 666.963 843.442 674.794 823.891 680.119C818.704 680.81 813.518 681.502 808.332 682.193C796.784 682.971 785.271 682.193 773.758 681.502C771.666 679.894 769.211 680.05 766.774 680.119C759.478 677.802 752.166 675.503 744.888 673.152C743.228 672.616 740.29 672.772 742.399 669.556C767.5 664.041 788.262 650.246 808.28 635.015C818.687 628.17 829.094 621.341 839.484 614.495C841.783 614.063 843.736 613.008 845.327 611.28C856.045 606.595 866.745 601.91 877.464 597.225C890.118 594.891 902.288 590.759 914.596 587.163C924.796 585.175 935.064 583.429 944.866 579.799C949.465 579.574 951.124 577.067 949.603 572.901C945.973 562.995 942.083 553.176 938.314 543.322C934.892 531.567 930.881 520.036 925.85 508.868C918.642 485.478 910.033 462.572 901.285 439.718C898.502 434.998 901.441 426.112 891.604 426.545C879.987 427.063 868.353 427.53 856.736 428.031C852.051 427.685 847.367 427.392 842.768 428.757C815.247 426.873 793.569 439.666 773.412 456.314C766.376 461.033 760.602 466.997 755.9 474.033C748.397 482.453 741.966 491.58 737.368 501.936C728.811 514.763 723.106 528.956 717.54 543.218C712.492 554.542 707.859 566.021 704.678 578.036C703.503 579.557 702.707 581.234 702.915 583.222C698.61 592.713 694.963 602.446 692.456 612.576C687.858 624.107 683.242 635.638 678.644 647.151C667.476 670.68 656.343 694.208 642.582 716.371C640.197 719.794 637.829 723.199 635.443 726.622C628.563 734.713 621.665 742.803 614.785 750.894C610.169 754.974 605.571 759.054 600.955 763.134C580.349 778.52 557.045 787.077 531.754 790.69C520.241 790.707 508.728 790.742 497.197 790.759C465.475 783.654 441.584 766.73 429.086 735.871C426.527 729.544 424.989 722.819 422.983 716.267C422.257 704.771 421.635 693.257 422.672 681.744C423.588 678.424 424.453 675.105 425.438 671.803C436.104 635.828 461.586 617.192 497.214 610.398C509.713 608.41 522.315 609.032 535.039 609.551C524.252 599.161 511.494 594.372 497.18 593.283C488.744 593.024 487.516 589.117 491.544 582.357C492.236 581.199 492.218 579.609 492.53 578.226C495.417 572.676 497.647 566.868 498.96 560.748C506.809 543.875 513.05 526.398 519.29 508.903C524.321 497.717 528.729 486.29 532.411 474.587C532.826 473.359 533.241 472.132 533.656 470.904C538.686 460.929 542.541 450.488 545.653 439.77C549.664 428.584 558.169 418.004 550.373 405.212C542.196 381.113 533.673 357.135 523.405 333.831C522.419 330.875 521.555 327.867 520.414 324.98C515.245 311.755 515.21 311.772 524.995 303.457C527.588 303.785 529.939 303.319 531.789 301.313C543.406 297.579 555.023 293.845 566.657 290.111C578.032 287.414 589.459 284.735 600.886 282.055Z" fill="#17D9CD"/>
<path d="M393.647 1880.64C391.521 1879.93 389.412 1879.13 387.233 1878.53C369.929 1873.69 369.929 1873.71 374.147 1857.14C378.192 1845.63 382.237 1834.12 386.283 1822.62C395.652 1799.82 404.763 1776.89 412.576 1753.5C421.618 1741.59 416.985 1730.08 411.556 1718.6C403.777 1695.45 396.05 1672.29 386.784 1649.68C383.465 1637.89 379.42 1626.37 374.458 1615.17C368.995 1599.09 363.498 1583.03 358.122 1566.92C357.223 1564.24 354.699 1561.11 359.124 1559C374.769 1555.61 390.414 1552.16 406.076 1548.87C410.208 1548.01 412.334 1546.3 412.559 1541.59C413.043 1531.58 414.219 1521.61 415.118 1511.63C416.138 1500.07 417.814 1488.54 417.451 1476.87C419.025 1465.41 419.751 1453.88 419.543 1442.29C421.981 1430.88 421.168 1419.3 421.445 1407.79C422.43 1404.5 425.507 1403.97 428.048 1402.7C439.596 1403 451.127 1403.28 462.675 1403.57C474.171 1404.3 485.649 1405.02 497.145 1405.73C520.604 1408.41 543.821 1412.39 566.259 1419.98C576.494 1425.73 588.283 1428.77 596.581 1438.8C586.52 1437 576.442 1435.21 566.38 1433.39C555.006 1430.3 543.337 1429.81 531.668 1429.21C520.189 1428.57 508.71 1427.93 497.232 1427.29C485.684 1426.96 474.119 1426.61 462.571 1426.29C457.454 1424.99 452.268 1425.23 447.082 1425.46C445.854 1425.08 445.318 1425.46 445.578 1426.77C445.543 1431.94 445.491 1437.12 445.457 1442.29C444.592 1453.82 443.711 1465.37 442.846 1476.9C440.547 1501.33 437.245 1496.82 460.22 1493.24C461.05 1493.12 461.81 1492.63 462.623 1492.31C486.012 1487.95 508.157 1478.53 531.772 1475.07C543.216 1475.28 554.694 1474.4 566.104 1476.16C577.876 1479 589.632 1481.88 600.765 1486.77C589.13 1490.58 576.753 1492.36 566.363 1499.53C559.569 1502.16 553.726 1506.27 548.35 1511.1C542.732 1515.04 537.131 1518.98 531.512 1522.92C508.676 1537.39 485.857 1551.91 460.203 1561.15C449.485 1564.14 438.749 1567.14 428.031 1570.14C416.38 1571.35 405.247 1575.03 393.889 1577.66C391.918 1578.1 388.945 1579.14 391.728 1582.31C393.924 1593.66 397.917 1604.45 402.221 1615.13C405.575 1628 410.312 1640.39 415.308 1652.68C418.333 1662.88 421.721 1672.94 426.216 1682.61C426.112 1684.58 426.475 1686.39 428.048 1687.76C431.661 1698.1 435.292 1708.45 438.905 1718.79C439.856 1728.82 444.99 1733.14 455.155 1730.98C457.61 1730.46 460.185 1730.49 462.709 1730.27C474.188 1729.82 485.667 1729.39 497.163 1728.94C525.548 1730.77 547.779 1717.48 568.282 1699.96C573.693 1696.23 578.222 1691.61 581.974 1686.22C600.644 1665.58 612.295 1641 621.89 1615.24C627.076 1604.9 630.948 1594.08 634.146 1582.98C635.979 1580.16 637.172 1577.12 637.362 1573.73C641.217 1565.64 643.948 1557.17 646.317 1548.54C651.209 1536.17 656.101 1523.79 660.993 1511.39C671.003 1489.02 681.894 1467.1 694.323 1445.96C698.385 1440.15 702.448 1434.34 706.528 1428.53C711.766 1422.38 717.004 1416.21 722.242 1410.05C727.947 1404.87 733.651 1399.7 739.373 1394.51C757.127 1382.43 775.538 1371.79 797.32 1368.79C800.985 1368.29 804.633 1367.77 808.297 1367.25C819.845 1367.18 831.376 1367.11 842.924 1367.04C881.491 1374.32 907.733 1399.94 915.841 1438.21C916.135 1439.6 916.74 1440.93 917.207 1442.28C917.795 1453.81 918.123 1465.32 917.276 1476.85C914.96 1484.34 912.626 1491.82 910.309 1499.31C902.202 1513.97 891.777 1526.52 877.412 1535.47C870.514 1538.41 863.634 1541.35 856.736 1544.29C852.086 1545.36 847.453 1546.43 842.803 1547.51C830.252 1548.37 817.65 1548.09 804.961 1548.11C815.835 1558.57 828.731 1563.19 842.941 1564.6C851.066 1564.08 853.071 1567.21 848.871 1574.3C848.179 1575.48 848.162 1577.03 847.816 1578.42C837.98 1601.91 828.696 1625.61 820.399 1649.69C815.524 1660.2 811.409 1670.99 808.021 1682.07C806.552 1683.01 806.43 1684.46 806.517 1685.98C801.763 1696.66 797.095 1707.36 794.07 1718.7C789.368 1729.96 782.004 1740.9 790.163 1753.59C798.098 1776.96 806.707 1800.08 816.059 1822.91C816.44 1824.28 816.751 1825.7 817.235 1827.03C824.651 1847.12 824.651 1847.12 806.085 1856.94C795.298 1860.41 784.493 1863.89 773.706 1867.36C762.192 1870.3 750.679 1873.22 739.166 1876.16C729.036 1877.89 718.923 1879.79 708.758 1881.35C688.964 1884.37 669.136 1887.19 649.307 1890.09C644.709 1890.34 640.11 1890.6 635.512 1890.84C623.964 1891.82 612.399 1892.81 600.851 1893.78C589.355 1894.35 577.842 1894.92 566.346 1895.49C554.798 1895.68 543.25 1895.87 531.702 1896.06C520.206 1895.88 508.693 1895.69 497.197 1895.52C493.74 1895.4 490.265 1895.28 486.808 1895.16C484.543 1894.29 482.244 1893.88 479.858 1894.61C474.24 1892.89 468.466 1893.31 462.709 1893.15C439.665 1888.99 416.656 1884.8 393.647 1880.64Z" fill="#17D9CD"/>
<path d="M876.219 923.234C876.184 923.632 876.323 923.96 876.634 924.219C871.897 935.266 870.255 947.143 867.42 958.691C864.325 967.594 861.749 976.653 860.09 985.953C853.745 991.745 851.481 982.34 846.692 982.357C836.355 974.267 826.017 966.194 815.679 958.103C802.956 946.468 789.368 935.854 775.763 925.274C774.968 923.632 773.723 922.508 771.96 922.006C761.605 913.363 751.25 904.702 740.895 896.058C737.973 892.514 734.429 889.713 730.505 887.379C722.294 879.479 713.616 872.149 704.453 865.372C699.855 860.497 694.807 856.141 689.171 852.476C683.38 846.494 676.915 841.291 670.225 836.364C650.465 819.387 630.706 802.411 610.964 785.435C627.715 767.836 645.383 751.032 659.161 730.806C661.961 726.691 664.745 730.529 667.511 730.477C679.491 736.908 691.54 743.218 704.419 747.696C708.187 750.082 712.198 751.897 716.623 752.675C723.642 756.789 731.318 759.071 739.149 761.007C750.333 765.156 761.691 768.631 773.498 770.515C784.787 774.129 796.369 776.255 808.142 777.413C819.603 779.643 831.082 781.752 842.82 781.873C854.264 784.017 865.795 785.141 877.429 785.193C884.344 785.85 891.241 786.506 898.156 787.163C906.679 788.097 908.235 792.298 905.486 800.181C903.273 806.474 902.841 813.389 901.614 820.027C898.001 831.333 895.442 842.916 893.247 854.568C890.429 866.116 887.594 877.647 884.776 889.195C881.924 900.553 879.071 911.893 876.219 923.234Z" fill="white"/>
<path d="M463.245 1235.15C464.524 1233.53 464.455 1231.63 464.421 1229.71C468.31 1220.22 470.039 1210.14 472.355 1200.22C475.83 1189.53 477.3 1178.26 481.829 1167.89C486.012 1166 488.173 1169.44 490.663 1171.48C512.929 1189.88 535.108 1208.39 557.339 1226.82C560.174 1229.17 563.182 1231.32 566.121 1233.55C566.674 1234.01 567.245 1234.48 567.798 1234.95C578.24 1244.85 589.303 1254.01 600.834 1262.62C603.081 1265.58 606.02 1267.71 609.166 1269.57C617.36 1277.66 626.194 1284.99 635.495 1291.79C640.456 1295.95 645.4 1300.12 650.362 1304.29C656.378 1310.49 663.016 1315.97 670.069 1320.93C677.019 1326.8 683.951 1332.64 690.9 1338.5C695.014 1342.96 699.509 1346.97 704.661 1350.22C710.798 1355.58 716.935 1360.96 723.054 1366.31C725.129 1368.13 727.826 1369.58 726.944 1373.09C724.23 1376.39 721.654 1379.82 718.802 1382.98C707.306 1395.81 694.133 1407.2 684.21 1421.34C680.061 1427.24 676.275 1429.5 669.983 1425.27C658.832 1419.18 647.665 1413.11 635.529 1409.14C633.559 1407.23 631.121 1406.42 628.476 1406.11C619.694 1401.63 610.325 1398.82 600.903 1396.12C589.58 1392.3 578.205 1388.65 566.294 1387.06C555.023 1383.55 543.423 1381.74 531.772 1380.27C520.362 1377.64 508.78 1376.36 497.128 1375.48C485.684 1374.34 474.223 1373.2 462.778 1372.05C459.269 1371.79 455.76 1371.55 452.268 1371.29C451.075 1370.52 449.917 1370.5 448.81 1371.45C446.528 1371.35 444.264 1371.22 441.982 1371.12C431.713 1369.44 432.128 1363.2 434.704 1355.32C436.467 1349.93 437.072 1344.15 438.196 1338.53C440.997 1326.99 443.797 1315.45 446.598 1303.91C449.381 1292.46 452.147 1281.03 454.93 1269.59C457.696 1258.16 460.462 1246.67 463.245 1235.15Z" fill="white"/>
<path d="M837.651 477.629C839.397 477.249 841.126 476.869 842.872 476.471C850.703 478.252 858.067 481.07 864.688 485.754C868.941 488.763 868.733 491.373 864.688 494.277C858.085 498.997 850.737 501.901 842.872 503.595C835.836 501.382 828.973 498.893 822.853 494.588C818.462 491.494 817.996 488.399 822.715 485.547C827.538 482.66 832.655 480.257 837.651 477.629Z" fill="white"/>
<path d="M497.128 1654.38C504.423 1656.18 511.2 1659.08 517.406 1663.38C521.78 1666.43 521.33 1668.97 517.354 1671.91C511.252 1676.42 504.337 1679.05 497.128 1681.07C489.02 1679.96 481.898 1676.51 475.242 1671.92C471.18 1669.12 471.042 1666.29 475.191 1663.32C481.829 1658.61 488.986 1655.31 497.128 1654.38Z" fill="white"/>
<path d="M222.936 263.73C233.775 257.489 244.597 251.248 255.436 245.008C264.563 241.325 273.691 237.66 282.819 233.978C289.682 231.368 291.704 234.082 291.48 240.928C291.186 249.537 291.791 258.181 292.016 266.807C291.618 278.39 291.255 289.973 292.811 301.503C292.102 313 292.309 324.496 293.105 335.992C292.171 341.766 292.379 347.54 293.174 353.314C292.517 359.088 292.534 364.845 293.295 370.602C293.312 382.115 293.347 393.629 293.364 405.143C293.381 416.673 293.381 428.204 293.398 439.752C293.416 451.266 293.416 462.779 293.433 474.293C293.433 485.824 293.416 497.372 293.416 508.903C293.416 520.416 293.398 531.93 293.398 543.443C293.398 554.974 293.381 566.505 293.381 578.053C293.381 589.566 293.364 601.08 293.364 612.593C293.295 623.536 293.243 634.497 293.174 645.44C292.327 648.915 292.223 652.372 293.087 655.864C292.448 664.456 291.843 673.065 292.621 681.692C291.082 693.188 291.497 704.771 291.376 716.319C290.546 721.661 289.785 727.037 288.869 732.362C285.619 751.05 275.23 766.678 266.966 783.205C258.893 794.009 253.016 806.698 242.833 815.584C230.318 826.527 229.159 839.96 230.646 854.723C229.851 860.463 229.557 866.202 230.819 871.907C230.957 872.322 231.078 872.72 231.216 873.135C231.735 872.72 232.254 872.322 232.772 871.907C238.529 867.343 243.681 862.174 248.383 856.573C251.909 854.256 254.883 851.352 257.251 847.86C266.379 839.216 275.506 830.573 284.634 821.929C287.676 820.286 290.166 818.039 292.154 815.221C313.521 797.64 335.268 780.577 358.813 765.952C367.664 761.007 376.515 756.08 385.366 751.136C388.046 749.857 390.743 748.578 393.422 747.281C400.493 744.601 408.168 738.689 412.438 750.859C415.619 758.725 420.235 765.64 426.268 771.605C431.402 778.727 437.608 784.691 445.163 789.203C450.124 794.061 456.071 797.363 462.346 800.164C473.133 806.404 484.076 812.196 497.145 811.331C508.659 812.784 520.172 812.179 531.685 811.159C543.648 811.176 555.42 810.19 566.38 804.762C574.54 800.769 580.781 803.483 586.676 809.724C590.358 813.613 595.06 816.552 599.295 819.906C600.315 820.77 601.335 821.635 602.355 822.499C612.192 831.454 622.27 840.15 633.005 848.033C636.688 852.147 640.819 855.726 645.556 858.561C652.557 865.32 659.921 871.63 667.891 877.214C672.195 881.986 677.14 885.962 682.499 889.471C688.757 895.712 695.568 901.313 702.759 906.43C736.78 935.958 771.355 964.828 806.707 992.765C818.324 1003.1 830.2 1013.09 842.906 1022.07C845.171 1023.85 847.453 1025.63 849.718 1027.41C855.785 1033.56 863.202 1037.95 870.151 1042.95C874.317 1045.94 875.994 1044.52 877.083 1040.15C881.042 1024.35 885.139 1008.57 889.184 992.782C892.123 981.268 895.045 969.772 897.983 958.259C901.735 946.935 904.898 935.474 906.869 923.701C913.646 900.916 919.42 877.871 924.502 854.637C928.322 843.365 931.227 831.869 933.111 820.114C934.131 816.656 935.6 813.25 936.05 809.706C936.897 803.189 939.161 801.512 944.313 806.404C948.514 811.487 953.199 816.068 958.506 820.01C965.438 826.925 972.353 833.84 979.285 840.755C985.128 846.391 990.971 852.009 996.814 857.645C1003.04 863.817 1009.28 869.988 1015.5 876.16C1020.15 881.778 1025.22 886.965 1030.92 891.529C1036.57 897.164 1042.23 902.817 1047.88 908.453C1053.27 914.746 1058.84 920.865 1065.55 925.827C1069.75 931.791 1075.21 936.511 1080.64 941.282C1087.14 948.889 1094.19 955.942 1101.8 962.442C1106.28 966.92 1110.74 971.397 1115.21 975.875C1117.95 979.937 1121.56 983.084 1125.74 986.42C1131.91 976.946 1137.95 967.663 1143.98 958.397C1147.39 953.902 1150.81 949.407 1154.21 944.913C1157.64 941.092 1161.32 937.462 1164.43 933.399C1167.42 929.509 1169.76 928.126 1173.59 932.604C1178.24 938.015 1183.48 942.907 1188.48 948.024C1189.89 952.657 1186.65 955.493 1184.31 958.604C1176.31 969.236 1166.54 978.571 1160.77 990.846C1157.17 994.683 1155.3 999.489 1153.42 1004.23C1149.89 1013.08 1150.9 1014.89 1160.35 1015.41C1170.5 1015.98 1180.34 1017.14 1188.51 1024C1189.55 1025.18 1190.57 1026.37 1191.61 1027.55C1198.04 1038.63 1197.26 1050.21 1193.99 1061.97C1191.5 1067.31 1190.43 1073.07 1192.78 1078.44C1195.32 1084.3 1196.03 1090.4 1197.09 1096.52C1195.31 1102.52 1195.46 1109.01 1192.57 1114.75C1189.13 1121.57 1189.6 1127.9 1194.99 1133.59C1197 1144.38 1197.07 1155.08 1193.61 1165.62C1188.91 1169.48 1189.67 1174.08 1191.95 1178.76C1195.24 1185.56 1197.05 1192.71 1197.41 1200.25C1196.27 1208.29 1193.11 1215.48 1188.22 1221.95C1181.22 1228.71 1172.64 1231 1163.17 1230.88C1158.31 1230.83 1153.44 1231.09 1148.6 1230.87C1144.76 1230.69 1142.91 1231.56 1143.08 1235.98C1143.51 1247.1 1143.5 1258.25 1143.65 1269.37C1142.98 1280.88 1142.94 1292.41 1143.67 1303.92C1142.91 1315.45 1142.91 1326.99 1143.67 1338.5C1142.96 1350.01 1142.98 1361.54 1143.67 1373.06C1142.58 1384.59 1146.31 1397.73 1133 1405.19C1127.94 1408.79 1123.25 1412.82 1119.24 1417.59C1111.51 1424.63 1101.37 1429.85 1100.78 1442.22C1100.33 1447.83 1100.78 1453.32 1102.44 1459.56C1108.75 1453.7 1115.32 1449.29 1119.52 1442.43C1128.68 1438.44 1133.35 1428.67 1143.67 1423.26C1143.67 1430.43 1143.67 1436.31 1143.67 1442.21C1142.93 1453.74 1142.89 1465.27 1143.72 1476.78C1143.76 1488.3 1143.79 1499.81 1143.82 1511.32C1143.06 1514.69 1140.28 1516.41 1137.98 1518.51C1128.47 1527.24 1118.81 1535.82 1109.51 1544.77C1099.31 1554.59 1097.6 1564.34 1103.23 1578.19C1105.2 1576.36 1107.07 1574.63 1108.94 1572.88C1118.62 1563.91 1128.23 1554.87 1138.02 1546C1139.5 1544.65 1141.77 1539.81 1143.69 1545.93C1143.72 1557.45 1143.76 1568.96 1143.79 1580.47C1143.82 1592.02 1143.86 1603.55 1143.91 1615.1C1143.95 1626.6 1143.98 1638.09 1144.01 1649.59C1143.62 1661.15 1143.32 1672.74 1144.64 1684.27C1143.93 1695.78 1144.72 1707.28 1145.48 1718.76C1145.28 1726.28 1144.41 1733.88 1148.27 1742.91C1158.31 1723.3 1159.24 1703.75 1159.8 1684.13C1161.32 1672.69 1161.2 1661.17 1161.03 1649.66C1162.46 1638.13 1162.6 1626.56 1162.08 1614.98C1162.17 1603.5 1162.25 1592 1162.34 1580.53C1162.36 1568.98 1162.37 1557.45 1162.39 1545.9C1162.41 1534.38 1162.43 1522.87 1162.44 1511.37C1162.46 1499.84 1162.46 1488.31 1162.48 1476.77C1162.49 1465.25 1162.51 1453.74 1162.53 1442.22C1163.24 1430.69 1163.31 1419.16 1162.56 1407.63C1163.26 1396.12 1163.31 1384.59 1162.6 1373.07C1163.38 1361.54 1163.48 1350.03 1162.65 1338.5C1163.07 1337.01 1163.36 1334.28 1163.91 1334.23C1166.78 1333.97 1167.2 1337.62 1169.58 1338.46C1175.18 1345.43 1180.78 1352.42 1186.37 1359.38C1190.43 1365.52 1194.51 1371.66 1198.57 1377.79C1209.65 1398.02 1218.97 1418.89 1221.38 1442.19C1221.72 1453.69 1222.08 1465.2 1222.43 1476.7C1221.63 1488.28 1221.82 1499.84 1222.88 1511.39C1222.08 1522.89 1222.19 1534.38 1222.97 1545.86C1222.01 1557.41 1222.14 1568.94 1223 1580.49C1222.22 1591.99 1222.14 1603.5 1222.91 1615C1221.76 1625.37 1221.69 1635.78 1222.34 1646.18C1222.34 1647.36 1222.36 1648.52 1222.36 1649.69C1222.12 1661.19 1221.88 1672.67 1221.63 1684.16C1219.78 1707.28 1218.83 1730.48 1214.62 1753.35C1210.99 1764.83 1207.36 1776.31 1203.72 1787.79C1192.61 1813.16 1177.86 1836.23 1159.66 1857.09C1157.67 1859.18 1155.68 1861.28 1153.7 1863.37C1143.38 1872.1 1133.05 1880.83 1122.75 1889.58C1120.59 1890.25 1118.79 1891.42 1117.43 1893.24C1106.55 1899.17 1095.7 1905.08 1084.82 1911.01C1074.47 1915.51 1064.1 1920 1053.74 1924.5C1052.38 1924.34 1051.04 1924.32 1050.11 1925.59C1049.16 1925.72 1048.19 1925.86 1047.24 1926C1047 1914.52 1046.77 1903.06 1046.53 1891.58C1046.55 1880.07 1046.57 1868.55 1046.58 1857.06C1046.6 1845.53 1046.64 1834 1046.65 1822.45C1046.69 1810.93 1046.71 1799.42 1046.74 1787.89C1047.53 1782.13 1047.52 1776.38 1046.84 1770.62C1047.69 1764.85 1047.78 1759.07 1046.9 1753.3C1047.64 1741.8 1047.79 1730.3 1047.03 1718.79C1048.16 1707.21 1048.3 1695.63 1047.22 1684.03C1048.17 1672.56 1048.24 1661.1 1047.43 1649.62C1048.61 1638.08 1048.36 1626.51 1047.73 1614.94C1047.78 1603.47 1047.83 1591.97 1047.9 1580.49C1047.95 1568.94 1047.98 1557.39 1048.04 1545.83C1048.09 1534.33 1048.12 1522.84 1048.17 1511.32C1048.19 1499.77 1048.21 1488.23 1048.23 1476.68C1048.24 1465.18 1048.26 1453.67 1048.28 1442.17C1048.64 1430.21 1048.3 1418.33 1055.14 1407.37C1061.95 1396.46 1067.42 1384.71 1073.47 1373.33C1077.32 1367.61 1081.18 1361.87 1085.03 1356.15C1089.73 1350.32 1094.44 1344.48 1099.14 1338.65C1112.14 1329.96 1109.67 1316.63 1109.51 1304.01C1109.8 1297.61 1110.1 1291.23 1110.39 1284.84C1109.79 1284.51 1109.18 1284.2 1108.58 1283.87C1101.89 1290.56 1095.2 1297.25 1088.49 1303.94C1087.3 1305.12 1086.09 1306.29 1084.89 1307.47C1073.9 1317.79 1062.92 1328.09 1051.93 1338.41C1051.36 1338.93 1050.77 1339.45 1050.2 1339.97C1027.1 1358.92 1003.5 1377.19 978.196 1393.11C969.743 1397.86 961.306 1402.62 952.853 1407.37C950.312 1407.61 948.272 1408.86 946.405 1410.5C939.801 1412.44 932.333 1419.2 928.15 1407.3C924.329 1398.3 919.056 1390.29 911.9 1383.57C908.84 1379.21 905.106 1375.53 900.594 1372.69C893.938 1365.97 886.263 1360.78 877.481 1357.26C866.832 1350.72 855.682 1345.73 842.872 1345.73C831.324 1345.1 819.776 1344.88 808.228 1345.86C796.508 1346.85 784.614 1346.87 773.689 1352.23C765.304 1356.29 759.271 1352.86 752.754 1347.16C737.074 1333.42 720.686 1320.49 704.592 1307.21C702.846 1304.72 700.529 1302.92 697.815 1301.59C689.12 1293.05 679.698 1285.37 669.896 1278.13C666.422 1275.21 662.929 1272.27 659.455 1269.35C652.021 1262.17 644.156 1255.52 635.737 1249.52C629.842 1244.59 623.947 1239.67 618.069 1234.74C612.866 1229.41 607.299 1224.56 600.99 1220.56C568.057 1192.35 534.918 1164.38 500.534 1137.93C497.093 1134.25 493.169 1131.15 488.726 1128.75C483.022 1123.06 476.107 1118.98 469.607 1114.35C466.115 1111.86 464.334 1112.26 463.245 1116.63C459.148 1132.97 454.844 1149.25 450.626 1165.55C446.891 1176.88 443.693 1188.32 441.774 1200.11C437.868 1211.37 435.015 1222.9 432.768 1234.58C425.818 1257.3 420.511 1280.45 415.014 1303.54C412.144 1315.09 409.275 1326.66 406.405 1338.2C404.918 1343.6 403.449 1348.99 401.945 1354.46C397.969 1353.82 396.672 1349.87 393.439 1348.75C390.449 1344.77 386.836 1341.47 382.877 1338.5C375.392 1330.36 367.63 1322.47 359.107 1315.39C355.131 1311.48 351.138 1307.57 347.162 1303.68C340.178 1295.56 332.571 1288.04 324.412 1281.07C320.937 1276.59 316.961 1272.63 312.484 1269.16C305.465 1261.09 297.962 1253.5 289.82 1246.55C286.345 1242.07 282.352 1238.08 277.875 1234.6C270.925 1226.48 263.371 1218.94 255.246 1211.97C251.771 1207.49 247.778 1203.5 243.3 1200.03C236.351 1191.88 228.779 1184.36 220.689 1177.38C216.453 1169.96 213.359 1171.26 209.573 1178.12C205.355 1185.76 200.048 1192.82 195.207 1200.11C192.13 1204.16 189.07 1208.2 185.993 1212.25C182.415 1216.26 178.473 1220.01 175.362 1224.35C172.042 1228.98 169.622 1228.34 166.217 1224.56C162.241 1220.15 157.763 1216.19 153.493 1212.04C149.5 1207.06 152.145 1203.1 155.36 1199.13C164.004 1188.46 173.546 1178.42 179.147 1165.59C182.518 1161.65 184.368 1156.88 186.252 1152.17C189.623 1143.81 188.794 1142.08 179.701 1141.77C170.175 1141.42 161.03 1140.45 153.009 1134.76C151.315 1132.93 149.621 1131.1 147.927 1129.27C142.015 1118.79 141.807 1107.87 145.472 1096.66C147.564 1091.13 151.782 1085.44 148.67 1079.62C145.628 1073.9 144.314 1067.91 142.758 1061.86C143.519 1053.56 144.625 1045.39 148.687 1037.85C150.796 1033.93 150.382 1030.09 146.613 1027.11C142.516 1015.72 142.602 1004.24 145.921 992.695C150.503 988.235 150.537 983.239 147.754 977.88C144.538 971.708 143.19 965.035 142.55 958.172C143.605 949.961 146.613 942.544 151.436 935.837C158.334 928.904 166.701 926.138 176.416 926.709C181.291 927.003 186.201 926.38 191.076 926.709C195.674 927.02 197.092 925.291 196.936 920.831C196.556 910.216 196.556 899.602 196.383 888.987C197.178 877.474 197.178 865.96 196.383 854.464C197.178 842.933 197.178 831.385 196.383 819.854C197.178 808.341 197.178 796.827 196.383 785.314C196.711 777.24 197.04 769.15 197.368 761.076C200.082 758.604 202.796 756.132 205.51 753.643C210.887 749.546 216.056 745.241 220.429 740.037C228.105 733.209 237.768 727.919 239.203 716.181C239.635 710.165 239.929 704.148 236.887 696.732C230.179 703.785 224.353 709.905 218.528 716.025C214.119 719.102 210.299 722.802 206.842 726.899C203.194 728.057 201.828 732.794 197.247 733.226C196.936 728.437 196.642 724.012 196.348 719.586C196.331 718.428 196.314 717.287 196.314 716.129C197.143 704.598 197.092 693.084 196.296 681.554C196.244 670.023 196.21 658.492 196.158 646.961C196.331 643.4 198.976 641.533 201.292 639.424C210.385 631.091 219.081 622.292 228.606 614.478C240.344 604.849 241.381 593.076 236.99 576.791C230.732 583.689 225.615 589.359 220.481 595.012C213.687 600.285 207.36 606.041 201.604 612.438C199.858 612.784 198.077 616.328 196.348 612.403C197.074 600.872 196.867 589.342 196.175 577.811C196.141 566.297 196.106 554.784 196.072 543.27C196.037 531.722 196.002 520.191 195.985 508.643C195.795 497.13 195.605 485.616 195.415 474.12C196.141 467.205 196.072 460.324 194.896 453.461C195.812 449.381 195.484 445.319 194.585 441.274C196.02 432.612 191.681 424.643 191.75 416.016C178.542 445.82 179.389 477.335 179.078 508.678C177.903 520.157 177.609 531.67 177.972 543.201C177.868 554.749 177.782 566.315 177.678 577.863C177.661 589.359 177.643 600.855 177.609 612.369C177.592 623.917 177.574 635.448 177.557 646.996C177.557 658.509 177.54 670.005 177.54 681.519C177.522 693.05 177.522 704.581 177.505 716.129C177.488 727.642 177.471 739.156 177.471 750.669C176.779 762.2 176.693 773.731 177.436 785.262C176.727 796.775 176.675 808.306 177.384 819.82C176.693 821.929 176.468 825.04 173.374 821.462C172.077 819.958 170.59 818.627 169.19 817.209C163.33 809.827 157.469 802.446 151.609 795.064C149.707 790.258 146.423 786.368 143.415 782.271C137.952 771.743 132.507 761.215 127.044 750.687C125.332 744.671 123.483 738.706 121.944 732.638C117.657 715.818 119.437 698.495 117.709 681.45C117.536 669.971 117.363 658.492 117.19 647.013C118.297 635.448 118.176 623.882 117.086 612.317C117.795 600.803 117.812 589.29 117 577.776C117.934 566.245 118.193 554.697 117.121 543.149C118.158 531.688 118.193 520.209 117.812 508.712C118.729 497.164 118.884 485.616 118.4 474.051C118.452 471.181 118.487 468.294 118.539 465.424C119.749 460.808 120.198 456.141 119.662 451.404C119.835 447.497 120.008 443.59 120.181 439.683C122.549 425.231 124.918 410.778 127.286 396.326C129.36 393.802 129.429 390.604 130.225 387.63C130.484 386.524 130.761 385.417 131.02 384.311C132.818 383.032 132.714 380.992 133.06 379.125C134.598 376.428 135.947 373.645 136.102 370.446C146.82 346.157 160.616 323.787 177.626 303.405C180.427 300.397 183.245 297.406 186.045 294.398C195.899 286.066 205.735 277.508 215.572 268.934C218.493 267.862 220.81 265.943 222.936 263.73ZM307.367 958.207C305.379 948.128 298.152 946.935 289.734 947.782C278.255 945.587 266.69 946.468 255.125 946.78C243.646 946.762 232.167 946.745 220.671 946.745C209.089 946.157 197.524 945.863 186.028 947.921C182.899 947.921 179.614 947.333 176.658 948.042C171.04 949.407 164.419 950.064 164.211 958.241C162.673 965.329 166.372 968.977 172.699 970.308C177.073 971.224 181.481 972.573 186.062 971.812C197.576 972.538 209.089 973.109 220.619 972.348C232.133 973.333 243.646 973.437 255.159 972.227C266.69 973.195 278.203 972.728 289.716 971.864C300.867 973.178 309.545 968.233 307.367 958.207ZM1175.01 1200.35C1177.19 1193.84 1174.06 1189.98 1168.16 1188.53C1163.58 1187.39 1158.73 1187.42 1153.99 1186.94C1147.07 1186.78 1140.14 1186.63 1133.23 1186.47C1128.61 1185.66 1123.98 1185.26 1119.33 1186.2C1107.85 1184.85 1096.35 1185 1084.84 1185.49C1071.2 1184.66 1057.54 1184.28 1043.96 1186.04C1032.44 1187.53 1029.26 1194.68 1034.95 1205.47C1038.84 1211.05 1044.7 1210.24 1050.32 1210.21C1061.81 1210.26 1073.29 1210.29 1084.79 1210.35C1096.35 1210.9 1107.92 1211.09 1119.47 1209.88C1131 1210.36 1142.46 1209.57 1153.94 1208.69C1161.73 1207.86 1171.07 1210.92 1175.01 1200.35ZM165.37 1062C164.989 1069.44 167.479 1073.72 175.915 1072.32C179.199 1071.77 182.622 1072.05 185.976 1071.92C197.524 1071.92 209.072 1071.92 220.619 1071.92C232.098 1071.91 243.594 1071.87 255.073 1071.86C265.895 1072.94 276.647 1071.82 287.383 1070.66C292.776 1070.09 296.562 1067.5 296.908 1061.64C297.254 1055.8 296.994 1050.11 289.699 1048.34C278.272 1046.04 266.724 1046.27 255.159 1046.56C243.646 1045.65 232.115 1045.34 220.585 1046.36C209.054 1045.37 197.558 1046.1 186.045 1046.82C181.135 1045.91 176.382 1047.27 171.818 1048.53C165.024 1050.44 161.86 1054.79 165.37 1062ZM1084.84 1086.12C1073.28 1085.94 1061.64 1084.73 1050.27 1087.98C1042.9 1088.57 1042.85 1094.14 1043.01 1099.33C1043.18 1105.06 1045.93 1109.37 1052.08 1110.04C1056.61 1110.54 1061.24 1110.32 1065.82 1110.42C1067.55 1111.29 1069.3 1111.5 1071.08 1110.65C1075.63 1111.74 1080.22 1111.96 1084.88 1111.31C1096.37 1112.15 1107.88 1112.33 1119.4 1111.55C1128.61 1112.24 1137.81 1112.22 1146.97 1111.06C1149.41 1111.96 1151.71 1111.36 1153.99 1110.48C1175.2 1110.72 1179.23 1105.91 1172.87 1087.95C1172.99 1086.77 1172.83 1085.81 1171.28 1086.03C1165.52 1085.06 1159.75 1085.06 1153.99 1086.03C1142.46 1085.06 1130.93 1085.17 1119.38 1086C1107.87 1084.87 1096.35 1085.41 1084.84 1086.12ZM270.718 1020.53C277.131 1020.56 283.597 1021.44 289.855 1019.16C297.081 1019.39 302.682 1016.79 302.474 1008.84C302.267 1001.29 296.614 999.161 289.837 999.472C283.009 997.121 275.973 998.089 268.989 998.072C264.944 997.207 260.864 996.896 256.784 997.743C256.248 997.778 255.73 997.813 255.194 997.847C243.698 996.291 232.167 996.481 220.619 996.862C205.666 996.049 190.73 996.067 175.863 998.037C168.931 998.954 163.641 1001.55 163.814 1009.79C163.987 1017.73 169.449 1019.73 175.863 1020.6C190.73 1022.62 205.666 1022.64 220.619 1021.79C232.202 1022.21 243.802 1022.43 255.332 1020.93C258.167 1021.81 260.968 1021.58 263.751 1020.72C266.102 1021.67 268.419 1021.31 270.718 1020.53ZM1154.23 1137.5C1142.67 1135.72 1131.05 1136.29 1119.43 1136.49C1107.9 1135.61 1096.35 1134.92 1084.79 1135.94C1073.28 1135.23 1061.81 1135.51 1050.37 1137.03C1042.71 1137.29 1036.82 1139.81 1037.08 1148.75C1037.32 1157.29 1043.11 1159.42 1050.44 1159.28C1060.1 1161.51 1069.89 1160.82 1079.65 1160.56C1092.93 1161.49 1106.19 1160.89 1119.45 1160.25C1131 1160.45 1142.55 1160.9 1154.01 1158.9C1159.21 1159.4 1164.29 1158.98 1169.29 1157.29C1173.68 1155.8 1175.98 1152.52 1176.03 1148.27C1176.08 1143.56 1173.52 1140.04 1168.7 1138.86C1163.95 1137.74 1159.14 1136.98 1154.23 1137.5ZM659.299 1096.73C669.568 1104.41 677.157 1102.99 686.89 1091.6C695.412 1081.61 694.876 1073.88 684.953 1063.94C674.702 1053.67 668.116 1053.18 657.812 1061.98C643.101 1074.31 643.533 1084.63 659.299 1096.73ZM186.114 1120.05C197.593 1120.24 209.089 1120.43 220.568 1120.62C232.098 1121.37 243.629 1121.63 255.159 1120.74C264.356 1121.19 273.518 1121.11 282.663 1119.85C289.215 1118.95 292.603 1115.04 292.534 1108.89C292.465 1102.85 289.232 1098.74 282.698 1097.77C273.57 1096.4 264.425 1096.02 255.211 1096.37C243.681 1094.59 232.098 1094.9 220.516 1095.64C208.985 1095.07 197.489 1095.04 186.028 1096.68C181.135 1095.99 176.416 1096.8 171.731 1098.15C165.836 1099.84 163.641 1103.73 164.073 1109.7C164.505 1115.66 166.839 1119.34 173.408 1119.34C177.643 1119.34 181.81 1121.04 186.114 1120.05ZM1084.88 1036.45C1076.28 1036.28 1067.62 1036.78 1059.15 1035.76C1050.91 1034.77 1049.18 1038.8 1048.02 1045.58C1046.77 1052.82 1048.62 1057.44 1055.94 1059.15C1065.44 1061.36 1075.09 1062.43 1084.88 1061.72C1096.37 1061.76 1107.88 1061.79 1119.38 1061.83C1130.96 1061.95 1142.58 1063.19 1154.08 1060.64C1158.09 1061.05 1161.99 1060.39 1165.9 1059.49C1174.18 1057.58 1176.01 1052.55 1175.49 1044.3C1174.92 1035.05 1168.96 1037.83 1164.22 1037.5C1160.85 1037.26 1157.43 1037.63 1154.02 1037.71C1142.49 1036.36 1130.93 1036.35 1119.36 1036.81C1107.87 1036.67 1096.37 1036.55 1084.88 1036.45ZM771.666 1197.02C781.727 1203.5 789.748 1201.82 799.101 1191.28C807.485 1181.82 807.502 1175.44 799.204 1165.85C793.949 1159.02 787.76 1153.04 778.46 1155.84C769.021 1158.69 761.639 1165.09 759.893 1175.22C758.234 1184.95 763.524 1192.02 771.666 1197.02ZM541.815 993.007C546.95 999.057 552.724 1004.81 561.385 1001.77C571.411 998.245 578.827 990.915 580.141 980.196C581.334 970.412 575.335 963.635 566.467 959.624C555.662 954.49 547.226 956.789 540.052 966.816C532.342 977.603 532.74 983.516 541.815 993.007Z" stroke="#03F7E8" stroke-width="10" mask="url(#path-2-outside-1_19_3)"/>
<path d="M600.886 282.055C612.399 279.773 623.895 277.491 635.408 275.209C658.469 271.873 681.513 268.519 704.574 265.182C716.088 264.404 727.584 263.626 739.097 262.848C750.645 263.056 762.193 263.229 773.689 261.828C785.202 261.863 796.698 261.915 808.211 261.949C819.724 263.523 831.307 263.16 842.889 262.969C854.385 263.54 865.881 264.093 877.377 264.664C900.646 267.603 923.638 272.149 946.578 276.903C947.909 277.37 949.24 277.889 950.606 278.286C969.017 283.611 969.016 283.611 965.438 301.434C960.77 312.723 956.622 324.202 953.354 335.992C949.707 343.201 946.906 350.721 944.918 358.535C938.055 373.679 932.298 389.255 927.026 405.004C918.037 417.106 923.136 428.498 928.72 439.891C936.24 463.16 944.382 486.187 953.389 508.92C956.587 520.762 960.736 532.258 965.715 543.478C971.074 559.158 976.45 574.82 981.809 590.5C982.794 593.37 984.938 596.343 981.135 598.815C966.354 602.134 951.608 605.506 936.81 608.738C930.293 610.173 927.009 614.167 926.525 620.684C925.85 629.535 925.176 638.369 924.519 647.22C923.759 658.734 921.874 670.161 922.393 681.761C920.059 693.223 920.491 704.857 920.059 716.457C918.434 727.867 918.365 739.329 918.624 750.825C918.313 754.957 915.547 755.942 912.021 755.959C900.559 754.092 888.994 754.265 877.446 754.403C865.898 753.487 854.351 752.588 842.803 751.672C819.344 749.546 796.179 745.915 773.965 737.652C763.8 732.241 751.561 730.045 743.004 718.428C754.621 719.742 763.8 723.493 773.533 723.787C785.029 726.034 796.456 728.939 808.315 728.386C819.742 730.979 831.393 730.719 842.993 730.996C854.454 731.93 865.916 731.878 877.394 731.307C898.9 731.947 894.63 734.35 894.526 716.302C894.647 706.638 894.785 696.974 894.906 687.31C898.606 683.766 897.517 679.133 897.724 674.794C897.862 671.924 898.018 669.055 898.156 666.185C899.09 655 892.192 664.612 889.547 662.935C888.959 662.969 888.389 663.021 887.801 663.056C885.882 662.745 884.067 662.831 882.581 664.318C862.32 666.963 843.442 674.794 823.891 680.119C818.704 680.81 813.518 681.502 808.332 682.193C796.784 682.971 785.271 682.193 773.758 681.502C771.666 679.894 769.211 680.05 766.774 680.119C759.478 677.802 752.166 675.503 744.888 673.152C743.228 672.616 740.29 672.772 742.399 669.556C767.5 664.041 788.262 650.246 808.28 635.015C818.687 628.17 829.094 621.341 839.484 614.495C841.783 614.063 843.736 613.008 845.327 611.28C856.045 606.595 866.745 601.91 877.464 597.225C890.118 594.891 902.288 590.759 914.596 587.163C924.796 585.175 935.064 583.429 944.866 579.799C949.465 579.574 951.124 577.067 949.603 572.901C945.973 562.995 942.083 553.176 938.314 543.322C934.892 531.567 930.881 520.036 925.85 508.868C918.642 485.478 910.033 462.572 901.285 439.718C898.502 434.998 901.441 426.112 891.604 426.545C879.987 427.063 868.353 427.53 856.736 428.031C852.051 427.685 847.367 427.392 842.768 428.757C815.247 426.873 793.569 439.666 773.412 456.314C766.376 461.033 760.602 466.997 755.9 474.033C748.397 482.453 741.966 491.58 737.368 501.936C728.811 514.763 723.106 528.956 717.54 543.218C712.492 554.542 707.859 566.021 704.678 578.036C703.503 579.557 702.707 581.234 702.915 583.222C698.61 592.713 694.963 602.446 692.456 612.576C687.858 624.107 683.242 635.638 678.644 647.151C667.476 670.68 656.343 694.208 642.582 716.371C640.197 719.794 637.829 723.199 635.443 726.622C628.563 734.713 621.665 742.803 614.785 750.894C610.169 754.974 605.571 759.054 600.955 763.134C580.349 778.52 557.045 787.077 531.754 790.69C520.241 790.707 508.728 790.742 497.197 790.759C465.475 783.654 441.584 766.73 429.086 735.871C426.527 729.544 424.989 722.819 422.983 716.267C422.257 704.771 421.635 693.257 422.672 681.744C423.588 678.424 424.453 675.105 425.438 671.803C436.104 635.828 461.586 617.192 497.214 610.398C509.713 608.41 522.315 609.032 535.039 609.551C524.252 599.161 511.494 594.372 497.18 593.283C488.744 593.024 487.516 589.117 491.544 582.357C492.236 581.199 492.218 579.609 492.53 578.226C495.417 572.676 497.647 566.868 498.96 560.748C506.809 543.875 513.05 526.398 519.29 508.903C524.321 497.717 528.729 486.29 532.411 474.587C532.826 473.359 533.241 472.132 533.656 470.904C538.686 460.929 542.541 450.488 545.653 439.77C549.664 428.584 558.169 418.004 550.373 405.212C542.196 381.113 533.673 357.135 523.405 333.831C522.419 330.875 521.555 327.867 520.414 324.98C515.245 311.755 515.21 311.772 524.995 303.457C527.588 303.785 529.939 303.319 531.789 301.313C543.406 297.579 555.023 293.845 566.657 290.111C578.032 287.414 589.459 284.735 600.886 282.055Z" stroke="#03F7E8" stroke-width="10" mask="url(#path-2-outside-1_19_3)"/>
<path d="M393.647 1880.64C391.521 1879.93 389.412 1879.13 387.233 1878.53C369.929 1873.69 369.929 1873.71 374.147 1857.14C378.192 1845.63 382.237 1834.12 386.283 1822.62C395.652 1799.82 404.763 1776.89 412.576 1753.5C421.618 1741.59 416.985 1730.08 411.556 1718.6C403.777 1695.45 396.05 1672.29 386.784 1649.68C383.465 1637.89 379.42 1626.37 374.458 1615.17C368.995 1599.09 363.498 1583.03 358.122 1566.92C357.223 1564.24 354.699 1561.11 359.124 1559C374.769 1555.61 390.414 1552.16 406.076 1548.87C410.208 1548.01 412.334 1546.3 412.559 1541.59C413.043 1531.58 414.219 1521.61 415.118 1511.63C416.138 1500.07 417.814 1488.54 417.451 1476.87C419.025 1465.41 419.751 1453.88 419.543 1442.29C421.981 1430.88 421.168 1419.3 421.445 1407.79C422.43 1404.5 425.507 1403.97 428.048 1402.7C439.596 1403 451.127 1403.28 462.675 1403.57C474.171 1404.3 485.649 1405.02 497.145 1405.73C520.604 1408.41 543.821 1412.39 566.259 1419.98C576.494 1425.73 588.283 1428.77 596.581 1438.8C586.52 1437 576.442 1435.21 566.38 1433.39C555.006 1430.3 543.337 1429.81 531.668 1429.21C520.189 1428.57 508.71 1427.93 497.232 1427.29C485.684 1426.96 474.119 1426.61 462.571 1426.29C457.454 1424.99 452.268 1425.23 447.082 1425.46C445.854 1425.08 445.318 1425.46 445.578 1426.77C445.543 1431.94 445.491 1437.12 445.457 1442.29C444.592 1453.82 443.711 1465.37 442.846 1476.9C440.547 1501.33 437.245 1496.82 460.22 1493.24C461.05 1493.12 461.81 1492.63 462.623 1492.31C486.012 1487.95 508.157 1478.53 531.772 1475.07C543.216 1475.28 554.694 1474.4 566.104 1476.16C577.876 1479 589.632 1481.88 600.765 1486.77C589.13 1490.58 576.753 1492.36 566.363 1499.53C559.569 1502.16 553.726 1506.27 548.35 1511.1C542.732 1515.04 537.131 1518.98 531.512 1522.92C508.676 1537.39 485.857 1551.91 460.203 1561.15C449.485 1564.14 438.749 1567.14 428.031 1570.14C416.38 1571.35 405.247 1575.03 393.889 1577.66C391.918 1578.1 388.945 1579.14 391.728 1582.31C393.924 1593.66 397.917 1604.45 402.221 1615.13C405.575 1628 410.312 1640.39 415.308 1652.68C418.333 1662.88 421.721 1672.94 426.216 1682.61C426.112 1684.58 426.475 1686.39 428.048 1687.76C431.661 1698.1 435.292 1708.45 438.905 1718.79C439.856 1728.82 444.99 1733.14 455.155 1730.98C457.61 1730.46 460.185 1730.49 462.709 1730.27C474.188 1729.82 485.667 1729.39 497.163 1728.94C525.548 1730.77 547.779 1717.48 568.282 1699.96C573.693 1696.23 578.222 1691.61 581.974 1686.22C600.644 1665.58 612.295 1641 621.89 1615.24C627.076 1604.9 630.948 1594.08 634.146 1582.98C635.979 1580.16 637.172 1577.12 637.362 1573.73C641.217 1565.64 643.948 1557.17 646.317 1548.54C651.209 1536.17 656.101 1523.79 660.993 1511.39C671.003 1489.02 681.894 1467.1 694.323 1445.96C698.385 1440.15 702.448 1434.34 706.528 1428.53C711.766 1422.38 717.004 1416.21 722.242 1410.05C727.947 1404.87 733.651 1399.7 739.373 1394.51C757.127 1382.43 775.538 1371.79 797.32 1368.79C800.985 1368.29 804.633 1367.77 808.297 1367.25C819.845 1367.18 831.376 1367.11 842.924 1367.04C881.491 1374.32 907.733 1399.94 915.841 1438.21C916.135 1439.6 916.74 1440.93 917.207 1442.28C917.795 1453.81 918.123 1465.32 917.276 1476.85C914.96 1484.34 912.626 1491.82 910.309 1499.31C902.202 1513.97 891.777 1526.52 877.412 1535.47C870.514 1538.41 863.634 1541.35 856.736 1544.29C852.086 1545.36 847.453 1546.43 842.803 1547.51C830.252 1548.37 817.65 1548.09 804.961 1548.11C815.835 1558.57 828.731 1563.19 842.941 1564.6C851.066 1564.08 853.071 1567.21 848.871 1574.3C848.179 1575.48 848.162 1577.03 847.816 1578.42C837.98 1601.91 828.696 1625.61 820.399 1649.69C815.524 1660.2 811.409 1670.99 808.021 1682.07C806.552 1683.01 806.43 1684.46 806.517 1685.98C801.763 1696.66 797.095 1707.36 794.07 1718.7C789.368 1729.96 782.004 1740.9 790.163 1753.59C798.098 1776.96 806.707 1800.08 816.059 1822.91C816.44 1824.28 816.751 1825.7 817.235 1827.03C824.651 1847.12 824.651 1847.12 806.085 1856.94C795.298 1860.41 784.493 1863.89 773.706 1867.36C762.192 1870.3 750.679 1873.22 739.166 1876.16C729.036 1877.89 718.923 1879.79 708.758 1881.35C688.964 1884.37 669.136 1887.19 649.307 1890.09C644.709 1890.34 640.11 1890.6 635.512 1890.84C623.964 1891.82 612.399 1892.81 600.851 1893.78C589.355 1894.35 577.842 1894.92 566.346 1895.49C554.798 1895.68 543.25 1895.87 531.702 1896.06C520.206 1895.88 508.693 1895.69 497.197 1895.52C493.74 1895.4 490.265 1895.28 486.808 1895.16C484.543 1894.29 482.244 1893.88 479.858 1894.61C474.24 1892.89 468.466 1893.31 462.709 1893.15C439.665 1888.99 416.656 1884.8 393.647 1880.64Z" stroke="#03F7E8" stroke-width="10" mask="url(#path-2-outside-1_19_3)"/>
<path d="M876.219 923.234C876.184 923.632 876.323 923.96 876.634 924.219C871.897 935.266 870.255 947.143 867.42 958.691C864.325 967.594 861.749 976.653 860.09 985.953C853.745 991.745 851.481 982.34 846.692 982.357C836.355 974.267 826.017 966.194 815.679 958.103C802.956 946.468 789.368 935.854 775.763 925.274C774.968 923.632 773.723 922.508 771.96 922.006C761.605 913.363 751.25 904.702 740.895 896.058C737.973 892.514 734.429 889.713 730.505 887.379C722.294 879.479 713.616 872.149 704.453 865.372C699.855 860.497 694.807 856.141 689.171 852.476C683.38 846.494 676.915 841.291 670.225 836.364C650.465 819.387 630.706 802.411 610.964 785.435C627.715 767.836 645.383 751.032 659.161 730.806C661.961 726.691 664.745 730.529 667.511 730.477C679.491 736.908 691.54 743.218 704.419 747.696C708.187 750.082 712.198 751.897 716.623 752.675C723.642 756.789 731.318 759.071 739.149 761.007C750.333 765.156 761.691 768.631 773.498 770.515C784.787 774.129 796.369 776.255 808.142 777.413C819.603 779.643 831.082 781.752 842.82 781.873C854.264 784.017 865.795 785.141 877.429 785.193C884.344 785.85 891.241 786.506 898.156 787.163C906.679 788.097 908.235 792.298 905.486 800.181C903.273 806.474 902.841 813.389 901.614 820.027C898.001 831.333 895.442 842.916 893.247 854.568C890.429 866.116 887.594 877.647 884.776 889.195C881.924 900.553 879.071 911.893 876.219 923.234Z" stroke="#03F7E8" stroke-width="10" mask="url(#path-2-outside-1_19_3)"/>
<path d="M463.245 1235.15C464.524 1233.53 464.455 1231.63 464.421 1229.71C468.31 1220.22 470.039 1210.14 472.355 1200.22C475.83 1189.53 477.3 1178.26 481.829 1167.89C486.012 1166 488.173 1169.44 490.663 1171.48C512.929 1189.88 535.108 1208.39 557.339 1226.82C560.174 1229.17 563.182 1231.32 566.121 1233.55C566.674 1234.01 567.245 1234.48 567.798 1234.95C578.24 1244.85 589.303 1254.01 600.834 1262.62C603.081 1265.58 606.02 1267.71 609.166 1269.57C617.36 1277.66 626.194 1284.99 635.495 1291.79C640.456 1295.95 645.4 1300.12 650.362 1304.29C656.378 1310.49 663.016 1315.97 670.069 1320.93C677.019 1326.8 683.951 1332.64 690.9 1338.5C695.014 1342.96 699.509 1346.97 704.661 1350.22C710.798 1355.58 716.935 1360.96 723.054 1366.31C725.129 1368.13 727.826 1369.58 726.944 1373.09C724.23 1376.39 721.654 1379.82 718.802 1382.98C707.306 1395.81 694.133 1407.2 684.21 1421.34C680.061 1427.24 676.275 1429.5 669.983 1425.27C658.832 1419.18 647.665 1413.11 635.529 1409.14C633.559 1407.23 631.121 1406.42 628.476 1406.11C619.694 1401.63 610.325 1398.82 600.903 1396.12C589.58 1392.3 578.205 1388.65 566.294 1387.06C555.023 1383.55 543.423 1381.74 531.772 1380.27C520.362 1377.64 508.78 1376.36 497.128 1375.48C485.684 1374.34 474.223 1373.2 462.778 1372.05C459.269 1371.79 455.76 1371.55 452.268 1371.29C451.075 1370.52 449.917 1370.5 448.81 1371.45C446.528 1371.35 444.264 1371.22 441.982 1371.12C431.713 1369.44 432.128 1363.2 434.704 1355.32C436.467 1349.93 437.072 1344.15 438.196 1338.53C440.997 1326.99 443.797 1315.45 446.598 1303.91C449.381 1292.46 452.147 1281.03 454.93 1269.59C457.696 1258.16 460.462 1246.67 463.245 1235.15Z" stroke="#03F7E8" stroke-width="10" mask="url(#path-2-outside-1_19_3)"/>
<path d="M837.651 477.629C839.397 477.249 841.126 476.869 842.872 476.471C850.703 478.252 858.067 481.07 864.688 485.754C868.941 488.763 868.733 491.373 864.688 494.277C858.085 498.997 850.737 501.901 842.872 503.595C835.836 501.382 828.973 498.893 822.853 494.588C818.462 491.494 817.996 488.399 822.715 485.547C827.538 482.66 832.655 480.257 837.651 477.629Z" stroke="#03F7E8" stroke-width="10" mask="url(#path-2-outside-1_19_3)"/>
<path d="M497.128 1654.38C504.423 1656.18 511.2 1659.08 517.406 1663.38C521.78 1666.43 521.33 1668.97 517.354 1671.91C511.252 1676.42 504.337 1679.05 497.128 1681.07C489.02 1679.96 481.898 1676.51 475.242 1671.92C471.18 1669.12 471.042 1666.29 475.191 1663.32C481.829 1658.61 488.986 1655.31 497.128 1654.38Z" stroke="#03F7E8" stroke-width="10" mask="url(#path-2-outside-1_19_3)"/>
</svg>
