<svg width="1340" height="2160" viewBox="0 0 1340 2160" fill="none" xmlns="http://www.w3.org/2000/svg">
<path d="M0 166C0 74.3207 74.3207 0 166 0H1174C1265.68 0 1340 74.3207 1340 166V1994C1340 2085.68 1265.68 2160 1174 2160H166C74.3208 2160 0 2085.68 0 1994V166Z" fill="#343937"/>
<path d="M254.524 771.999C253.772 771.848 253.86 771.183 253.617 770.763C244.844 755.572 235.652 740.651 225.698 726.203C204.583 695.541 182.624 665.496 160.177 635.806C148.104 619.836 135.673 604.141 123.268 588.43C113.693 576.294 104.112 564.163 95.0183 551.648C93.6763 549.804 93.6607 548.432 94.9717 546.598C102.324 536.338 110.563 526.784 118.522 517.006C139.306 491.482 159.4 465.417 178.914 438.906C199.075 411.517 218.936 383.909 237.02 355.076C241.508 347.922 245.845 340.674 250.985 333.947C254.975 328.73 255.405 328.632 258.918 333.967C267.975 347.709 276.81 361.606 286.064 375.212C295.438 388.99 305.138 402.539 314.827 416.099C330.994 438.719 347.762 460.892 364.7 482.941C379.903 502.735 395.811 521.947 411.9 541.018C413.62 543.055 415.221 545.211 417.081 547.118C418.439 548.51 418.185 549.388 417.019 550.749C411.07 557.706 405.262 564.776 399.35 571.759C385.686 587.9 372.556 604.473 359.648 621.223C343.487 642.201 327.807 663.538 312.48 685.14C293.132 712.399 274.302 740.012 256.964 768.617C256.431 769.495 255.886 770.362 255.332 771.225C255.12 771.557 254.985 772.025 254.524 771.999Z" fill="#0BEEE0"/>
<path d="M1015.52 771.999C1014.77 771.848 1014.86 771.183 1014.62 770.763C1005.84 755.572 996.652 740.651 986.698 726.203C965.583 695.541 943.624 665.496 921.177 635.806C909.104 619.836 896.673 604.141 884.268 588.43C874.693 576.294 865.112 564.163 856.018 551.648C854.676 549.804 854.661 548.432 855.972 546.598C863.324 536.338 871.563 526.784 879.522 517.006C900.306 491.482 920.4 465.417 939.914 438.906C960.075 411.517 979.936 383.909 998.02 355.076C1002.51 347.922 1006.84 340.674 1011.98 333.947C1015.97 328.73 1016.4 328.632 1019.92 333.967C1028.98 347.709 1037.81 361.606 1047.06 375.212C1056.44 388.99 1066.14 402.539 1075.83 416.099C1091.99 438.719 1108.76 460.892 1125.7 482.941C1140.9 502.735 1156.81 521.947 1172.9 541.018C1174.62 543.055 1176.22 545.211 1178.08 547.118C1179.44 548.51 1179.18 549.388 1178.02 550.749C1172.07 557.706 1166.26 564.776 1160.35 571.759C1146.69 587.9 1133.56 604.473 1120.65 621.223C1104.49 642.201 1088.81 663.538 1073.48 685.14C1054.13 712.399 1035.3 740.012 1017.96 768.617C1017.43 769.495 1016.89 770.362 1016.33 771.225C1016.12 771.557 1015.98 772.025 1015.52 771.999Z" fill="#0BEEE0"/>
<path d="M668.524 1301C667.772 1300.85 667.86 1300.18 667.617 1299.76C658.844 1284.57 649.652 1269.65 639.698 1255.2C618.583 1224.54 596.624 1194.5 574.177 1164.81C562.104 1148.84 549.673 1133.14 537.268 1117.43C527.693 1105.29 518.112 1093.16 509.018 1080.65C507.676 1078.8 507.661 1077.43 508.972 1075.6C516.324 1065.34 524.563 1055.78 532.522 1046.01C553.306 1020.48 573.4 994.417 592.914 967.906C613.075 940.517 632.936 912.909 651.02 884.076C655.508 876.922 659.845 869.674 664.985 862.946C668.975 857.73 669.405 857.632 672.918 862.967C681.975 876.709 690.81 890.606 700.064 904.212C709.438 917.99 719.138 931.539 728.827 945.099C744.994 967.719 761.762 989.892 778.7 1011.94C793.903 1031.73 809.811 1050.95 825.9 1070.02C827.62 1072.05 829.221 1074.21 831.081 1076.12C832.439 1077.51 832.185 1078.39 831.019 1079.75C825.07 1086.71 819.262 1093.78 813.35 1100.76C799.686 1116.9 786.556 1133.47 773.648 1150.22C757.487 1171.2 741.807 1192.54 726.48 1214.14C707.132 1241.4 688.302 1269.01 670.964 1297.62C670.431 1298.49 669.886 1299.36 669.332 1300.22C669.12 1300.56 668.985 1301.03 668.524 1301Z" fill="#0BEEE0"/>
<path d="M1015.52 1965C1014.77 1964.85 1014.86 1964.18 1014.62 1963.76C1005.84 1948.57 996.652 1933.65 986.698 1919.2C965.583 1888.54 943.624 1858.5 921.177 1828.81C909.104 1812.84 896.673 1797.14 884.268 1781.43C874.693 1769.29 865.112 1757.16 856.018 1744.65C854.676 1742.8 854.661 1741.43 855.972 1739.6C863.324 1729.34 871.563 1719.78 879.522 1710.01C900.306 1684.48 920.4 1658.42 939.914 1631.91C960.075 1604.52 979.936 1576.91 998.02 1548.08C1002.51 1540.92 1006.84 1533.67 1011.98 1526.95C1015.97 1521.73 1016.4 1521.63 1019.92 1526.97C1028.98 1540.71 1037.81 1554.61 1047.06 1568.21C1056.44 1581.99 1066.14 1595.54 1075.83 1609.1C1091.99 1631.72 1108.76 1653.89 1125.7 1675.94C1140.9 1695.73 1156.81 1714.95 1172.9 1734.02C1174.62 1736.05 1176.22 1738.21 1178.08 1740.12C1179.44 1741.51 1179.18 1742.39 1178.02 1743.75C1172.07 1750.71 1166.26 1757.78 1160.35 1764.76C1146.69 1780.9 1133.56 1797.47 1120.65 1814.22C1104.49 1835.2 1088.81 1856.54 1073.48 1878.14C1054.13 1905.4 1035.3 1933.01 1017.96 1961.62C1017.43 1962.49 1016.89 1963.36 1016.33 1964.22C1016.12 1964.56 1015.98 1965.03 1015.52 1965Z" fill="#0BEEE0"/>
<path d="M254.524 1965C253.772 1964.85 253.86 1964.18 253.617 1963.76C244.844 1948.57 235.652 1933.65 225.698 1919.2C204.583 1888.54 182.624 1858.5 160.177 1828.81C148.104 1812.84 135.673 1797.14 123.268 1781.43C113.693 1769.29 104.112 1757.16 95.0183 1744.65C93.6763 1742.8 93.6607 1741.43 94.9717 1739.6C102.324 1729.34 110.563 1719.78 118.522 1710.01C139.306 1684.48 159.4 1658.42 178.914 1631.91C199.075 1604.52 218.936 1576.91 237.02 1548.08C241.508 1540.92 245.845 1533.67 250.985 1526.95C254.975 1521.73 255.405 1521.63 258.918 1526.97C267.975 1540.71 276.81 1554.61 286.064 1568.21C295.438 1581.99 305.138 1595.54 314.827 1609.1C330.994 1631.72 347.762 1653.89 364.7 1675.94C379.903 1695.73 395.811 1714.95 411.9 1734.02C413.62 1736.05 415.221 1738.21 417.081 1740.12C418.439 1741.51 418.185 1742.39 417.019 1743.75C411.07 1750.71 405.262 1757.78 399.35 1764.76C385.686 1780.9 372.556 1797.47 359.648 1814.22C343.487 1835.2 327.807 1856.54 312.48 1878.14C293.132 1905.4 274.302 1933.01 256.964 1961.62C256.431 1962.49 255.886 1963.36 255.332 1964.22C255.12 1964.56 254.985 1965.03 254.524 1965Z" fill="#0BEEE0"/>
</svg>
