<svg width="1340" height="2160" viewBox="0 0 1340 2160" fill="none" xmlns="http://www.w3.org/2000/svg">
<path d="M0 166C0 74.3207 74.3207 0 166 0H1174C1265.68 0 1340 74.3207 1340 166V1994C1340 2085.68 1265.68 2160 1174 2160H166C74.3208 2160 0 2085.68 0 1994V166Z" fill="#343937"/>
<path d="M362.232 858.999C361.332 858.818 361.438 858.023 361.146 857.519C350.641 839.338 339.633 821.48 327.713 804.188C302.427 767.491 276.13 731.533 249.249 695.998C234.791 676.885 219.905 658.1 205.05 639.298C193.583 624.773 182.109 610.254 171.219 595.276C169.612 593.068 169.594 591.427 171.164 589.232C179.969 576.951 189.835 565.517 199.366 553.815C224.255 523.267 248.318 492.072 271.687 460.342C295.831 427.562 319.615 394.52 341.271 360.011C346.645 351.449 351.839 342.775 357.994 334.723C362.772 328.481 363.287 328.362 367.494 334.748C378.341 351.194 388.92 367.827 400.003 384.112C411.228 400.601 422.844 416.817 434.447 433.046C453.807 460.118 473.887 486.656 494.172 513.045C512.378 536.735 531.428 559.728 550.694 582.554C552.755 584.991 554.672 587.572 556.9 589.854C558.525 591.52 558.221 592.571 556.825 594.2C549.702 602.525 542.746 610.988 535.666 619.345C519.303 638.664 503.579 658.498 488.122 678.545C468.768 703.652 449.991 729.189 431.637 755.043C408.467 787.668 385.917 820.716 365.155 854.951C364.516 856.002 363.864 857.04 363.2 858.072C362.946 858.47 362.784 859.03 362.232 858.999Z" fill="#0BEEE0"/>
<path d="M974.232 858.999C973.332 858.818 973.438 858.023 973.146 857.519C962.641 839.338 951.633 821.48 939.713 804.188C914.427 767.491 888.13 731.533 861.249 695.998C846.791 676.885 831.905 658.1 817.05 639.298C805.583 624.773 794.109 610.254 783.219 595.276C781.612 593.068 781.594 591.427 783.164 589.232C791.969 576.951 801.835 565.517 811.366 553.815C836.255 523.267 860.318 492.072 883.687 460.342C907.831 427.562 931.615 394.52 953.271 360.011C958.645 351.449 963.839 342.775 969.994 334.723C974.772 328.481 975.287 328.362 979.494 334.748C990.341 351.194 1000.92 367.827 1012 384.112C1023.23 400.601 1034.84 416.817 1046.45 433.046C1065.81 460.118 1085.89 486.656 1106.17 513.045C1124.38 536.735 1143.43 559.728 1162.69 582.554C1164.75 584.991 1166.67 587.572 1168.9 589.854C1170.53 591.52 1170.22 592.571 1168.83 594.2C1161.7 602.525 1154.75 610.988 1147.67 619.345C1131.3 638.664 1115.58 658.498 1100.12 678.545C1080.77 703.652 1061.99 729.189 1043.64 755.043C1020.47 787.668 997.917 820.716 977.155 854.951C976.516 856.002 975.864 857.04 975.2 858.072C974.946 858.47 974.784 859.03 974.232 858.999Z" fill="#0BEEE0"/>
<path d="M974.232 1787C973.332 1786.82 973.438 1786.02 973.146 1785.52C962.641 1767.34 951.633 1749.48 939.713 1732.19C914.427 1695.49 888.13 1659.53 861.249 1624C846.791 1604.88 831.905 1586.1 817.05 1567.3C805.583 1552.77 794.109 1538.25 783.219 1523.28C781.612 1521.07 781.594 1519.43 783.164 1517.23C791.969 1504.95 801.835 1493.52 811.366 1481.81C836.255 1451.27 860.318 1420.07 883.687 1388.34C907.831 1355.56 931.615 1322.52 953.271 1288.01C958.645 1279.45 963.839 1270.78 969.994 1262.72C974.772 1256.48 975.287 1256.36 979.494 1262.75C990.341 1279.19 1000.92 1295.83 1012 1312.11C1023.23 1328.6 1034.84 1344.82 1046.45 1361.05C1065.81 1388.12 1085.89 1414.66 1106.17 1441.04C1124.38 1464.73 1143.43 1487.73 1162.69 1510.55C1164.75 1512.99 1166.67 1515.57 1168.9 1517.85C1170.53 1519.52 1170.22 1520.57 1168.83 1522.2C1161.7 1530.53 1154.75 1538.99 1147.67 1547.34C1131.3 1566.66 1115.58 1586.5 1100.12 1606.54C1080.77 1631.65 1061.99 1657.19 1043.64 1683.04C1020.47 1715.67 997.917 1748.72 977.155 1782.95C976.516 1784 975.864 1785.04 975.2 1786.07C974.946 1786.47 974.784 1787.03 974.232 1787Z" fill="#0BEEE0"/>
<path d="M362.232 1787C361.332 1786.82 361.438 1786.02 361.146 1785.52C350.641 1767.34 339.633 1749.48 327.713 1732.19C302.427 1695.49 276.13 1659.53 249.249 1624C234.791 1604.88 219.905 1586.1 205.05 1567.3C193.583 1552.77 182.109 1538.25 171.219 1523.28C169.612 1521.07 169.594 1519.43 171.164 1517.23C179.969 1504.95 189.835 1493.52 199.366 1481.81C224.255 1451.27 248.318 1420.07 271.687 1388.34C295.831 1355.56 319.615 1322.52 341.271 1288.01C346.645 1279.45 351.839 1270.78 357.994 1262.72C362.772 1256.48 363.287 1256.36 367.494 1262.75C378.341 1279.19 388.92 1295.83 400.003 1312.11C411.228 1328.6 422.844 1344.82 434.447 1361.05C453.807 1388.12 473.887 1414.66 494.172 1441.04C512.378 1464.73 531.428 1487.73 550.694 1510.55C552.755 1512.99 554.672 1515.57 556.9 1517.85C558.525 1519.52 558.221 1520.57 556.825 1522.2C549.702 1530.53 542.746 1538.99 535.666 1547.34C519.303 1566.66 503.579 1586.5 488.122 1606.54C468.768 1631.65 449.991 1657.19 431.637 1683.04C408.467 1715.67 385.917 1748.72 365.155 1782.95C364.516 1784 363.864 1785.04 363.2 1786.07C362.946 1786.47 362.784 1787.03 362.232 1787Z" fill="#0BEEE0"/>
</svg>
