<svg width="1340" height="2160" viewBox="0 0 1340 2160" fill="none" xmlns="http://www.w3.org/2000/svg">
<path d="M0 166C0 74.3207 74.3207 0 166 0H1174C1265.68 0 1340 74.3207 1340 166V1994C1340 2085.68 1265.68 2160 1174 2160H166C74.3208 2160 0 2085.68 0 1994V166Z" fill="#343937"/>
<path d="M311.697 609.999C311.034 609.866 311.111 609.279 310.896 608.908C303.153 595.504 295.039 582.339 286.252 569.591C267.614 542.536 248.23 516.026 228.416 489.829C217.758 475.737 206.786 461.889 195.836 448.027C187.383 437.318 178.926 426.615 170.899 415.572C169.714 413.944 169.701 412.734 170.858 411.116C177.348 402.063 184.621 393.632 191.646 385.005C209.992 362.484 227.729 339.486 244.955 316.094C262.752 291.926 280.283 267.567 296.246 242.125C300.207 235.813 304.036 229.419 308.573 223.482C312.095 218.88 312.474 218.793 315.576 223.501C323.571 235.625 331.369 247.888 339.538 259.893C347.812 272.05 356.375 284.005 364.928 295.97C379.198 315.928 393.999 335.493 408.951 354.948C422.371 372.413 436.413 389.365 450.615 406.193C452.134 407.99 453.547 409.892 455.189 411.574C456.387 412.803 456.163 413.578 455.134 414.779C449.883 420.917 444.756 427.156 439.537 433.316C427.476 447.559 415.885 462.182 404.492 476.961C390.226 495.471 376.385 514.298 362.856 533.359C345.777 557.411 329.155 581.775 313.851 607.015C313.38 607.79 312.9 608.555 312.41 609.316C312.223 609.609 312.104 610.022 311.697 609.999Z" fill="#0BEEE0"/>
<path d="M311.697 1267C311.034 1266.87 311.111 1266.28 310.896 1265.91C303.153 1252.5 295.039 1239.34 286.252 1226.59C267.614 1199.54 248.23 1173.03 228.416 1146.83C217.758 1132.74 206.786 1118.89 195.836 1105.03C187.383 1094.32 178.926 1083.61 170.899 1072.57C169.714 1070.94 169.701 1069.73 170.858 1068.12C177.348 1059.06 184.621 1050.63 191.646 1042.01C209.992 1019.48 227.729 996.486 244.955 973.094C262.752 948.926 280.283 924.567 296.246 899.125C300.207 892.813 304.036 886.419 308.573 880.482C312.095 875.88 312.474 875.793 315.576 880.501C323.571 892.625 331.369 904.888 339.538 916.893C347.812 929.05 356.375 941.005 364.928 952.97C379.198 972.929 393.999 992.493 408.951 1011.95C422.371 1029.41 436.413 1046.36 450.615 1063.19C452.134 1064.99 453.547 1066.89 455.189 1068.57C456.387 1069.8 456.163 1070.58 455.134 1071.78C449.883 1077.92 444.756 1084.16 439.537 1090.32C427.476 1104.56 415.885 1119.18 404.492 1133.96C390.226 1152.47 376.385 1171.3 362.856 1190.36C345.777 1214.41 329.155 1238.78 313.851 1264.01C313.38 1264.79 312.9 1265.56 312.41 1266.32C312.223 1266.61 312.104 1267.02 311.697 1267Z" fill="#0BEEE0"/>
<path d="M311.697 1924C311.034 1923.87 311.111 1923.28 310.896 1922.91C303.153 1909.5 295.039 1896.34 286.252 1883.59C267.614 1856.54 248.23 1830.03 228.416 1803.83C217.758 1789.74 206.786 1775.89 195.836 1762.03C187.383 1751.32 178.926 1740.61 170.899 1729.57C169.714 1727.94 169.701 1726.73 170.858 1725.12C177.348 1716.06 184.621 1707.63 191.646 1699.01C209.992 1676.48 227.729 1653.49 244.955 1630.09C262.752 1605.93 280.283 1581.57 296.246 1556.13C300.207 1549.81 304.036 1543.42 308.573 1537.48C312.095 1532.88 312.474 1532.79 315.576 1537.5C323.571 1549.63 331.369 1561.89 339.538 1573.89C347.812 1586.05 356.375 1598.01 364.928 1609.97C379.198 1629.93 393.999 1649.49 408.951 1668.95C422.371 1686.41 436.413 1703.36 450.615 1720.19C452.134 1721.99 453.547 1723.89 455.189 1725.57C456.387 1726.8 456.163 1727.58 455.134 1728.78C449.883 1734.92 444.756 1741.16 439.537 1747.32C427.476 1761.56 415.885 1776.18 404.492 1790.96C390.226 1809.47 376.385 1828.3 362.856 1847.36C345.777 1871.41 329.155 1895.78 313.851 1921.01C313.38 1921.79 312.9 1922.56 312.41 1923.32C312.223 1923.61 312.104 1924.02 311.697 1924Z" fill="#0BEEE0"/>
<path d="M1024.7 1924C1024.03 1923.87 1024.11 1923.28 1023.9 1922.91C1016.15 1909.5 1008.04 1896.34 999.252 1883.59C980.614 1856.54 961.23 1830.03 941.416 1803.83C930.758 1789.74 919.786 1775.89 908.836 1762.03C900.383 1751.32 891.926 1740.61 883.899 1729.57C882.714 1727.94 882.701 1726.73 883.858 1725.12C890.348 1716.06 897.621 1707.63 904.646 1699.01C922.992 1676.48 940.729 1653.49 957.955 1630.09C975.752 1605.93 993.283 1581.57 1009.25 1556.13C1013.21 1549.81 1017.04 1543.42 1021.57 1537.48C1025.09 1532.88 1025.47 1532.79 1028.58 1537.5C1036.57 1549.63 1044.37 1561.89 1052.54 1573.89C1060.81 1586.05 1069.37 1598.01 1077.93 1609.97C1092.2 1629.93 1107 1649.49 1121.95 1668.95C1135.37 1686.41 1149.41 1703.36 1163.61 1720.19C1165.13 1721.99 1166.55 1723.89 1168.19 1725.57C1169.39 1726.8 1169.16 1727.58 1168.13 1728.78C1162.88 1734.92 1157.76 1741.16 1152.54 1747.32C1140.48 1761.56 1128.89 1776.18 1117.49 1790.96C1103.23 1809.47 1089.39 1828.3 1075.86 1847.36C1058.78 1871.41 1042.16 1895.78 1026.85 1921.01C1026.38 1921.79 1025.9 1922.56 1025.41 1923.32C1025.22 1923.61 1025.1 1924.02 1024.7 1924Z" fill="#0BEEE0"/>
<path d="M668.697 931.999C668.034 931.866 668.111 931.279 667.896 930.908C660.153 917.504 652.039 904.339 643.252 891.591C624.614 864.536 605.23 838.026 585.416 811.828C574.758 797.737 563.786 783.889 552.836 770.027C544.383 759.318 535.926 748.615 527.899 737.572C526.714 735.944 526.701 734.734 527.858 733.116C534.348 724.063 541.621 715.633 548.646 707.005C566.992 684.484 584.729 661.486 601.955 638.094C619.752 613.926 637.283 589.567 653.246 564.125C657.207 557.813 661.036 551.419 665.573 545.482C669.095 540.88 669.474 540.793 672.576 545.501C680.571 557.625 688.369 569.888 696.538 581.893C704.812 594.05 713.375 606.005 721.928 617.97C736.198 637.929 750.999 657.493 765.951 676.948C779.371 694.413 793.413 711.365 807.615 728.193C809.134 729.99 810.547 731.892 812.189 733.574C813.387 734.803 813.163 735.578 812.134 736.779C806.883 742.917 801.756 749.156 796.537 755.317C784.476 769.559 772.885 784.182 761.492 798.961C747.226 817.471 733.385 836.298 719.856 855.359C702.777 879.411 686.155 903.775 670.851 929.015C670.38 929.79 669.9 930.555 669.41 931.316C669.223 931.609 669.104 932.022 668.697 931.999Z" fill="#0BEEE0"/>
<path d="M1024.7 1267C1024.03 1266.87 1024.11 1266.28 1023.9 1265.91C1016.15 1252.5 1008.04 1239.34 999.252 1226.59C980.614 1199.54 961.23 1173.03 941.416 1146.83C930.758 1132.74 919.786 1118.89 908.836 1105.03C900.383 1094.32 891.926 1083.61 883.899 1072.57C882.714 1070.94 882.701 1069.73 883.858 1068.12C890.348 1059.06 897.621 1050.63 904.646 1042.01C922.992 1019.48 940.729 996.486 957.955 973.094C975.752 948.926 993.283 924.567 1009.25 899.125C1013.21 892.813 1017.04 886.419 1021.57 880.482C1025.09 875.88 1025.47 875.793 1028.58 880.501C1036.57 892.625 1044.37 904.888 1052.54 916.893C1060.81 929.05 1069.37 941.005 1077.93 952.97C1092.2 972.929 1107 992.493 1121.95 1011.95C1135.37 1029.41 1149.41 1046.36 1163.61 1063.19C1165.13 1064.99 1166.55 1066.89 1168.19 1068.57C1169.39 1069.8 1169.16 1070.58 1168.13 1071.78C1162.88 1077.92 1157.76 1084.16 1152.54 1090.32C1140.48 1104.56 1128.89 1119.18 1117.49 1133.96C1103.23 1152.47 1089.39 1171.3 1075.86 1190.36C1058.78 1214.41 1042.16 1238.78 1026.85 1264.01C1026.38 1264.79 1025.9 1265.56 1025.41 1266.32C1025.22 1266.61 1025.1 1267.02 1024.7 1267Z" fill="#0BEEE0"/>
<path d="M1024.7 609.999C1024.03 609.866 1024.11 609.279 1023.9 608.908C1016.15 595.504 1008.04 582.339 999.252 569.591C980.614 542.536 961.23 516.026 941.416 489.829C930.758 475.737 919.786 461.889 908.836 448.027C900.383 437.318 891.926 426.615 883.899 415.572C882.714 413.944 882.701 412.734 883.858 411.116C890.348 402.063 897.621 393.632 904.646 385.005C922.992 362.484 940.729 339.486 957.955 316.094C975.752 291.926 993.283 267.567 1009.25 242.125C1013.21 235.813 1017.04 229.419 1021.57 223.482C1025.09 218.88 1025.47 218.793 1028.58 223.501C1036.57 235.625 1044.37 247.888 1052.54 259.893C1060.81 272.05 1069.37 284.005 1077.93 295.97C1092.2 315.928 1107 335.493 1121.95 354.948C1135.37 372.413 1149.41 389.365 1163.61 406.193C1165.13 407.99 1166.55 409.892 1168.19 411.574C1169.39 412.803 1169.16 413.578 1168.13 414.779C1162.88 420.917 1157.76 427.156 1152.54 433.316C1140.48 447.559 1128.89 462.182 1117.49 476.961C1103.23 495.471 1089.39 514.298 1075.86 533.359C1058.78 557.411 1042.16 581.775 1026.85 607.015C1026.38 607.79 1025.9 608.555 1025.41 609.316C1025.22 609.609 1025.1 610.022 1024.7 609.999Z" fill="#0BEEE0"/>
</svg>
