<svg width="1340" height="2160" viewBox="0 0 1340 2160" fill="none" xmlns="http://www.w3.org/2000/svg">
<path d="M0 166C0 74.3207 74.3207 0 166 0H1174C1265.68 0 1340 74.3207 1340 166V1994C1340 2085.68 1265.68 2160 1174 2160H166C74.3208 2160 0 2085.68 0 1994V166Z" fill="#343937"/>
<path d="M666.926 926.998C665.615 926.736 665.769 925.577 665.344 924.844C650.047 898.38 634.017 872.387 616.659 847.218C579.838 793.801 541.544 741.462 502.401 689.738C481.348 661.917 459.671 634.575 438.039 607.207C421.341 586.064 404.634 564.932 388.776 543.129C386.436 539.916 386.408 537.526 388.694 534.332C401.516 516.457 415.883 499.813 429.762 482.78C466.005 438.315 501.046 392.908 535.075 346.723C570.233 299.009 604.868 250.914 636.403 200.684C644.228 188.221 651.791 175.596 660.754 163.875C667.712 154.788 668.462 154.616 674.588 163.911C690.383 187.85 705.789 212.06 721.927 235.764C738.273 259.766 755.188 283.369 772.085 306.991C800.276 346.397 829.516 385.025 859.054 423.435C885.566 457.918 913.306 491.387 941.362 524.611C944.362 528.159 947.154 531.915 950.398 535.237C952.765 537.662 952.322 539.192 950.289 541.563C939.916 553.682 929.787 565.999 919.477 578.163C895.65 606.283 872.753 635.155 850.245 664.333C822.062 700.88 794.719 738.05 767.991 775.682C734.252 823.17 701.415 871.274 671.182 921.106C670.251 922.636 669.302 924.147 668.335 925.65C667.965 926.229 667.73 927.043 666.926 926.998Z" fill="#0BEEE0"/>
<path d="M666.926 1961C665.615 1960.74 665.769 1959.58 665.344 1958.84C650.047 1932.38 634.017 1906.39 616.659 1881.22C579.838 1827.8 541.544 1775.46 502.401 1723.74C481.348 1695.92 459.671 1668.58 438.039 1641.21C421.341 1620.06 404.634 1598.93 388.776 1577.13C386.436 1573.92 386.408 1571.53 388.694 1568.33C401.516 1550.46 415.883 1533.81 429.762 1516.78C466.005 1472.31 501.046 1426.91 535.075 1380.72C570.233 1333.01 604.868 1284.91 636.403 1234.68C644.228 1222.22 651.791 1209.6 660.754 1197.88C667.712 1188.79 668.462 1188.62 674.588 1197.91C690.383 1221.85 705.789 1246.06 721.927 1269.76C738.273 1293.77 755.188 1317.37 772.085 1340.99C800.276 1380.4 829.516 1419.02 859.054 1457.44C885.566 1491.92 913.306 1525.39 941.362 1558.61C944.362 1562.16 947.154 1565.92 950.398 1569.24C952.765 1571.66 952.322 1573.19 950.289 1575.56C939.916 1587.68 929.787 1600 919.477 1612.16C895.65 1640.28 872.753 1669.15 850.245 1698.33C822.062 1734.88 794.719 1772.05 767.991 1809.68C734.252 1857.17 701.415 1905.27 671.182 1955.11C670.251 1956.64 669.302 1958.15 668.335 1959.65C667.965 1960.23 667.73 1961.04 666.926 1961Z" fill="#0BEEE0"/>
</svg>
