<svg width="1340" height="2160" viewBox="0 0 1340 2160" fill="none" xmlns="http://www.w3.org/2000/svg">
<path d="M0 166C0 74.3207 74.3207 0 166 0H1174C1265.68 0 1340 74.3207 1340 166V1994C1340 2085.68 1265.68 2160 1174 2160H166C74.3208 2160 0 2085.68 0 1994V166Z" fill="#343937"/>
<path d="M665.444 1760C663.125 1759.53 663.397 1757.49 662.645 1756.19C635.569 1709.41 607.198 1663.47 576.477 1618.98C511.307 1524.57 443.53 1432.06 374.25 1340.63C336.987 1291.46 298.621 1243.13 260.335 1194.75C230.78 1157.39 201.21 1120.03 173.143 1081.5C169.001 1075.82 168.953 1071.59 172.999 1065.95C195.693 1034.35 221.121 1004.93 245.685 974.826C309.832 896.233 371.851 815.975 432.079 734.342C494.307 650.005 555.606 564.996 611.421 476.212C625.27 454.184 638.656 431.868 654.521 411.152C666.835 395.091 668.162 394.787 679.005 411.216C706.96 453.528 734.228 496.321 762.791 538.217C791.721 580.641 821.659 622.362 851.566 664.114C901.463 733.766 953.215 802.042 1005.49 869.933C1052.42 930.882 1101.51 990.04 1151.17 1048.77C1156.48 1055.04 1161.42 1061.67 1167.16 1067.55C1171.35 1071.83 1170.57 1074.54 1166.97 1078.73C1148.61 1100.15 1130.68 1121.92 1112.44 1143.42C1070.26 1193.12 1029.74 1244.15 989.902 1295.73C940.021 1360.32 891.627 1426.03 844.321 1492.54C784.605 1576.48 726.487 1661.5 672.976 1749.58C671.329 1752.29 669.65 1754.96 667.938 1757.61C667.283 1758.64 666.867 1760.08 665.444 1760Z" fill="#17D9CD"/>
</svg>
