<svg width="1340" height="2160" viewBox="0 0 1340 2160" fill="none" xmlns="http://www.w3.org/2000/svg">
<path d="M0 166C0 74.3207 74.3207 0 166 0H1174C1265.68 0 1340 74.3207 1340 166V1994C1340 2085.68 1265.68 2160 1174 2160H166C74.3208 2160 0 2085.68 0 1994V166Z" fill="#343937"/>
<path d="M311.697 656.999C311.034 656.866 311.111 656.279 310.896 655.908C303.153 642.504 295.039 629.339 286.252 616.591C267.614 589.536 248.23 563.026 228.416 536.828C217.758 522.737 206.786 508.889 195.836 495.027C187.383 484.318 178.926 473.615 170.899 462.572C169.714 460.944 169.701 459.734 170.858 458.116C177.348 449.063 184.621 440.632 191.646 432.005C209.992 409.484 227.729 386.486 244.955 363.094C262.752 338.926 280.283 314.567 296.246 289.125C300.207 282.813 304.036 276.419 308.573 270.482C312.095 265.88 312.474 265.793 315.576 270.501C323.571 282.625 331.369 294.888 339.538 306.893C347.812 319.05 356.375 331.005 364.928 342.97C379.198 362.928 393.999 382.493 408.951 401.948C422.371 419.413 436.413 436.365 450.615 453.193C452.134 454.99 453.547 456.892 455.189 458.574C456.387 459.803 456.163 460.578 455.134 461.779C449.883 467.917 444.756 474.156 439.537 480.316C427.476 494.559 415.885 509.182 404.492 523.961C390.226 542.471 376.385 561.298 362.856 580.359C345.777 604.411 329.155 628.775 313.851 654.015C313.38 654.79 312.9 655.555 312.41 656.316C312.223 656.609 312.104 657.022 311.697 656.999Z" fill="#0BEEE0"/>
<path d="M311.697 1314C311.034 1313.87 311.111 1313.28 310.896 1312.91C303.153 1299.5 295.039 1286.34 286.252 1273.59C267.614 1246.54 248.23 1220.03 228.416 1193.83C217.758 1179.74 206.786 1165.89 195.836 1152.03C187.383 1141.32 178.926 1130.61 170.899 1119.57C169.714 1117.94 169.701 1116.73 170.858 1115.12C177.348 1106.06 184.621 1097.63 191.646 1089.01C209.992 1066.48 227.729 1043.49 244.955 1020.09C262.752 995.926 280.283 971.567 296.246 946.125C300.207 939.813 304.036 933.419 308.573 927.482C312.095 922.88 312.474 922.793 315.576 927.501C323.571 939.625 331.369 951.888 339.538 963.893C347.812 976.05 356.375 988.005 364.928 999.97C379.198 1019.93 393.999 1039.49 408.951 1058.95C422.371 1076.41 436.413 1093.36 450.615 1110.19C452.134 1111.99 453.547 1113.89 455.189 1115.57C456.387 1116.8 456.163 1117.58 455.134 1118.78C449.883 1124.92 444.756 1131.16 439.537 1137.32C427.476 1151.56 415.885 1166.18 404.492 1180.96C390.226 1199.47 376.385 1218.3 362.856 1237.36C345.777 1261.41 329.155 1285.78 313.851 1311.01C313.38 1311.79 312.9 1312.56 312.41 1313.32C312.223 1313.61 312.104 1314.02 311.697 1314Z" fill="#0BEEE0"/>
<path d="M311.697 1971C311.034 1970.87 311.111 1970.28 310.896 1969.91C303.153 1956.5 295.039 1943.34 286.252 1930.59C267.614 1903.54 248.23 1877.03 228.416 1850.83C217.758 1836.74 206.786 1822.89 195.836 1809.03C187.383 1798.32 178.926 1787.61 170.899 1776.57C169.714 1774.94 169.701 1773.73 170.858 1772.12C177.348 1763.06 184.621 1754.63 191.646 1746.01C209.992 1723.48 227.729 1700.49 244.955 1677.09C262.752 1652.93 280.283 1628.57 296.246 1603.13C300.207 1596.81 304.036 1590.42 308.573 1584.48C312.095 1579.88 312.474 1579.79 315.576 1584.5C323.571 1596.63 331.369 1608.89 339.538 1620.89C347.812 1633.05 356.375 1645.01 364.928 1656.97C379.198 1676.93 393.999 1696.49 408.951 1715.95C422.371 1733.41 436.413 1750.36 450.615 1767.19C452.134 1768.99 453.547 1770.89 455.189 1772.57C456.387 1773.8 456.163 1774.58 455.134 1775.78C449.883 1781.92 444.756 1788.16 439.537 1794.32C427.476 1808.56 415.885 1823.18 404.492 1837.96C390.226 1856.47 376.385 1875.3 362.856 1894.36C345.777 1918.41 329.155 1942.78 313.851 1968.01C313.38 1968.79 312.9 1969.56 312.41 1970.32C312.223 1970.61 312.104 1971.02 311.697 1971Z" fill="#0BEEE0"/>
<path d="M1024.7 1971C1024.03 1970.87 1024.11 1970.28 1023.9 1969.91C1016.15 1956.5 1008.04 1943.34 999.252 1930.59C980.614 1903.54 961.23 1877.03 941.416 1850.83C930.758 1836.74 919.786 1822.89 908.836 1809.03C900.383 1798.32 891.926 1787.61 883.899 1776.57C882.714 1774.94 882.701 1773.73 883.858 1772.12C890.348 1763.06 897.621 1754.63 904.646 1746.01C922.992 1723.48 940.729 1700.49 957.955 1677.09C975.752 1652.93 993.283 1628.57 1009.25 1603.13C1013.21 1596.81 1017.04 1590.42 1021.57 1584.48C1025.09 1579.88 1025.47 1579.79 1028.58 1584.5C1036.57 1596.63 1044.37 1608.89 1052.54 1620.89C1060.81 1633.05 1069.37 1645.01 1077.93 1656.97C1092.2 1676.93 1107 1696.49 1121.95 1715.95C1135.37 1733.41 1149.41 1750.36 1163.61 1767.19C1165.13 1768.99 1166.55 1770.89 1168.19 1772.57C1169.39 1773.8 1169.16 1774.58 1168.13 1775.78C1162.88 1781.92 1157.76 1788.16 1152.54 1794.32C1140.48 1808.56 1128.89 1823.18 1117.49 1837.96C1103.23 1856.47 1089.39 1875.3 1075.86 1894.36C1058.78 1918.41 1042.16 1942.78 1026.85 1968.01C1026.38 1968.79 1025.9 1969.56 1025.41 1970.32C1025.22 1970.61 1025.1 1971.02 1024.7 1971Z" fill="#0BEEE0"/>
<path d="M668.697 978.999C668.034 978.866 668.111 978.279 667.896 977.908C660.153 964.504 652.039 951.339 643.252 938.591C624.614 911.536 605.23 885.026 585.416 858.828C574.758 844.737 563.786 830.889 552.836 817.027C544.383 806.318 535.926 795.615 527.899 784.572C526.714 782.944 526.701 781.734 527.858 780.116C534.348 771.063 541.621 762.632 548.646 754.005C566.992 731.484 584.729 708.486 601.955 685.094C619.752 660.926 637.283 636.567 653.246 611.125C657.207 604.813 661.036 598.419 665.573 592.482C669.095 587.88 669.474 587.793 672.576 592.501C680.571 604.625 688.369 616.888 696.538 628.893C704.812 641.05 713.375 653.005 721.928 664.97C736.198 684.929 750.999 704.493 765.951 723.948C779.371 741.413 793.413 758.365 807.615 775.193C809.134 776.99 810.547 778.892 812.189 780.574C813.387 781.803 813.163 782.578 812.134 783.779C806.883 789.917 801.756 796.156 796.537 802.317C784.476 816.559 772.885 831.182 761.492 845.961C747.226 864.471 733.385 883.298 719.856 902.359C702.777 926.411 686.155 950.775 670.851 976.015C670.38 976.79 669.9 977.555 669.41 978.316C669.223 978.609 669.104 979.022 668.697 978.999Z" fill="#0BEEE0"/>
<path d="M668.697 1704C668.034 1703.87 668.111 1703.28 667.896 1702.91C660.153 1689.5 652.039 1676.34 643.252 1663.59C624.614 1636.54 605.23 1610.03 585.416 1583.83C574.758 1569.74 563.786 1555.89 552.836 1542.03C544.383 1531.32 535.926 1520.61 527.899 1509.57C526.714 1507.94 526.701 1506.73 527.858 1505.12C534.348 1496.06 541.621 1487.63 548.646 1479.01C566.992 1456.48 584.729 1433.49 601.955 1410.09C619.752 1385.93 637.283 1361.57 653.246 1336.13C657.207 1329.81 661.036 1323.42 665.573 1317.48C669.095 1312.88 669.474 1312.79 672.576 1317.5C680.571 1329.63 688.369 1341.89 696.538 1353.89C704.812 1366.05 713.375 1378.01 721.928 1389.97C736.198 1409.93 750.999 1429.49 765.951 1448.95C779.371 1466.41 793.413 1483.36 807.615 1500.19C809.134 1501.99 810.547 1503.89 812.189 1505.57C813.387 1506.8 813.163 1507.58 812.134 1508.78C806.883 1514.92 801.756 1521.16 796.537 1527.32C784.476 1541.56 772.885 1556.18 761.492 1570.96C747.226 1589.47 733.385 1608.3 719.856 1627.36C702.777 1651.41 686.155 1675.78 670.851 1701.01C670.38 1701.79 669.9 1702.56 669.41 1703.32C669.223 1703.61 669.104 1704.02 668.697 1704Z" fill="#0BEEE0"/>
<path d="M1024.7 1314C1024.03 1313.87 1024.11 1313.28 1023.9 1312.91C1016.15 1299.5 1008.04 1286.34 999.252 1273.59C980.614 1246.54 961.23 1220.03 941.416 1193.83C930.758 1179.74 919.786 1165.89 908.836 1152.03C900.383 1141.32 891.926 1130.61 883.899 1119.57C882.714 1117.94 882.701 1116.73 883.858 1115.12C890.348 1106.06 897.621 1097.63 904.646 1089.01C922.992 1066.48 940.729 1043.49 957.955 1020.09C975.752 995.926 993.283 971.567 1009.25 946.125C1013.21 939.813 1017.04 933.419 1021.57 927.482C1025.09 922.88 1025.47 922.793 1028.58 927.501C1036.57 939.625 1044.37 951.888 1052.54 963.893C1060.81 976.05 1069.37 988.005 1077.93 999.97C1092.2 1019.93 1107 1039.49 1121.95 1058.95C1135.37 1076.41 1149.41 1093.36 1163.61 1110.19C1165.13 1111.99 1166.55 1113.89 1168.19 1115.57C1169.39 1116.8 1169.16 1117.58 1168.13 1118.78C1162.88 1124.92 1157.76 1131.16 1152.54 1137.32C1140.48 1151.56 1128.89 1166.18 1117.49 1180.96C1103.23 1199.47 1089.39 1218.3 1075.86 1237.36C1058.78 1261.41 1042.16 1285.78 1026.85 1311.01C1026.38 1311.79 1025.9 1312.56 1025.41 1313.32C1025.22 1313.61 1025.1 1314.02 1024.7 1314Z" fill="#0BEEE0"/>
<path d="M1024.7 656.999C1024.03 656.866 1024.11 656.279 1023.9 655.908C1016.15 642.504 1008.04 629.339 999.252 616.591C980.614 589.536 961.23 563.026 941.416 536.828C930.758 522.737 919.786 508.889 908.836 495.027C900.383 484.318 891.926 473.615 883.899 462.572C882.714 460.944 882.701 459.734 883.858 458.116C890.348 449.063 897.621 440.632 904.646 432.005C922.992 409.484 940.729 386.486 957.955 363.094C975.752 338.926 993.283 314.567 1009.25 289.125C1013.21 282.813 1017.04 276.419 1021.57 270.482C1025.09 265.88 1025.47 265.793 1028.58 270.501C1036.57 282.625 1044.37 294.888 1052.54 306.893C1060.81 319.05 1069.37 331.005 1077.93 342.97C1092.2 362.928 1107 382.493 1121.95 401.948C1135.37 419.413 1149.41 436.365 1163.61 453.193C1165.13 454.99 1166.55 456.892 1168.19 458.574C1169.39 459.803 1169.16 460.578 1168.13 461.779C1162.88 467.917 1157.76 474.156 1152.54 480.316C1140.48 494.559 1128.89 509.182 1117.49 523.961C1103.23 542.471 1089.39 561.298 1075.86 580.359C1058.78 604.411 1042.16 628.775 1026.85 654.015C1026.38 654.79 1025.9 655.555 1025.41 656.316C1025.22 656.609 1025.1 657.022 1024.7 656.999Z" fill="#0BEEE0"/>
</svg>
