<svg width="1340" height="2160" viewBox="0 0 1340 2160" fill="none" xmlns="http://www.w3.org/2000/svg">
<path d="M0 166C0 74.3207 74.3207 0 166 0H1174C1265.68 0 1340 74.3207 1340 166V1994C1340 2085.68 1265.68 2160 1174 2160H166C74.3208 2160 0 2085.68 0 1994V166Z" fill="#343937"/>
<path d="M668.232 678.999C667.332 678.818 667.438 678.023 667.146 677.519C656.641 659.338 645.633 641.48 633.713 624.188C608.427 587.491 582.13 551.533 555.249 515.998C540.791 496.885 525.905 478.1 511.05 459.298C499.583 444.773 488.109 430.254 477.219 415.275C475.612 413.068 475.594 411.427 477.164 409.232C485.969 396.952 495.835 385.517 505.366 373.815C530.255 343.267 554.318 312.072 577.687 280.342C601.831 247.562 625.615 214.52 647.271 180.011C652.645 171.449 657.839 162.775 663.994 154.723C668.772 148.481 669.287 148.362 673.494 154.748C684.341 171.194 694.92 187.827 706.003 204.112C717.228 220.601 728.844 236.817 740.448 253.046C759.808 280.118 779.887 306.656 800.172 333.045C818.378 356.735 837.428 379.728 856.694 402.554C858.755 404.991 860.672 407.572 862.9 409.854C864.525 411.52 864.221 412.571 862.825 414.2C855.702 422.525 848.746 430.988 841.666 439.345C825.303 458.664 809.579 478.498 794.122 498.545C774.768 523.652 755.991 549.189 737.637 575.043C714.467 607.668 691.917 640.716 671.155 674.951C670.516 676.002 669.864 677.04 669.2 678.072C668.946 678.47 668.784 679.03 668.232 678.999Z" fill="#0BEEE0"/>
<path d="M668.232 1344C667.332 1343.82 667.438 1343.02 667.146 1342.52C656.641 1324.34 645.633 1306.48 633.713 1289.19C608.427 1252.49 582.13 1216.53 555.249 1181C540.791 1161.88 525.905 1143.1 511.05 1124.3C499.583 1109.77 488.109 1095.25 477.219 1080.28C475.612 1078.07 475.594 1076.43 477.164 1074.23C485.969 1061.95 495.835 1050.52 505.366 1038.81C530.255 1008.27 554.318 977.072 577.687 945.342C601.831 912.562 625.615 879.52 647.271 845.011C652.645 836.449 657.839 827.775 663.994 819.723C668.772 813.481 669.287 813.362 673.494 819.748C684.341 836.194 694.92 852.827 706.003 869.112C717.228 885.601 728.844 901.817 740.448 918.046C759.808 945.118 779.887 971.656 800.172 998.045C818.378 1021.73 837.428 1044.73 856.694 1067.55C858.755 1069.99 860.672 1072.57 862.9 1074.85C864.525 1076.52 864.221 1077.57 862.825 1079.2C855.702 1087.53 848.746 1095.99 841.666 1104.34C825.303 1123.66 809.579 1143.5 794.122 1163.54C774.768 1188.65 755.991 1214.19 737.637 1240.04C714.467 1272.67 691.917 1305.72 671.155 1339.95C670.516 1341 669.864 1342.04 669.2 1343.07C668.946 1343.47 668.784 1344.03 668.232 1344Z" fill="#0BEEE0"/>
<path d="M668.232 2063C667.332 2062.82 667.438 2062.02 667.146 2061.52C656.641 2043.34 645.633 2025.48 633.713 2008.19C608.427 1971.49 582.13 1935.53 555.249 1900C540.791 1880.88 525.905 1862.1 511.05 1843.3C499.583 1828.77 488.109 1814.25 477.219 1799.28C475.612 1797.07 475.594 1795.43 477.164 1793.23C485.969 1780.95 495.835 1769.52 505.366 1757.81C530.255 1727.27 554.318 1696.07 577.687 1664.34C601.831 1631.56 625.615 1598.52 647.271 1564.01C652.645 1555.45 657.839 1546.78 663.994 1538.72C668.772 1532.48 669.287 1532.36 673.494 1538.75C684.341 1555.19 694.92 1571.83 706.003 1588.11C717.228 1604.6 728.844 1620.82 740.448 1637.05C759.808 1664.12 779.887 1690.66 800.172 1717.04C818.378 1740.73 837.428 1763.73 856.694 1786.55C858.755 1788.99 860.672 1791.57 862.9 1793.85C864.525 1795.52 864.221 1796.57 862.825 1798.2C855.702 1806.53 848.746 1814.99 841.666 1823.34C825.303 1842.66 809.579 1862.5 794.122 1882.54C774.768 1907.65 755.991 1933.19 737.637 1959.04C714.467 1991.67 691.917 2024.72 671.155 2058.95C670.516 2060 669.864 2061.04 669.2 2062.07C668.946 2062.47 668.784 2063.03 668.232 2063Z" fill="#0BEEE0"/>
</svg>
