<svg width="1348" height="2168" viewBox="0 0 1348 2168" fill="none" xmlns="http://www.w3.org/2000/svg">
<g filter="url(#filter0_d_19_4)">
<path d="M4 166C4 74.3207 78.3207 0 170 0H1178C1269.68 0 1344 74.3207 1344 166V1994C1344 2085.68 1269.68 2160 1178 2160H170C78.3207 2160 4 2085.68 4 1994V166Z" fill="#343937"/>
<path d="M492.641 635.563C487.962 645.765 482.886 655.802 478.653 666.169C459.472 713.31 437.349 759.029 412.365 803.309C387.993 846.531 363.471 889.703 337.876 932.197C315.636 969.12 291.777 1005.07 268.611 1041.43C262.692 1050.72 256.69 1059.95 250.489 1069.55C263.039 1086.6 275.589 1103.1 287.593 1120C324.102 1171.44 360.578 1222.9 396.69 1274.6C418.83 1306.3 440.606 1338.28 461.986 1370.48C489.566 1412.05 511.507 1456.43 528.356 1503.47C542.758 1543.7 558.416 1583.47 573.744 1623.37C577.101 1632.1 581.168 1640.58 585.352 1648.96C586.972 1652.2 589.783 1654.85 591.155 1658.14C596.347 1667.22 601.209 1676.51 606.781 1685.36C633.385 1727.57 663.28 1767.24 698.367 1802.89C705.956 1810.59 712.438 1819.02 722.243 1824.63C728.03 1827.94 731.734 1834.81 736.562 1839.92C737.488 1840.9 739.257 1841.08 740.63 1841.64" stroke="#00FFFF" stroke-width="6" stroke-miterlimit="10" stroke-linecap="round" stroke-linejoin="round"/>
<path d="M840.236 1910.23C841.972 1918.28 837.343 1924.66 832.862 1929.77C829.125 1934.04 828.331 1938.7 826.678 1943.33C825.157 1947.6 824.694 1952.23 823.205 1956.49C821.387 1961.72 817.617 1962.41 812.524 1960.73C781.091 1950.31 751.015 1936.77 722.509 1920.05C680.014 1895.13 641.654 1864.81 607.575 1829.19C567.76 1787.59 535.17 1740.83 511.012 1688.61C487.351 1637.45 465.905 1585.25 441.98 1534.23C421.179 1489.87 395.285 1448.56 360.463 1413.34C339.365 1392 319.225 1369.72 298.342 1348.16C270.96 1319.89 243.066 1292.11 215.784 1263.75C187.691 1234.54 159.334 1205.5 132.465 1175.16C111.185 1151.12 91.839 1125.34 72.0138 1100.04C67.5825 1094.37 64.4574 1087.59 61.2662 1081.06C59.8773 1078.2 59.8442 1074.66 58.9844 1070.38C66.3589 1070.38 72.4272 1070.38 78.4954 1070.38" stroke="#00FFFF" stroke-width="6" stroke-miterlimit="10" stroke-linecap="round" stroke-linejoin="round"/>
<path d="M498.429 239.605C499.255 239.605 500.644 239.902 500.826 239.555C504.514 232.445 508.498 225.451 511.541 218.06C515.013 209.611 517.626 200.798 521.214 190.364C526.455 191.141 531.333 191.026 535.582 192.596C593.702 214.108 647.043 243.689 694.482 284.083C741.672 324.263 781.934 370.246 812.143 424.166C829.025 454.292 842.038 486.635 856.308 518.199C879.076 568.531 900.092 619.673 929.011 667.029C943.165 690.211 958.955 711.987 977.904 731.432C1004.29 758.499 1030.44 785.815 1057.32 812.386C1102.49 857.047 1148.71 900.649 1193.44 945.756C1221.21 973.749 1248.71 1002.26 1271.25 1034.89C1275.71 1041.36 1279.12 1048.57 1282.87 1055.51C1284.06 1057.71 1284.79 1060.14 1286.51 1064.43C1278.31 1064.81 1271.93 1065.1 1265.56 1065.4" stroke="#00FFFF" stroke-width="6" stroke-miterlimit="10" stroke-linecap="round" stroke-linejoin="round"/>
<path d="M180.168 1071.19C190.089 1071.47 200.01 1071.77 209.931 1072C213.238 1072.08 216.544 1072.02 220.166 1072.02C242.008 1101.74 264.099 1130.75 285.048 1160.54C334.686 1231.13 383.876 1302.05 433.084 1372.93C455.687 1405.49 475.578 1439.68 490.84 1476.29C499.885 1498 507.805 1520.21 515.725 1542.38C531.4 1586.31 547.306 1630.13 569.546 1671.3C591.504 1711.96 618.455 1749.16 648.003 1784.61C679.684 1822.61 714.969 1856.74 754.686 1886.25C778.314 1903.81 803.166 1919.37 829.505 1932.53" stroke="#00FFFF" stroke-width="6" stroke-miterlimit="10" stroke-linecap="round" stroke-linejoin="round"/>
<path d="M512.483 218.109C540.89 230.428 566.304 247.756 590.957 266.126C637.668 300.915 677.583 342.583 713.364 388.384C743.111 426.447 769.698 466.627 789.094 510.874C804.14 545.2 816.69 580.618 829.835 615.754C843.609 652.577 855.712 690.21 876.397 723.892C897.545 758.334 919.586 792.279 942.503 825.58C977.706 876.706 1013.83 927.187 1049.86 977.75C1067.7 1002.8 1086.14 1027.42 1104.38 1052.17C1110.81 1060.92 1117.49 1069.49 1124.04 1078.12C1107.27 1104.08 1090.59 1129.16 1074.68 1154.74C1046.85 1199.48 1019.36 1244.44 991.976 1289.45C963.321 1336.59 937.163 1385.15 913.601 1435C898.934 1466.02 886.169 1497.95 871.239 1532.49C868.262 1535.4 861.698 1535.68 854.72 1534.1" stroke="#00FFFF" stroke-width="6" stroke-miterlimit="10" stroke-linecap="round" stroke-linejoin="round"/>
<path d="M563.725 281.751C568.487 279.04 571.314 282.793 574.456 285.075C604.764 307.116 631.931 332.629 657.13 360.292C688.81 395.081 716.704 432.83 741.143 472.893C756.851 498.638 769.864 526.069 780.33 554.526C796.766 599.203 812.209 644.293 830.265 688.292C844.568 723.147 864.129 755.556 885.326 786.79C920.181 838.147 954.739 889.702 990.438 940.464C1021.62 984.827 1054.21 1028.2 1086.16 1072.01C1088.14 1074.73 1090.08 1077.49 1092.37 1080.71C1084.57 1092.88 1076.6 1105.12 1068.81 1117.49C1032.68 1174.78 995.663 1231.54 960.824 1289.61C936.303 1330.5 913.931 1372.77 892.188 1415.23C878.2 1442.53 867.105 1471.3 854.671 1499.39C853.679 1501.64 852.488 1503.8 851.38 1506" stroke="#00FFFF" stroke-width="6" stroke-miterlimit="10" stroke-linecap="round" stroke-linejoin="round"/>
<path d="M850.571 1506.83C844.321 1512.04 848.785 1519.15 850.323 1523.13C855.25 1535.87 849.546 1548.2 851.265 1560.57C851.778 1564.26 850.637 1568.17 850.29 1571.65C863.981 1577.52 864.179 1578.92 854.242 1596.07C837.905 1592.25 821.089 1590.71 804.273 1595.27" stroke="#00FFFF" stroke-width="6" stroke-miterlimit="10" stroke-linecap="round" stroke-linejoin="round"/>
<path d="M819.981 191.653C857.664 215.447 883.607 248.996 901.895 289.159C911.485 310.241 918.38 332.1 924.332 354.438C929.409 373.519 932.368 392.815 933.989 412.36C935.94 435.756 938.007 459.17 938.784 482.632C939.247 496.918 937.544 511.287 936.469 525.606C936.006 531.807 938.9 535.957 943.166 539.661C962.875 556.774 984.717 570.664 1009.35 579.146C1040.49 589.86 1072.15 599.07 1103.52 609.124C1137.45 620.003 1171.2 631.528 1205.24 642.028C1229.71 649.568 1253.51 658.662 1276.23 670.401C1281.93 673.345 1286.77 677.974 1292 681.843" stroke="#00FFFF" stroke-width="6" stroke-miterlimit="10" stroke-linecap="round" stroke-linejoin="round"/>
<path d="M523.5 180C577.833 151.5 713.7 114.3 822.5 193.5" stroke="#00FFFF" stroke-width="5"/>
<path d="M523.5 180C577.833 151.5 713.7 114.3 822.5 193.5" stroke="#00FFFF" stroke-width="5"/>
<path d="M57 1471.28C59.4141 1479.13 66.2264 1482.41 72.7576 1485.2C95.493 1494.91 118.096 1505.04 141.394 1513.2C172.462 1524.08 204.06 1533.52 235.576 1543.12C263.85 1551.74 292.488 1559.18 320.647 1568.14C349.649 1577.38 376.088 1591.74 399.237 1611.79C405.652 1617.35 407.141 1623.76 407.025 1632.48C406.628 1663.05 407.025 1693.67 408.563 1724.21C409.604 1744.96 413.06 1765.58 415.59 1787.76C387.084 1795.96 357.983 1804.26 328.981 1812.77C325.74 1813.73 322.896 1815.98 319.853 1817.63" stroke="#00FFFF" stroke-width="6" stroke-miterlimit="10" stroke-linecap="round" stroke-linejoin="round"/>
<path d="M500.909 747.156C502.562 757.358 504.795 767.494 505.754 777.746C508.796 810.236 511.491 842.76 514.087 875.284C515.443 892.348 516.303 909.445 517.444 926.526C519.064 950.501 520.106 974.543 522.553 998.435C526.025 1032.3 526.406 1066.23 525.43 1100.12C524.818 1121.64 522.603 1143.43 514.749 1163.7C504.629 1189.83 484.738 1206.96 459.572 1218.35C455.422 1220.23 451.305 1222.2 447.171 1224.14" stroke="#00FFFF" stroke-width="6" stroke-miterlimit="10" stroke-linecap="round" stroke-linejoin="round"/>
<path d="M896.868 929.005C869.305 939.257 845.643 954.634 832.597 982.016C824.611 998.766 820.973 1017.12 820.13 1035.65C819.006 1060.42 818.03 1085.26 818.576 1110.04C819.088 1133.49 821.684 1156.89 823.272 1180.32C824.462 1197.94 825.206 1215.6 826.661 1233.21C828.563 1256.11 831.142 1278.95 833.159 1301.83C834.515 1317.24 835.425 1332.69 836.516 1348.11C837.624 1363.82 838.583 1379.53 839.939 1395.22C840.203 1398.33 842.022 1401.29 843.13 1404.33" stroke="#00FFFF" stroke-width="6" stroke-miterlimit="10" stroke-linecap="round" stroke-linejoin="round"/>
<path d="M490.162 612.414C481.134 612.133 474.272 616.746 469.626 620.681C461.59 640.506 455.191 658.661 446.99 675.973C431.331 709.043 415.458 742.063 398.163 774.306C380.14 807.904 360.612 840.693 341.3 873.597C303.551 937.901 263.702 1000.9 222.398 1062.99C220.662 1065.6 220.116 1068.99 219.008 1072.03" stroke="#00FFFF" stroke-width="6" stroke-miterlimit="10" stroke-linecap="round" stroke-linejoin="round"/>
<path d="M909.27 1517.58C914.131 1519.64 918.562 1520.54 924.217 1518.64C945.514 1511.46 967.141 1505.24 988.603 1498.51C991.514 1497.6 994.143 1495.82 996.887 1494.45" stroke="#00FFFF" stroke-width="6" stroke-miterlimit="10" stroke-linecap="round" stroke-linejoin="round"/>
<path d="M1256.86 1096.82C1258.93 1089.38 1261.87 1082.05 1262.9 1074.48C1266.68 1046.68 1248.31 1029.22 1229.99 1023.24C1205.99 1015.4 1182.46 1030.2 1173.41 1046.19C1164.93 1061.22 1167.71 1075.36 1171.3 1090.2" stroke="#00FFFF" stroke-width="6" stroke-miterlimit="10" stroke-linecap="round" stroke-linejoin="round"/>
<path d="M901.002 1524.19C892.784 1527.5 884.467 1530.31 875.373 1529.15" stroke="#00FFFF" stroke-width="6" stroke-miterlimit="10" stroke-linecap="round" stroke-linejoin="round"/>
<path d="M466.185 623.162C458.199 625.097 450.196 627.015 442.21 628.949" stroke="#00FFFF" stroke-width="6" stroke-miterlimit="10" stroke-linecap="round" stroke-linejoin="round"/>
<path d="M177.687 1073.67C174.81 1089.66 167.816 1102.92 152.885 1110.86C125.652 1125.34 91.326 1113.53 82.6618 1080.27C77.569 1060.74 85.0097 1045.33 99.1635 1032.33C102.173 1029.55 105.215 1026.83 108.258 1024.06" stroke="#00FFFF" stroke-width="6" stroke-miterlimit="10" stroke-linecap="round" stroke-linejoin="round"/>
<path d="M347.153 657.868C357.355 654.28 367.475 650.46 377.759 647.187C392.293 642.557 407.125 638.82 421.461 633.628C426.471 631.826 429.943 632.603 433.961 634.719" stroke="#00FFFF" stroke-width="6" stroke-miterlimit="10" stroke-linecap="round" stroke-linejoin="round"/>
<path d="M847.265 1508.48C840.105 1504.07 832.929 1499.67 825.77 1495.26" stroke="#00FFFF" stroke-width="6" stroke-miterlimit="10" stroke-linecap="round" stroke-linejoin="round"/>
<path d="M811.714 1492.77C802.338 1493.6 792.98 1494.51 783.605 1495.24C736.084 1498.98 694.962 1515.77 665.513 1554.86C649.259 1576.44 642.034 1601.64 639.768 1628.34C635.139 1683.19 656.006 1729.82 687.025 1772.91C696.615 1786.22 707.759 1798.42 718.358 1810.99C720.342 1813.33 723.104 1815.04 725.997 1817.44C737.109 1808.95 749.659 1812.71 761.233 1814.69C785.39 1818.82 806.819 1829.6 823.106 1848.4C829.703 1856.01 834.267 1865.35 839.856 1873.85C840.699 1875.13 842.022 1876.08 843.13 1877.18" stroke="#00FFFF" stroke-width="6" stroke-miterlimit="10" stroke-linecap="round" stroke-linejoin="round"/>
<path d="M564.551 286.712C570.884 292.218 577.382 297.576 583.533 303.28C597.406 316.128 611.642 328.645 624.787 342.203C655.36 373.735 680.344 408.888 694.448 451.184C709.396 496.043 710.041 539.777 687.785 582.685C672.49 612.183 648.234 631.231 618.273 643.781C593.718 654.066 567.891 658.084 541.419 658.762C538.095 658.844 534.805 659.803 531.498 660.349" stroke="#00FFFF" stroke-width="6" stroke-miterlimit="10" stroke-linecap="round" stroke-linejoin="round"/>
<path d="M520.735 658.282C509.16 652.693 499.289 645.153 492.89 633.496C493.039 632.272 493.651 630.536 493.403 628.949C491.369 615.936 491.17 603.022 494.114 590.042C494.742 587.281 493.188 584.024 492.625 580.981" stroke="#00FFFF" stroke-width="6" stroke-miterlimit="10" stroke-linecap="round" stroke-linejoin="round"/>
<path d="M460.399 819.893C464.715 817.528 469.047 815.164 472.685 813.163C480.175 813.51 480.406 819.231 480.869 823.216C482.969 841.636 484.209 860.138 486.078 878.575C487.45 892.1 489.567 905.559 490.923 919.085C492.328 933.106 493.353 947.177 494.263 961.232C495.767 984.364 497.57 1007.51 498.281 1030.68C498.959 1052.7 498.628 1074.76 498.363 1096.8C498.165 1114.06 495.734 1130.85 489.6 1147.33C483.317 1164.2 471.825 1175.54 457.059 1184.37C451.57 1187.64 445.634 1190.17 438.392 1193.79C443.617 1217.11 449.023 1241.2 454.728 1266.65C471.23 1276.72 466.666 1292.66 462.896 1308.43C467.327 1314.1 473.197 1314.1 478.488 1312.79C518.618 1269.66 558.186 1227.13 598.151 1184.15C621.696 1199.08 646.846 1204.59 673.698 1202.57C680.891 1202.03 688.761 1202.62 695.061 1199.83C716.11 1190.52 736.894 1180.58 751.494 1161.35C771.303 1135.24 779.488 1106.08 776.164 1073.67C772.46 1037.62 753.793 1010.27 723.17 987.787C717.168 985.389 708.702 981.901 700.154 978.61C680.477 971.037 660.189 971.186 639.818 974.509C589.685 982.711 560.269 1018.91 551.126 1057.27C542.18 1094.85 547.587 1131.47 574.556 1162.05C580.21 1168.46 586.642 1174.2 592.661 1180.3C594.166 1181.82 595.439 1183.59 596.811 1185.25" stroke="#00FFFF" stroke-width="6" stroke-miterlimit="10" stroke-linecap="round" stroke-linejoin="round"/>
<path d="M907.614 888.099C902.422 887.338 897.214 886.578 889.79 885.486C893.312 911.297 901.612 934.545 905.316 958.256C896.321 963.2 888.219 967.4 880.365 972.029C862.739 982.43 854.984 999.444 850.652 1018.29C842.748 1052.64 844.104 1087.64 845.08 1122.43C845.94 1153.33 848.899 1184.19 851.528 1215.01C853.099 1233.53 855.993 1251.93 857.96 1270.42C859.366 1283.61 859.961 1296.89 861.416 1310.08C862.425 1319.26 864.244 1328.34 865.881 1338.49C852.57 1354.68 843.592 1372.73 858.043 1395.19C859.862 1395.6 862.656 1396.25 865.451 1396.87" stroke="#00FFFF" stroke-width="6" stroke-miterlimit="10" stroke-linecap="round" stroke-linejoin="round"/>
<path d="M457.093 886.858C458.466 891.819 460.516 896.697 461.111 901.756C463.079 918.804 464.517 935.917 466.204 952.998C467.824 969.532 470.47 986.034 470.949 1002.6C471.743 1030.13 471.049 1057.71 471.214 1085.26C471.297 1099.18 468.568 1112.53 464.6 1125.79C459.408 1143.13 448.958 1155.68 432.308 1162.97" stroke="#00FFFF" stroke-width="6" stroke-miterlimit="10" stroke-linecap="round" stroke-linejoin="round"/>
<path d="M911.749 990.184C889.328 998.733 880.73 1017.45 876.249 1038.96C870.792 1065.15 870.214 1091.77 871.47 1118.3C872.694 1144.24 875.488 1170.13 877.935 1196.01C879.837 1216.15 882.234 1236.25 884.566 1256.34C884.863 1258.89 886.153 1261.3 886.98 1263.79" stroke="#00FFFF" stroke-width="6" stroke-miterlimit="10" stroke-linecap="round" stroke-linejoin="round"/>
<path d="M429.809 900.914C432.57 923.236 435.199 945.574 438.109 967.863C442.474 1001.36 443.83 1035.01 442.871 1068.71C442.425 1084.35 440.837 1099.98 435.728 1115.06C433.496 1121.62 430.139 1126.7 424.021 1129.89" stroke="#00FFFF" stroke-width="6" stroke-miterlimit="10" stroke-linecap="round" stroke-linejoin="round"/>
<path d="M516.618 253.659C515.245 255.312 513.757 256.9 512.5 258.636C509.144 263.282 505.787 267.928 502.596 272.69C500.248 276.179 497.884 279.701 496.015 283.438C491.617 292.202 496.809 300.519 497.619 309.034" stroke="#00FFFF" stroke-width="6" stroke-miterlimit="10" stroke-linecap="round" stroke-linejoin="round"/>
<path d="M497.603 309.861C496.611 322.659 502.894 333.258 507.094 344.733C511.591 357.035 508.929 370.378 506.895 383.457C501.952 415.171 483.714 439.973 466.203 465.271C462.814 470.166 458.73 474.845 456.514 480.252C454.53 485.096 453.984 490.851 461.193 493.463C466.038 495.216 470.783 497.464 475.231 500.077C480.109 502.937 484.607 506.443 490.08 510.229C485.483 520.613 481.333 530.005 477.034 539.727C481.366 545.614 485.466 551.219 489.484 556.692C486.905 561.884 484.474 566.729 481.581 572.565C484.987 575.542 488.079 578.253 491.006 580.816C502.051 573.971 515.973 574.434 524.191 561.851C514.253 545.779 500.017 536.404 481.068 533.891" stroke="#00FFFF" stroke-width="6" stroke-miterlimit="10" stroke-linecap="round" stroke-linejoin="round"/>
<path d="M948.936 1128.23C946.174 1120.51 943.314 1112.84 940.718 1105.07C939.362 1101.02 938.469 1096.82 937.361 1092.68" stroke="#00FFFF" stroke-width="6" stroke-miterlimit="10" stroke-linecap="round" stroke-linejoin="round"/>
<path d="M933.227 1076.15C929.408 1058.65 925.605 1041.14 921.752 1023.52C910.823 1025.77 908.491 1033.67 906.987 1040.65C900.025 1072.84 899.281 1105.4 902.539 1138.15C904.672 1159.6 905.664 1181.16 907.681 1202.61C909.153 1218.35 911.451 1234.02 913.386 1249.73" stroke="#00FFFF" stroke-width="6" stroke-miterlimit="10" stroke-linecap="round" stroke-linejoin="round"/>
<path d="M518.271 695.898C530.126 706.1 541.915 716.352 553.82 726.471C599.258 765.08 644.695 803.688 690.232 842.165C701.046 851.308 712.273 859.956 724.31 869.612C755.396 836.526 785.688 804.267 816.922 771.032C813.185 768.882 810.605 767.758 808.439 766.105C792.252 753.637 786.597 734.904 796.832 715.723C797.708 714.086 798.485 712.416 799.312 710.763" stroke="#00FFFF" stroke-width="6" stroke-miterlimit="10" stroke-linecap="round" stroke-linejoin="round"/>
<path d="M623.25 1285.3C665.133 1320.02 707.247 1354.46 748.815 1389.57C771.914 1409.08 794.054 1429.73 816.74 1449.75C819.7 1452.36 823.304 1454.22 826.611 1456.42" stroke="#00FFFF" stroke-width="6" stroke-miterlimit="10" stroke-linecap="round" stroke-linejoin="round"/>
<path d="M415.754 1787.89C417.688 1793.96 420.003 1799.93 421.475 1806.09C431.644 1848.67 449.22 1887.84 477.131 1921.64C492.029 1939.68 509.523 1955.44 530.638 1966.5C532.175 1967.31 533.415 1968.66 534.788 1969.77" stroke="#00FFFF" stroke-width="6" stroke-miterlimit="10" stroke-linecap="round" stroke-linejoin="round"/>
<path d="M855.117 1596.1C859.069 1601.72 863.021 1607.35 867.204 1613.26C863.963 1619.73 860.987 1625.68 858.011 1631.63C853.762 1640.13 854.754 1643.95 863.004 1648.93C866.361 1650.95 870.28 1652.06 873.686 1654.01C879.308 1657.23 884.715 1660.82 891.626 1665.15C883.458 1677.97 876.844 1690.07 868.593 1700.95C852.902 1721.65 841.542 1744.25 836.681 1769.72C833.407 1786.85 833.275 1803.98 842.105 1820.21C844.734 1825.04 845.048 1831.13 846.437 1836.65" stroke="#00FFFF" stroke-width="6" stroke-miterlimit="10" stroke-linecap="round" stroke-linejoin="round"/>
<path d="M846.437 1837.49C847.264 1842.45 848.371 1847.38 848.834 1852.37C849.231 1856.74 850.174 1861.67 848.686 1865.5C844.337 1876.75 841.559 1889.31 829.108 1895.41C828.331 1895.79 827.984 1897 827.422 1897.83" stroke="#00FFFF" stroke-width="6" stroke-miterlimit="10" stroke-linecap="round" stroke-linejoin="round"/>
<path d="M357.9 1946.61C365.34 1941.1 372.731 1935.51 380.222 1930.09C396.128 1918.56 408.628 1904.41 414.928 1885.43C422.435 1862.84 416.152 1847.89 395.136 1836.58C382.636 1829.85 369.342 1826.41 355.403 1825.24C352.46 1824.99 348.591 1825.85 346.441 1827.7C318.861 1851.4 299.78 1880.05 294.108 1916.83C291.479 1933.79 290.074 1950.33 297.482 1966.48C298.011 1967.62 297.548 1969.21 297.548 1970.58" stroke="#00FFFF" stroke-width="6" stroke-miterlimit="10" stroke-linecap="round" stroke-linejoin="round"/>
<path d="M983.659 209.015C969.141 218.787 954.028 227.848 943.148 242.084C935.906 251.542 929.375 261.314 927.407 273.484C924.2 293.259 930.351 306.123 948.125 315.631C960.262 322.129 973.308 325.816 986.982 327.123C990.537 327.47 994.208 326.577 996.06 326.412C1000.19 322.261 1002.94 319.202 1006 316.507C1029.69 295.706 1042.64 268.804 1049.68 238.761C1053.34 223.185 1055.19 207.378 1049.83 191.653C1049.7 191.24 1050.33 190.562 1050.61 190.016" stroke="#00FFFF" stroke-width="6" stroke-miterlimit="10" stroke-linecap="round" stroke-linejoin="round"/>
<path d="M529.002 662.002C530.937 664.763 532.408 668.037 534.855 670.187C560.368 692.641 586.03 714.897 611.659 737.219" stroke="#00FFFF" stroke-width="6" stroke-miterlimit="10" stroke-linecap="round" stroke-linejoin="round"/>
<path d="M624.077 747.983C643.092 764.237 662.041 780.573 681.139 796.727C701.443 813.907 721.897 830.921 742.284 848.002" stroke="#00FFFF" stroke-width="6" stroke-miterlimit="10" stroke-linecap="round" stroke-linejoin="round"/>
<path d="M815.021 1488.64C801.247 1475.96 787.672 1463.06 773.634 1450.68C756.206 1435.28 738.415 1420.3 720.772 1405.16" stroke="#00FFFF" stroke-width="6" stroke-miterlimit="10" stroke-linecap="round" stroke-linejoin="round"/>
<path d="M719.962 1404.33C700.765 1387.7 681.568 1371.06 661.363 1353.55C658.668 1356.93 655.791 1359.7 653.906 1363.04C629.55 1406.25 605.327 1449.52 581.12 1492.81C578.722 1497.11 576.688 1501.61 574.473 1506.02" stroke="#00FFFF" stroke-width="6" stroke-miterlimit="10" stroke-linecap="round" stroke-linejoin="round"/>
<path d="M1158.91 1426.65C1148.56 1438.86 1134.47 1444.48 1120.27 1451.07C1088.84 1465.66 1055.49 1474.59 1023.38 1487.09C1018.03 1489.17 1013.27 1489.04 1008.46 1486.18" stroke="#00FFFF" stroke-width="6" stroke-miterlimit="10" stroke-linecap="round" stroke-linejoin="round"/>
<path d="M776.18 584.305C764.54 587.364 756.801 597.748 754.635 612.398C752.519 626.651 759.976 636.291 770.939 644.872C762.506 659.869 754.404 674.122 746.434 688.458C727.932 721.775 709.528 755.159 690.976 788.444C689.158 791.701 686.628 794.528 684.412 797.571" stroke="#00FFFF" stroke-width="6" stroke-miterlimit="10" stroke-linecap="round" stroke-linejoin="round"/>
<path d="M863.798 839.735C862.69 841.669 861.913 843.902 860.442 845.472C817.799 891.274 775.073 936.992 732.347 982.728C730.478 984.712 728.494 986.597 726.576 988.515" stroke="#00FFFF" stroke-width="6" stroke-miterlimit="10" stroke-linecap="round" stroke-linejoin="round"/>
<path d="M173.554 866.19C176.58 862.337 179.672 858.518 182.631 854.599C188.055 847.406 191.941 839.866 186.881 830.359C200.621 820.107 200.506 806.879 195.297 792.66C165.005 768.138 132.68 746.842 96.2207 732.886C82.3811 740.162 80.7607 750.678 89.8713 777.993C116.625 791.783 144.684 806.218 172.711 820.736C177.754 823.348 182.648 826.225 187.608 828.986" stroke="#00FFFF" stroke-width="6" stroke-miterlimit="10" stroke-linecap="round" stroke-linejoin="round"/>
<path d="M499.255 314.821C501.454 316.475 504 317.831 505.819 319.831C522.288 338.003 541.65 351.314 565.328 358.853C585.219 365.203 604.945 364.674 624.886 360.953C628.689 360.242 632.079 357.266 635.667 355.348" stroke="#00FFFF" stroke-width="6" stroke-miterlimit="10" stroke-linecap="round" stroke-linejoin="round"/>
<path d="M1155.6 1323.72C1144.21 1334.77 1143.68 1337.28 1148.25 1359.22C1178.55 1383.88 1210.83 1405.75 1248.33 1419.53C1256.37 1415.89 1259.57 1409.62 1259.85 1401.02C1260.17 1391.55 1259.84 1382.14 1252.2 1375.54C1246.53 1370.65 1239.95 1366.58 1233.27 1363.09C1211.64 1351.8 1189.78 1340.95 1168.02 1329.91C1164.4 1328.07 1160.84 1326.06 1157.27 1324.14" stroke="#00FFFF" stroke-width="6" stroke-miterlimit="10" stroke-linecap="round" stroke-linejoin="round"/>
<path d="M333.099 1061.27C338.059 1061.27 343.019 1061.27 350.328 1061.27C356.049 1059.53 364.366 1057 374.204 1054.01C375.874 1056.89 378.47 1059.7 379.264 1062.95C388.556 1101.2 397.617 1139.51 406.596 1177.84C407.406 1181.29 407.224 1184.98 407.489 1188.57" stroke="#00FFFF" stroke-width="6" stroke-miterlimit="10" stroke-linecap="round" stroke-linejoin="round"/>
<path d="M1208.5 1672.99C1209.04 1668.57 1211.21 1663.56 1209.84 1659.88C1206.27 1650.3 1210.78 1643.31 1216.98 1638.55C1227.1 1630.81 1231.78 1620.04 1236.44 1609.26C1242.13 1596.08 1243.14 1581.95 1239.75 1568.04C1237.01 1556.78 1228.84 1549.52 1218.4 1544.89C1215.46 1543.59 1212.35 1542.66 1209.33 1541.55" stroke="#00FFFF" stroke-width="6" stroke-miterlimit="10" stroke-linecap="round" stroke-linejoin="round"/>
<path d="M1193.62 1542.79C1174.54 1540.43 1160.28 1547.27 1153.87 1561.36C1150.21 1569.4 1152.69 1577.12 1154.99 1584.46C1157.59 1592.76 1162.09 1600.45 1165.48 1608.52C1175.15 1631.5 1164.65 1649.59 1143.19 1658.93C1140.71 1660.02 1138.23 1661.13 1135.75 1662.24" stroke="#00FFFF" stroke-width="6" stroke-miterlimit="10" stroke-linecap="round" stroke-linejoin="round"/>
<path d="M502.562 277.618C506.977 284.232 511.028 291.111 515.856 297.41C534.194 321.353 558.268 335.258 588.543 337.97C593.785 338.433 599.043 339.657 604.235 339.425C608.402 339.243 612.502 337.408 616.636 336.3" stroke="#00FFFF" stroke-width="6" stroke-miterlimit="10" stroke-linecap="round" stroke-linejoin="round"/>
<path d="M776.181 698.378C768.74 711.061 761.217 723.677 753.875 736.408C740.581 759.508 727.403 782.689 714.175 805.838C711.976 809.691 709.761 813.56 707.562 817.412" stroke="#00FFFF" stroke-width="6" stroke-miterlimit="10" stroke-linecap="round" stroke-linejoin="round"/>
<path d="M637.304 1336.54C630.409 1347.57 623.166 1358.38 616.701 1369.64C601.605 1395.96 586.889 1422.52 571.958 1448.94C570.801 1450.98 569.098 1452.71 567.362 1454.96C575.993 1471.03 572.835 1486.29 562.6 1502.25C561.442 1502.63 558.863 1503.49 556.3 1504.35" stroke="#00FFFF" stroke-width="6" stroke-miterlimit="10" stroke-linecap="round" stroke-linejoin="round"/>
<path d="M335.578 666.135C331.031 663.39 326.633 663.341 321.49 665.193C292.372 675.626 263.106 685.663 233.939 695.964C231.541 696.807 229.507 698.642 227.308 700.031" stroke="#00FFFF" stroke-width="6" stroke-miterlimit="10" stroke-linecap="round" stroke-linejoin="round"/>
<path d="M226.465 700.031C215.932 699.965 207.665 706.215 199.414 711.143C193.329 714.78 189.278 721.791 184.318 727.314" stroke="#00FFFF" stroke-width="6" stroke-miterlimit="10" stroke-linecap="round" stroke-linejoin="round"/>
<path d="M716.655 232.164C714.588 220.705 707.048 213.794 696.813 213.976C687.636 214.141 679.154 221.499 677.815 230.51C676.525 239.142 682.263 251.427 694.35 252.7C706.453 253.957 716.672 245.921 715.878 235.471C715.812 234.677 716.39 233.817 716.655 232.991" fill="#00FFFF"/>
<path d="M716.655 232.164C714.588 220.705 707.048 213.794 696.813 213.976C687.636 214.141 679.154 221.499 677.815 230.51C676.525 239.142 682.263 251.427 694.35 252.7C706.453 253.957 716.672 245.921 715.878 235.471C715.812 234.677 716.39 233.817 716.655 232.991" stroke="black" stroke-width="6" stroke-miterlimit="10" stroke-linecap="round" stroke-linejoin="round"/>
<path d="M407.487 1559.74C417.176 1559.38 423.41 1554.33 424.849 1545.69C426.519 1535.68 420.401 1524.61 411.621 1521.71C404.031 1519.22 393.102 1524.29 388.472 1532.46C383.776 1540.74 387.034 1550.2 397.98 1559.25C400.576 1559.64 403.618 1560.11 406.66 1560.57" fill="#00FFFF"/>
<path d="M407.487 1559.74C417.176 1559.38 423.41 1554.33 424.849 1545.69C426.519 1535.68 420.401 1524.61 411.621 1521.71C404.031 1519.22 393.102 1524.29 388.472 1532.46C383.776 1540.74 387.034 1550.2 397.98 1559.25C400.576 1559.64 403.618 1560.11 406.66 1560.57" stroke="black" stroke-width="6" stroke-miterlimit="10" stroke-linecap="round" stroke-linejoin="round"/>
<path d="M837.343 366.079C834.863 366.079 832.383 366.079 829.903 366.079C816.328 374.975 816.294 385.574 820.097 393.312C824.281 401.827 835.442 406.639 843.13 404.109C852.109 401.149 858.078 390.336 856.358 380.134C855.184 373.156 846.818 366.377 838.997 366.079" fill="#00FFFF"/>
<path d="M837.343 366.079C834.863 366.079 832.383 366.079 829.903 366.079C816.328 374.975 816.294 385.574 820.097 393.312C824.281 401.827 835.442 406.639 843.13 404.109C852.109 401.149 858.078 390.336 856.358 380.134C855.184 373.156 846.818 366.377 838.997 366.079" stroke="black" stroke-width="6" stroke-miterlimit="10" stroke-linecap="round" stroke-linejoin="round"/>
<path d="M645.571 1900.31C636.907 1899.04 633.65 1906.1 629.086 1910.73C626.854 1927.26 632.211 1937.08 643.918 1938.34C655.162 1939.53 665.579 1931.43 666.24 1920.98C667.017 1908.72 659.395 1900.44 647.225 1900.31" fill="#00FFFF"/>
<path d="M645.571 1900.31C636.907 1899.04 633.65 1906.1 629.086 1910.73C626.854 1927.26 632.211 1937.08 643.918 1938.34C655.162 1939.53 665.579 1931.43 666.24 1920.98C667.017 1908.72 659.395 1900.44 647.225 1900.31" stroke="black" stroke-width="6" stroke-miterlimit="10" stroke-linecap="round" stroke-linejoin="round"/>
<path d="M1203.13 1453.92C1202.71 1456.94 1201.89 1459.99 1201.95 1463.01C1202.36 1482.03 1203.44 1501.04 1203.32 1520.06C1203.27 1528.57 1200.98 1537.09 1199.8 1544.93C1221.08 1571.7 1214.07 1599.18 1204.27 1626.66C1201.93 1633.19 1199.65 1640.22 1195.45 1645.52C1185.42 1658.24 1174.54 1670.46 1156.4 1671.35C1148.87 1671.71 1142.36 1669.52 1136.51 1664.79C1134.64 1663.27 1132.16 1662.52 1129.94 1661.41" stroke="#00FFFF" stroke-width="6" stroke-miterlimit="10" stroke-linecap="round" stroke-linejoin="round"/>
<path d="M723.269 868.67C715.282 878.046 707.561 887.669 699.244 896.73C677.352 920.573 655.178 944.152 633.237 967.929C631.897 969.384 631.517 971.732 630.69 973.65" stroke="#00FFFF" stroke-width="6" stroke-miterlimit="10" stroke-linecap="round" stroke-linejoin="round"/>
<path d="M691.853 1202.62C684.694 1211.17 677.782 1219.94 670.308 1228.2C656.171 1243.81 641.521 1258.96 627.45 1274.6C618.554 1284.49 610.667 1295.28 601.656 1305.02C593.058 1314.3 583.401 1322.58 574.522 1331.61C561.146 1345.24 548 1359.09 534.839 1372.93C532.689 1375.2 530.953 1377.86 529.019 1380.34" stroke="#00FFFF" stroke-width="6" stroke-miterlimit="10" stroke-linecap="round" stroke-linejoin="round"/>
<path d="M165.287 485.939C164.179 487.593 163.385 489.61 161.93 490.85C142.601 507.385 136.268 530.567 132.779 553.815C130.117 571.557 128.927 591.018 144.618 602.94C144.618 609.686 144.949 614.398 144.552 619.028C142.998 637.2 144.155 655.404 143.808 673.593C143.692 679.38 143.957 685.167 143.709 690.954C143.593 693.732 142.683 696.46 142.138 699.222" stroke="#00FFFF" stroke-width="6" stroke-miterlimit="10" stroke-linecap="round" stroke-linejoin="round"/>
<path d="M409.141 900.086C411.72 900.996 414.316 901.922 416.019 902.517C431.033 926.906 420.335 946.896 403.502 967.234C399.286 970.012 392.953 974.179 387.364 977.85C387.761 984.1 388.125 989.622 388.472 995.145" stroke="#00FFFF" stroke-width="6" stroke-miterlimit="10" stroke-linecap="round" stroke-linejoin="round"/>
<path d="M397.153 1029.04C400.047 1038.83 402.94 1048.6 405.851 1058.37C405.983 1058.84 406.38 1059.2 406.661 1059.61" stroke="#00FFFF" stroke-width="6" stroke-miterlimit="10" stroke-linecap="round" stroke-linejoin="round"/>
<path d="M412.034 1080.28C414.928 1094.62 417.656 1108.97 420.765 1123.26C422.947 1133.24 425.543 1143.15 428.172 1153.02C431.628 1166 435.299 1178.93 438.887 1191.88" stroke="#00FFFF" stroke-width="6" stroke-miterlimit="10" stroke-linecap="round" stroke-linejoin="round"/>
<path d="M113.219 485.113C116.509 494.934 119.783 504.773 123.156 514.842C120.758 518.43 118.659 521.622 116.526 524.78C104.902 541.976 101.231 560.759 105.844 580.981C108.258 591.547 114.591 599.104 124.776 603.37C128.513 604.94 131.969 607.173 135.541 609.091" stroke="#00FFFF" stroke-width="6" stroke-miterlimit="10" stroke-linecap="round" stroke-linejoin="round"/>
<path d="M207.45 488.42C204.689 490.073 202.109 492.19 199.15 493.298C183.012 499.416 170.611 520.828 180.135 542.158C184.169 551.169 188.352 560.164 191.626 569.457C196.818 584.206 194.206 591.58 181.821 600.856C179.787 602.378 177.936 604.13 175.968 607.735C166.064 607.371 156.159 606.991 146.255 606.627" stroke="#00FFFF" stroke-width="6" stroke-miterlimit="10" stroke-linecap="round" stroke-linejoin="round"/>
<path d="M708.388 1796.16C742.482 1782.3 774.824 1788.19 805.877 1805.37C818.493 1812.34 829.488 1821.59 838.252 1833.31C839.971 1835.61 842.584 1837.21 844.8 1839.15" stroke="#00FFFF" stroke-width="6" stroke-miterlimit="10" stroke-linecap="round" stroke-linejoin="round"/>
<path d="M1026.65 332.183C1023.21 338.995 1015.77 339.144 1010.03 341.013C983.495 349.611 956.659 357.266 929.938 365.253" stroke="#00FFFF" stroke-width="6" stroke-miterlimit="10" stroke-linecap="round" stroke-linejoin="round"/>
<path d="M405.834 967.862C407.206 973.104 409.372 978.263 409.835 983.587C411.803 1006.7 413.44 1029.85 414.746 1053.02C414.928 1056.26 412.712 1059.61 411.621 1062.92" stroke="#00FFFF" stroke-width="6" stroke-miterlimit="10" stroke-linecap="round" stroke-linejoin="round"/>
<path d="M934.055 1091.03C932.947 1093.23 930.914 1095.43 930.897 1097.64C930.864 1110.87 930.847 1124.12 931.707 1137.31C932.451 1148.92 934.171 1160.49 935.791 1172.03C936.42 1176.52 937.924 1180.86 939.016 1185.28" stroke="#00FFFF" stroke-width="6" stroke-miterlimit="10" stroke-linecap="round" stroke-linejoin="round"/>
<path d="M1254.8 1375.39C1263.46 1367.33 1271.2 1358.66 1269.56 1345.65C1268.9 1340.32 1267.05 1335.13 1265.68 1329.68C1268.01 1325.53 1270.57 1321.16 1272.95 1316.7C1279.47 1304.49 1276.9 1291.99 1266.35 1284.47C1246.26 1270.15 1224.55 1258.92 1201.01 1251.53C1196.33 1250.06 1191.14 1250.29 1185.85 1249.71C1176.02 1255.68 1171.82 1265.44 1169.74 1276.24C1168.5 1282.63 1170.83 1287.28 1177.86 1289.56C1190.13 1293.53 1202.55 1297.42 1214.17 1302.87C1231.33 1310.93 1247.88 1320.3 1264.68 1329.13" stroke="#00FFFF" stroke-width="6" stroke-miterlimit="10" stroke-linecap="round" stroke-linejoin="round"/>
<path d="M88.4165 777.745C79.1736 785.516 73.3698 795.074 74.5107 807.491C74.9737 812.534 77.0736 817.429 78.5783 822.935C89.6566 829.251 100.586 836.708 112.491 841.983C129.439 849.506 147.065 855.541 164.476 862.006C174.612 865.776 175.671 869.034 173.554 879.401C171.504 889.487 166.494 897.622 159.781 901.888C153.679 902.169 149.562 902.368 145.445 902.55" stroke="#00FFFF" stroke-width="6" stroke-miterlimit="10" stroke-linecap="round" stroke-linejoin="round"/>
<path d="M829.903 1894.52C817.171 1866.11 793.758 1850.51 765.433 1840.77C759.977 1838.9 755.794 1841.84 751.379 1844.09" stroke="#00FFFF" stroke-width="6" stroke-miterlimit="10" stroke-linecap="round" stroke-linejoin="round"/>
<path d="M959.683 967.036C956.095 976.957 952.524 986.877 948.936 996.798" stroke="#00FFFF" stroke-width="6" stroke-miterlimit="10" stroke-linecap="round" stroke-linejoin="round"/>
<path d="M951.416 1029.87C953.615 1040.33 955.748 1050.83 958.046 1061.28C961.568 1077.27 965.189 1093.25 968.778 1109.23" stroke="#00FFFF" stroke-width="6" stroke-miterlimit="10" stroke-linecap="round" stroke-linejoin="round"/>
<path d="M161.98 624.815C161.153 627.296 159.632 629.776 159.615 632.256C159.433 657.323 159.499 682.406 159.533 707.473C159.533 708.316 159.88 709.159 160.376 711.342C165.204 707.208 169.156 703.29 173.604 700.098C189.328 688.838 208.558 688.871 219.851 699.205" stroke="#00FFFF" stroke-width="6" stroke-miterlimit="10" stroke-linecap="round" stroke-linejoin="round"/>
<path d="M514.137 258.603C528.373 286.001 549.918 304.305 580.292 311.399C582.839 311.994 585.782 310.969 588.527 310.688" stroke="#00FFFF" stroke-width="6" stroke-miterlimit="10" stroke-linecap="round" stroke-linejoin="round"/>
<path d="M1187 1445.67C1186.72 1452.56 1186.26 1459.44 1186.21 1466.34C1186.09 1483.14 1186.31 1499.95 1186.06 1516.75C1186.01 1520.07 1184.52 1523.36 1183.7 1526.67" stroke="#00FFFF" stroke-width="6" stroke-miterlimit="10" stroke-linecap="round" stroke-linejoin="round"/>
<path d="M158.673 709.126C155.647 708.018 152.108 707.589 149.661 705.704C138.765 697.304 126.049 693.253 113.218 689.218C108.126 687.615 104.058 688.772 100.834 692.625C93.1122 701.867 89.9044 712.119 94.1208 724.024C95.0468 726.637 95.2782 729.514 95.8239 732.275" stroke="#00FFFF" stroke-width="6" stroke-miterlimit="10" stroke-linecap="round" stroke-linejoin="round"/>
<path d="M1248.18 1420.04C1249.29 1425.83 1250.83 1431.56 1251.39 1437.4C1252.38 1447.73 1248.05 1455.92 1239.78 1462.85C1232.39 1463.41 1225.31 1462.48 1218.39 1458.96C1208.61 1453.99 1198.58 1449.52 1188.67 1444.84" stroke="#00FFFF" stroke-width="6" stroke-miterlimit="10" stroke-linecap="round" stroke-linejoin="round"/>
<path d="M1179.58 1439.05C1173.51 1434.92 1166.42 1431.73 1161.61 1426.45C1151.73 1415.59 1136.77 1407.87 1134.47 1391.88C1132.79 1380.11 1137.99 1369.41 1147.34 1361.34" stroke="#00FFFF" stroke-width="6" stroke-miterlimit="10" stroke-linecap="round" stroke-linejoin="round"/>
<path d="M916.692 884.378C914.245 885.552 911.798 886.743 909.07 888.066C900.521 908.618 903.663 928.063 917.684 945.425C923.008 952.022 930.201 957.131 936.534 962.919" stroke="#00FFFF" stroke-width="6" stroke-miterlimit="10" stroke-linecap="round" stroke-linejoin="round"/>
<path d="M850.57 763.691C839.293 768.106 836.648 778.721 833.324 788.526C829.901 798.596 830.993 808.765 835.771 818.206C841.575 829.698 852.967 834.013 864.624 838.494C869.039 838.494 874.264 838.494 879.489 838.494C879.555 838.99 879.621 839.503 879.688 839.999C881.556 838.808 883.441 837.618 885.309 836.427" stroke="#00FFFF" stroke-width="6" stroke-miterlimit="10" stroke-linecap="round" stroke-linejoin="round"/>
<path d="M376.089 1186.92C384.241 1182.52 392.409 1186.47 399.998 1188.06C422.767 1192.83 437.35 1217.62 437.863 1236.52C438.094 1244.75 435.879 1253.04 434.787 1261.31" stroke="#00FFFF" stroke-width="6" stroke-miterlimit="10" stroke-linecap="round" stroke-linejoin="round"/>
<path d="M481.894 1311.75C483.828 1312.86 485.697 1314.07 487.681 1315.04C507.556 1324.77 515.839 1342.82 507.886 1366.43C504.91 1375.28 500.198 1381.48 493.451 1386.97" stroke="#00FFFF" stroke-width="6" stroke-miterlimit="10" stroke-linecap="round" stroke-linejoin="round"/>
<path d="M157.845 904.22C158.507 915.48 159.168 926.757 159.862 938.53C154.274 938.53 150.702 938.53 146.436 938.53C142.567 926.807 145.758 914.538 144.32 901.839C135.408 898.102 125.619 894.779 116.607 890.017C103.082 882.89 89.7054 875.284 76.9571 866.851C66.0441 859.642 64.6221 843.174 72.7572 830.673C74.3446 828.243 76.5602 826.225 78.4948 824.026" stroke="#00FFFF" stroke-width="6" stroke-miterlimit="10" stroke-linecap="round" stroke-linejoin="round"/>
<path d="M925.787 1247.27C918.346 1250.03 910.873 1252.67 903.482 1255.58C900.869 1256.61 898.62 1258.61 895.991 1259.6C884.731 1263.85 880.002 1273.81 876.447 1283.73C872.743 1294.11 873.471 1305.22 877.042 1315.85C878.183 1319.24 880.597 1322.4 880.945 1325.81C881.474 1330.92 884.731 1332.12 888.584 1333.23" stroke="#00FFFF" stroke-width="6" stroke-miterlimit="10" stroke-linecap="round" stroke-linejoin="round"/>
<path d="M457.091 818.239C464.896 825.663 466.599 835.65 467.706 845.538C469.195 858.766 467.277 871.415 457.967 881.931C457.29 882.708 457.24 884.048 456.661 885.933C449.518 889.339 441.251 892.348 434.157 897.077C430.669 899.408 427.692 899.838 424.038 900.186C422.054 900.384 420.169 901.723 418.234 902.55" stroke="#00FFFF" stroke-width="6" stroke-miterlimit="10" stroke-linecap="round" stroke-linejoin="round"/>
<path d="M161.98 710.779C172.728 719.873 183.475 728.968 194.239 738.045C194.405 738.177 194.868 737.946 195.033 738.078C215.801 754.646 213.337 773.744 196.703 790.973" stroke="#00FFFF" stroke-width="6" stroke-miterlimit="10" stroke-linecap="round" stroke-linejoin="round"/>
<path d="M505.042 1377.88C508.63 1378.42 512.4 1379.99 515.757 1379.36C537.186 1375.41 559.904 1406.28 547.966 1429.93C545.288 1435.23 545.8 1443.58 536.442 1443.19" stroke="#00FFFF" stroke-width="6" stroke-miterlimit="10" stroke-linecap="round" stroke-linejoin="round"/>
<path d="M756.339 1757.3C767.616 1770.53 781.637 1778.25 799.329 1777.87C804.935 1777.75 810.771 1776.91 813.384 1770.53" stroke="#00FFFF" stroke-width="6" stroke-miterlimit="10" stroke-linecap="round" stroke-linejoin="round"/>
<path d="M122.312 1017.47C125.074 1018.57 127.752 1020.36 130.596 1020.66C149.33 1022.69 163.798 1031.03 172.777 1048.02C173.587 1049.56 174.943 1050.8 176.051 1052.17" stroke="#00FFFF" stroke-width="6" stroke-miterlimit="10" stroke-linecap="round" stroke-linejoin="round"/>
<path d="M485.201 755.423C493.931 769.015 495.27 783.185 487.549 797.504C484.49 803.176 479.959 808.054 476.106 813.279" stroke="#00FFFF" stroke-width="6" stroke-miterlimit="10" stroke-linecap="round" stroke-linejoin="round"/>
<path d="M587.7 393.345C578.606 387.839 570.041 380.993 560.269 377.19C550.53 373.404 539.551 372.18 530.655 380.944" stroke="#00FFFF" stroke-width="6" stroke-miterlimit="10" stroke-linecap="round" stroke-linejoin="round"/>
<path d="M564.552 1501.87C567.363 1503.61 570.174 1505.32 572.968 1507.06C581.103 1513.72 588.494 1521.38 588.577 1533.29C588.643 1542.81 585.816 1551.01 579.466 1558.14C578.028 1559.76 577.217 1561.96 576.11 1563.87" stroke="#00FFFF" stroke-width="6" stroke-miterlimit="10" stroke-linecap="round" stroke-linejoin="round"/>
<path d="M220.678 490.9C214.66 488.784 209.286 485.956 203.879 482.186C195.231 476.168 184.831 477.49 175.224 481.839C172.43 483.112 169.851 484.865 166.428 486.833C164.824 480.268 163.402 474.431 161.98 468.578" stroke="#00FFFF" stroke-width="6" stroke-miterlimit="10" stroke-linecap="round" stroke-linejoin="round"/>
<path d="M759.646 535.528C753.891 535.065 750.535 537.231 747.889 542.886C740.482 558.643 743.26 571.673 757.198 580.965C760.373 583.082 763.796 584.851 767.103 586.786" stroke="#00FFFF" stroke-width="6" stroke-miterlimit="10" stroke-linecap="round" stroke-linejoin="round"/>
<path d="M1180.41 1441.53C1173.03 1449.19 1165 1455.04 1154.03 1457.57C1143.8 1459.94 1135.65 1457.52 1127.49 1452.28" stroke="#00FFFF" stroke-width="6" stroke-miterlimit="10" stroke-linecap="round" stroke-linejoin="round"/>
<path d="M350.46 1065.4C352.659 1067.05 354.742 1068.91 357.09 1070.33C371.757 1079.21 374.105 1090.55 365.556 1105.22C362.398 1110.64 359.19 1115.07 353.866 1118.48C350.543 1120.61 348.244 1124.36 345.5 1127.41" stroke="#00FFFF" stroke-width="6" stroke-miterlimit="10" stroke-linecap="round" stroke-linejoin="round"/>
<path d="M566.205 1566.36C568.966 1565.56 571.744 1564.78 575.861 1563.61C580.623 1566.9 586.791 1570.16 591.718 1574.74C601.408 1583.75 602.284 1595.85 595.191 1606.88C594.066 1608.62 593.504 1610.72 592.677 1612.64" stroke="#00FFFF" stroke-width="6" stroke-miterlimit="10" stroke-linecap="round" stroke-linejoin="round"/>
<path d="M339.712 1127.41C357.95 1130.02 374.452 1135.99 385.117 1152.24C389.912 1159.55 388.374 1167.55 385.977 1175.34C385.034 1178.42 383.794 1181.41 382.703 1184.44" stroke="#00FFFF" stroke-width="6" stroke-miterlimit="10" stroke-linecap="round" stroke-linejoin="round"/>
<path d="M1166.35 1061.27C1162.22 1060.99 1158.08 1060.59 1153.95 1060.47C1142.11 1060.13 1130.26 1059.86 1118.4 1059.66C1116.75 1059.63 1115.09 1060.18 1113.44 1060.44" stroke="#00FFFF" stroke-width="6" stroke-miterlimit="10" stroke-linecap="round" stroke-linejoin="round"/>
<path d="M857.184 1396.06C850.917 1402.25 842.038 1404.84 837.077 1413.28C830.579 1424.34 826.693 1435.32 828.992 1448.17C829.521 1451.11 829.074 1454.22 829.074 1457.24" stroke="#00FFFF" stroke-width="6" stroke-miterlimit="10" stroke-linecap="round" stroke-linejoin="round"/>
<path d="M514.964 695.898C514.683 700.313 514.021 704.728 514.22 709.126C514.699 719.725 511.69 728.984 505.109 737.285C502.976 739.963 501.504 743.154 500.165 745.387C495.023 748.098 490.327 750.562 484.225 753.786C483.002 753.786 479.976 753.786 476.934 753.786" stroke="#00FFFF" stroke-width="6" stroke-miterlimit="10" stroke-linecap="round" stroke-linejoin="round"/>
<path d="M1187 1248.92C1185.83 1236.59 1185.17 1224.27 1187.63 1212.13C1192.25 1212.13 1195.83 1212.13 1200.1 1212.13C1204.23 1225.03 1200.25 1237.91 1201.06 1250.57" stroke="#00FFFF" stroke-width="6" stroke-miterlimit="10" stroke-linecap="round" stroke-linejoin="round"/>
<path d="M779.487 648.791C777.553 652.644 775.552 656.463 773.716 660.365C766.54 675.66 769.351 698.048 790.202 705.075C793.128 706.068 795.724 708.068 798.932 709.854C801.098 708.862 803.512 707.754 805.926 706.646" stroke="#00FFFF" stroke-width="6" stroke-miterlimit="10" stroke-linecap="round" stroke-linejoin="round"/>
<path d="M879.507 840.561C878.961 843.587 878.482 846.646 877.837 849.655C875.043 862.751 875.092 874.986 887.741 883.585C889.015 884.444 889.974 885.751 891.065 886.858" stroke="#00FFFF" stroke-width="6" stroke-miterlimit="10" stroke-linecap="round" stroke-linejoin="round"/>
<path d="M1000.19 1102.6C991.381 1104.54 982.485 1106.19 973.754 1108.46C961.618 1111.58 953.02 1120.84 948.77 1130.99C944.339 1141.58 945.943 1154.36 951.499 1165.39C953.714 1169.79 956.922 1173.7 959.998 1178.32C962.362 1178.91 965.14 1179.61 967.934 1180.3" stroke="#00FFFF" stroke-width="6" stroke-miterlimit="10" stroke-linecap="round" stroke-linejoin="round"/>
<path d="M1012.59 1031.52C1007.3 1034.46 1002.03 1037.42 999.069 1039.06C994.737 1046.04 991.711 1050.92 987.429 1057.81C987.743 1063.5 986.751 1071.9 988.999 1079.34C991.48 1087.56 996.92 1094.87 1000.9 1102.27C1006.05 1104.65 1010.97 1106.94 1015.9 1109.2" stroke="#00FFFF" stroke-width="6" stroke-miterlimit="10" stroke-linecap="round" stroke-linejoin="round"/>
<path d="M750.551 493.38C734.297 507.121 734.297 525.392 750.551 537.198" stroke="#00FFFF" stroke-width="6" stroke-miterlimit="10" stroke-linecap="round" stroke-linejoin="round"/>
<path d="M1171.31 1092.68C1176.27 1097.36 1180.95 1102.41 1186.26 1106.66C1195.83 1114.33 1206.8 1117.68 1219.28 1116.84C1224.44 1116.49 1229.73 1118.3 1234.97 1119.12" stroke="#00FFFF" stroke-width="6" stroke-miterlimit="10" stroke-linecap="round" stroke-linejoin="round"/>
<path d="M850.571 1572.97C843.957 1575.73 837.194 1578.19 830.779 1581.35C826.976 1583.22 823.702 1586.18 819.089 1589.44C830.299 1606.34 843.941 1616.98 863.782 1618.44" stroke="#00FFFF" stroke-width="6" stroke-miterlimit="10" stroke-linecap="round" stroke-linejoin="round"/>
<path d="M582.74 1615.12C584.394 1614.57 586.014 1613.84 587.717 1613.51C589.04 1613.25 590.462 1613.46 591.834 1613.46C607.774 1625.58 608.452 1643.09 593.488 1656.45" stroke="#00FFFF" stroke-width="6" stroke-miterlimit="10" stroke-linecap="round" stroke-linejoin="round"/>
<path d="M958.857 1177.84C950.871 1181.69 942.487 1184.93 934.981 1189.56C923.919 1196.39 919.537 1207.75 917.603 1220C915.899 1230.8 924.332 1246.75 933.244 1250.57" stroke="#00FFFF" stroke-width="6" stroke-miterlimit="10" stroke-linecap="round" stroke-linejoin="round"/>
<path d="M360.381 1948.67C366.995 1950.19 374.121 1950.64 380.09 1953.48C387.514 1957.04 393.996 1962.58 400.891 1967.26" stroke="#00FFFF" stroke-width="6" stroke-miterlimit="10" stroke-linecap="round" stroke-linejoin="round"/>
<path d="M986.139 205.708C983.658 204.6 981.277 203.013 978.681 202.484C968.926 200.5 959.352 198.234 951.366 191.72C950.109 190.694 948.109 190.546 946.455 190" stroke="#00FFFF" stroke-width="6" stroke-miterlimit="10" stroke-linecap="round" stroke-linejoin="round"/>
<path d="M966.297 964.555C956.988 967.399 948.588 962.984 938.535 961.397C937.808 962.852 935.394 965.415 935.923 966.953C939.643 977.667 938.089 990.118 946.455 999.262" stroke="#00FFFF" stroke-width="6" stroke-miterlimit="10" stroke-linecap="round" stroke-linejoin="round"/>
<path d="M602.581 1305.14C619.116 1318.65 635.717 1332.06 652.119 1345.73C655.079 1348.2 657.146 1351.72 659.626 1354.74" stroke="#00FFFF" stroke-width="6" stroke-miterlimit="10" stroke-linecap="round" stroke-linejoin="round"/>
<path d="M1170.48 1286.95C1160.35 1296.97 1152.66 1307.93 1156.43 1323.33" stroke="#00FFFF" stroke-width="6" stroke-miterlimit="10" stroke-linecap="round" stroke-linejoin="round"/>
<path d="M905.136 960.422C907.335 967.863 909.765 975.237 911.7 982.76C914.66 994.285 917.355 1005.88 919.918 1017.48C920.315 1019.27 919.455 1021.32 919.19 1023.25" stroke="#00FFFF" stroke-width="6" stroke-miterlimit="10" stroke-linecap="round" stroke-linejoin="round"/>
<path d="M176.861 606.627C185.261 616.631 185.608 624.452 179.539 635.663C177.688 639.085 178.233 643.814 177.688 647.948" stroke="#00FFFF" stroke-width="6" stroke-miterlimit="10" stroke-linecap="round" stroke-linejoin="round"/>
<path d="M1167.18 1502.7C1167.05 1507.51 1167.31 1512.04 1164.93 1516.87C1160.3 1526.26 1163.11 1535.78 1167.18 1544.86" stroke="#00FFFF" stroke-width="6" stroke-miterlimit="10" stroke-linecap="round" stroke-linejoin="round"/>
<path d="M996.06 1040.61C992.273 1040.07 988.503 1039.52 984.717 1038.98C984.386 1039.94 984.039 1040.9 983.708 1041.86C973.49 1035.65 963.288 1029.45 953.069 1023.25" stroke="#00FFFF" stroke-width="6" stroke-miterlimit="10" stroke-linecap="round" stroke-linejoin="round"/>
<path d="M1292 1253.05C1284.28 1263.52 1276.57 1274 1268.85 1284.47" stroke="#00FFFF" stroke-width="6" stroke-miterlimit="10" stroke-linecap="round" stroke-linejoin="round"/>
<path d="M490.161 557.023C495.667 557.85 501.157 558.958 506.696 559.42C511.623 559.834 516.6 559.503 521.561 559.503" stroke="#00FFFF" stroke-width="6" stroke-miterlimit="10" stroke-linecap="round" stroke-linejoin="round"/>
<path d="M76.015 867.844C68.0783 876.739 60.2077 885.685 57 897.606" stroke="#00FFFF" stroke-width="6" stroke-miterlimit="10" stroke-linecap="round" stroke-linejoin="round"/>
<path d="M1021.69 329.702C1014.25 328.595 1006.81 327.503 999.366 326.396" stroke="#00FFFF" stroke-width="6" stroke-miterlimit="10" stroke-linecap="round" stroke-linejoin="round"/>
<path d="M1222.55 1636.61C1225.32 1645.16 1228.66 1653.56 1230.57 1662.29C1231.57 1666.77 1234.31 1668.01 1237.44 1669.68" stroke="#00FFFF" stroke-width="6" stroke-miterlimit="10" stroke-linecap="round" stroke-linejoin="round"/>
<path d="M107.431 480.979C114.591 482.914 121.833 484.6 128.893 486.882C131.77 487.824 134.234 490.04 136.499 491.446C135.606 502.16 132.961 510.642 123.139 514.875" stroke="#00FFFF" stroke-width="6" stroke-miterlimit="10" stroke-linecap="round" stroke-linejoin="round"/>
<path d="M142.964 608.281C140.749 608.397 138.533 608.512 136.631 608.611C125.586 628.486 125.322 629.71 130.58 637.217" stroke="#00FFFF" stroke-width="6" stroke-miterlimit="10" stroke-linecap="round" stroke-linejoin="round"/>
<path d="M317.804 1818.48C319.044 1823.82 323.277 1823.42 327.311 1823.44C333.958 1823.47 340.804 1822.46 346.74 1826.74" stroke="#00FFFF" stroke-width="6" stroke-miterlimit="10" stroke-linecap="round" stroke-linejoin="round"/>
<path d="M393.433 1028.21C387.646 1037.31 381.858 1046.4 376.071 1055.5" stroke="#00FFFF" stroke-width="6" stroke-miterlimit="10" stroke-linecap="round" stroke-linejoin="round"/>
<path d="M1215.94 1499.39C1215.24 1506.04 1214.42 1512.44 1216.52 1519.31C1219.1 1527.8 1212.66 1534.1 1208.51 1540.73" stroke="#00FFFF" stroke-width="6" stroke-miterlimit="10" stroke-linecap="round" stroke-linejoin="round"/>
<path d="M842.304 1467.97C839.823 1467.66 837.36 1467.36 835.425 1467.11C824.562 1471.45 822.214 1481.42 818.328 1490.3" stroke="#00FFFF" stroke-width="6" stroke-miterlimit="10" stroke-linecap="round" stroke-linejoin="round"/>
<path d="M777.008 1732.08C783.341 1733.6 789.69 1735.11 796.023 1736.63" stroke="#00FFFF" stroke-width="6" stroke-miterlimit="10" stroke-linecap="round" stroke-linejoin="round"/>
<path d="M808.407 1738.7C811.995 1739.11 815.567 1739.52 819.155 1739.94" stroke="#00FFFF" stroke-width="6" stroke-miterlimit="10" stroke-linecap="round" stroke-linejoin="round"/>
<path d="M1195.27 1649.84C1196.89 1655.28 1198.51 1660.72 1200.07 1665.96C1193.8 1674.21 1184.74 1679.49 1182.04 1689.51" stroke="#00FFFF" stroke-width="6" stroke-miterlimit="10" stroke-linecap="round" stroke-linejoin="round"/>
<path d="M727.403 1820.96C732.645 1825.37 738.085 1829.56 742.996 1834.3C744.798 1836.05 745.31 1839.15 746.418 1841.63" stroke="#00FFFF" stroke-width="6" stroke-miterlimit="10" stroke-linecap="round" stroke-linejoin="round"/>
<path d="M587.701 411.533C586.345 418.99 582.476 424.761 575.696 429.192C565.858 422.959 557.971 409.747 543.057 418.147" stroke="#00FFFF" stroke-width="6" stroke-miterlimit="10" stroke-linecap="round" stroke-linejoin="round"/>
<path d="M838.171 771.958C830.73 771.677 823.289 771.412 815.849 771.131" stroke="#00FFFF" stroke-width="6" stroke-miterlimit="10" stroke-linecap="round" stroke-linejoin="round"/>
<path d="M524.041 661.175C523.215 662.283 521.694 663.358 521.677 664.482C521.479 673.213 515.476 677.611 509.16 681.844" stroke="#00FFFF" stroke-width="6" stroke-miterlimit="10" stroke-linecap="round" stroke-linejoin="round"/>
<path d="M544.71 1440.71C552.283 1444.97 559.872 1449.26 567.445 1453.52" stroke="#00FFFF" stroke-width="6" stroke-miterlimit="10" stroke-linecap="round" stroke-linejoin="round"/>
<path d="M535.616 413.6C532.028 413.187 528.456 412.773 524.868 412.36" stroke="#00FFFF" stroke-width="6" stroke-miterlimit="10" stroke-linecap="round" stroke-linejoin="round"/>
<path d="M1211.81 1661.41C1215.11 1662.79 1218.32 1664.61 1221.76 1665.42C1224.64 1666.08 1227.8 1665.55 1230.82 1665.55" stroke="#00FFFF" stroke-width="6" stroke-miterlimit="10" stroke-linecap="round" stroke-linejoin="round"/>
<path d="M162.805 457.831C163.632 462.956 162.822 466.991 157.961 470.397C153.397 473.605 149.842 478.234 144.75 483.327C146.138 488.585 147.858 495.117 149.578 501.631" stroke="#00FFFF" stroke-width="6" stroke-miterlimit="10" stroke-linecap="round" stroke-linejoin="round"/>
<path d="M769.566 1744.07C771.583 1739.57 773.601 1735.09 776.031 1729.67C773.7 1727.9 770.707 1725.65 766.226 1722.26C762.803 1728.63 759.993 1733.87 757.182 1739.11" stroke="#00FFFF" stroke-width="6" stroke-miterlimit="10" stroke-linecap="round" stroke-linejoin="round"/>
<path d="M1187.83 1540.73C1186.28 1527.61 1175.79 1520.62 1167.99 1511.79" stroke="#00FFFF" stroke-width="6" stroke-miterlimit="10" stroke-linecap="round" stroke-linejoin="round"/>
<path d="M373.609 983.57C378.024 988.531 382.422 993.491 386.837 998.452" stroke="#00FFFF" stroke-width="6" stroke-miterlimit="10" stroke-linecap="round" stroke-linejoin="round"/>
<path d="M425.676 1266.28C428.503 1265.07 431.331 1263.85 433.414 1262.96C439.978 1263.26 446.047 1263.54 452.131 1263.8" stroke="#00FFFF" stroke-width="6" stroke-miterlimit="10" stroke-linecap="round" stroke-linejoin="round"/>
<path d="M539.75 557.023C534.244 558.131 528.721 559.222 523.215 560.33" stroke="#00FFFF" stroke-width="6" stroke-miterlimit="10" stroke-linecap="round" stroke-linejoin="round"/>
<path d="M176.861 637.216C168.213 629.726 159.285 622.451 157.846 609.934" stroke="#00FFFF" stroke-width="6" stroke-miterlimit="10" stroke-linecap="round" stroke-linejoin="round"/>
<path d="M360.381 1115.83C365.192 1120.48 364.763 1126.45 364.515 1132.37" stroke="#00FFFF" stroke-width="6" stroke-miterlimit="10" stroke-linecap="round" stroke-linejoin="round"/>
<path d="M881.988 1330.75C877.027 1332.69 872.067 1334.6 867.106 1336.54" stroke="#00FFFF" stroke-width="6" stroke-miterlimit="10" stroke-linecap="round" stroke-linejoin="round"/>
<path d="M1179.58 1665.55C1180.95 1670.23 1182.34 1674.92 1183.71 1679.6" stroke="#00FFFF" stroke-width="6" stroke-miterlimit="10" stroke-linecap="round" stroke-linejoin="round"/>
<path d="M574.473 408.226C571.993 412.36 569.512 416.493 567.032 420.627" stroke="#00FFFF" stroke-width="6" stroke-miterlimit="10" stroke-linecap="round" stroke-linejoin="round"/>
<path d="M141.311 629.776C133.904 633.199 128.596 637.944 129.638 647.154C129.787 648.46 128.629 649.899 128.083 651.271" stroke="#00FFFF" stroke-width="6" stroke-miterlimit="10" stroke-linecap="round" stroke-linejoin="round"/>
<path d="M386.01 979.437C384.357 979.437 382.124 978.742 381.149 979.552C375.13 984.529 369.029 982.049 362.861 980.263" stroke="#00FFFF" stroke-width="6" stroke-miterlimit="10" stroke-linecap="round" stroke-linejoin="round"/>
<path d="M1206.02 1672.16C1210.15 1676.58 1214.29 1680.97 1218.42 1685.39" stroke="#00FFFF" stroke-width="6" stroke-miterlimit="10" stroke-linecap="round" stroke-linejoin="round"/>
<path d="M764.606 1723.4C761.299 1722.58 757.993 1721.75 754.686 1720.92" stroke="#00FFFF" stroke-width="6" stroke-miterlimit="10" stroke-linecap="round" stroke-linejoin="round"/>
<path d="M464.119 1310.93C460.68 1312.58 457.224 1314.23 453.785 1315.89" stroke="#00FFFF" stroke-width="6" stroke-miterlimit="10" stroke-linecap="round" stroke-linejoin="round"/>
<path d="M787.738 646.311C785.258 646.823 782.761 647.336 780.281 647.848C777.007 646.79 773.7 645.732 770.377 644.657" stroke="#00FFFF" stroke-width="6" stroke-miterlimit="10" stroke-linecap="round" stroke-linejoin="round"/>
<path d="M136.351 478.499C135.243 481.524 134.152 484.567 133.044 487.593" stroke="#00FFFF" stroke-width="6" stroke-miterlimit="10" stroke-linecap="round" stroke-linejoin="round"/>
<path d="M540.576 423.934C539.204 423.802 537.815 423.653 536.442 423.521" stroke="#00FFFF" stroke-width="6" stroke-miterlimit="10" stroke-linecap="round" stroke-linejoin="round"/>
<path d="M277.706 1374.57C259.948 1381.31 260.576 1399.73 274.399 1407.01C279.872 1409.89 290.852 1408.84 295.862 1404.78C303.12 1398.91 304.063 1393.32 301.549 1385.66C299.268 1378.69 292.687 1374.68 285.13 1374.57C282.931 1374.53 280.716 1374.57 278.517 1374.57" fill="#00FFFF"/>
<path d="M277.706 1374.57C259.948 1381.31 260.576 1399.73 274.399 1407.01C279.872 1409.89 290.852 1408.84 295.862 1404.78C303.12 1398.91 304.063 1393.32 301.549 1385.66C299.268 1378.69 292.687 1374.68 285.13 1374.57C282.931 1374.53 280.716 1374.57 278.517 1374.57" stroke="black" stroke-width="6" stroke-miterlimit="10" stroke-linecap="round" stroke-linejoin="round"/>
<path d="M932.401 592.572C914.642 600.129 915.271 620.781 929.094 628.932C934.567 632.157 945.546 630.983 950.556 626.436C957.815 619.855 958.757 613.605 956.244 605.006C953.962 597.186 947.381 592.688 939.825 592.572C937.626 592.539 935.41 592.572 933.211 592.572" fill="#00FFFF"/>
<path d="M932.401 592.572C914.642 600.129 915.271 620.781 929.094 628.932C934.567 632.157 945.546 630.983 950.556 626.436C957.815 619.855 958.757 613.605 956.244 605.006C953.962 597.186 947.381 592.688 939.825 592.572C937.626 592.539 935.41 592.572 933.211 592.572" stroke="black" stroke-width="6" stroke-miterlimit="10" stroke-linecap="round" stroke-linejoin="round"/>
<path d="M159.5 1243.96C144.767 1250.31 141.41 1254.62 142.138 1266.28C142.733 1275.57 152.439 1284.07 161.98 1283.64C171.967 1283.18 179.523 1275.11 180.284 1265.47C181.342 1252.21 173.438 1245.91 160.326 1243.98" fill="#00FFFF"/>
<path d="M159.5 1243.96C144.767 1250.31 141.41 1254.62 142.138 1266.28C142.733 1275.57 152.439 1284.07 161.98 1283.64C171.967 1283.18 179.523 1275.11 180.284 1265.47C181.342 1252.21 173.438 1245.91 160.326 1243.98" stroke="black" stroke-width="6" stroke-miterlimit="10" stroke-linecap="round" stroke-linejoin="round"/>
<path d="M1055.57 739.715C1044.18 745.188 1040.37 749.388 1041.51 766.171C1046.28 771.561 1050.03 778.01 1058.88 777.845C1071.41 777.63 1079.36 770.95 1079.54 759.557C1079.73 747.04 1072.1 739.715 1058.88 739.715C1058.05 739.715 1057.22 739.715 1056.4 739.715" fill="#00FFFF"/>
<path d="M1055.57 739.715C1044.18 745.188 1040.37 749.388 1041.51 766.171C1046.28 771.561 1050.03 778.01 1058.88 777.845C1071.41 777.63 1079.36 770.95 1079.54 759.557C1079.73 747.04 1072.1 739.715 1058.88 739.715C1058.05 739.715 1057.22 739.715 1056.4 739.715" stroke="black" stroke-width="6" stroke-miterlimit="10" stroke-linecap="round" stroke-linejoin="round"/>
<path d="M1181.22 868.67C1167.19 872.705 1163.11 879.302 1163.74 890.992C1164.17 899.144 1168.93 903.427 1175.43 906.684C1181.53 909.743 1187.4 908.833 1192.76 905.014C1200.1 899.772 1203.95 892.315 1201.65 883.618C1199.16 874.226 1191.63 869.662 1182.04 868.687" fill="#00FFFF"/>
<path d="M1181.22 868.67C1167.19 872.705 1163.11 879.302 1163.74 890.992C1164.17 899.144 1168.93 903.427 1175.43 906.684C1181.53 909.743 1187.4 908.833 1192.76 905.014C1200.1 899.772 1203.95 892.315 1201.65 883.618C1199.16 874.226 1191.63 869.662 1182.04 868.687" stroke="black" stroke-width="6" stroke-miterlimit="10" stroke-linecap="round" stroke-linejoin="round"/>
<path d="M503.389 1748.2C494.691 1751.68 487.251 1755.98 487.614 1767.22C487.929 1777.12 495.22 1786.15 505.042 1787.89C511.871 1789.1 523.23 1781.36 525.711 1773.83C528.505 1765.33 523.065 1753.68 514.087 1749.97C511.061 1748.72 507.522 1748.77 504.215 1748.2" fill="#00FFFF"/>
<path d="M503.389 1748.2C494.691 1751.68 487.251 1755.98 487.614 1767.22C487.929 1777.12 495.22 1786.15 505.042 1787.89C511.871 1789.1 523.23 1781.36 525.711 1773.83C528.505 1765.33 523.065 1753.68 514.087 1749.97C511.061 1748.72 507.522 1748.77 504.215 1748.2" stroke="black" stroke-width="6" stroke-miterlimit="10" stroke-linecap="round" stroke-linejoin="round"/>
<path d="M823 1960C789.143 1989.69 683.543 2032.98 532 1968.59" stroke="#00FFFF" stroke-width="5"/>
<path d="M823 1960C789.143 1989.69 683.543 2032.98 532 1968.59" stroke="#00FFFF" stroke-width="5"/>
</g>
<defs>
<filter id="filter0_d_19_4" x="0" y="0" width="1348" height="2168" filterUnits="userSpaceOnUse" color-interpolation-filters="sRGB">
<feFlood flood-opacity="0" result="BackgroundImageFix"/>
<feColorMatrix in="SourceAlpha" type="matrix" values="0 0 0 0 0 0 0 0 0 0 0 0 0 0 0 0 0 0 127 0" result="hardAlpha"/>
<feOffset dy="4"/>
<feGaussianBlur stdDeviation="2"/>
<feComposite in2="hardAlpha" operator="out"/>
<feColorMatrix type="matrix" values="0 0 0 0 0 0 0 0 0 0 0 0 0 0 0 0 0 0 0.25 0"/>
<feBlend mode="normal" in2="BackgroundImageFix" result="effect1_dropShadow_19_4"/>
<feBlend mode="normal" in="SourceGraphic" in2="effect1_dropShadow_19_4" result="shape"/>
</filter>
</defs>
</svg>
