<svg width="1340" height="2160" viewBox="0 0 1340 2160" fill="none" xmlns="http://www.w3.org/2000/svg">
<path d="M0 166C0 74.3207 74.3207 0 166 0H1174C1265.68 0 1340 74.3207 1340 166V1994C1340 2085.68 1265.68 2160 1174 2160H166C74.3208 2160 0 2085.68 0 1994V166Z" fill="#343937"/>
<path d="M289.411 553.999C288.857 553.888 288.922 553.398 288.742 553.087C282.271 541.883 275.49 530.878 268.148 520.222C252.572 497.607 236.374 475.448 219.816 453.549C210.91 441.77 201.74 430.194 192.59 418.607C185.527 409.656 178.459 400.709 171.751 391.478C170.761 390.118 170.75 389.106 171.717 387.753C177.141 380.186 183.218 373.139 189.089 365.928C204.42 347.102 219.242 327.878 233.637 308.324C248.509 288.123 263.16 267.761 276.5 246.495C279.81 241.218 283.009 235.873 286.8 230.911C289.744 227.064 290.061 226.991 292.652 230.926C299.334 241.061 305.85 251.311 312.677 261.347C319.591 271.509 326.747 281.502 333.894 291.503C345.82 308.186 358.188 324.54 370.683 340.803C381.898 355.402 393.632 369.572 405.5 383.638C406.769 385.14 407.95 386.73 409.322 388.137C410.324 389.163 410.136 389.811 409.276 390.815C404.888 395.946 400.604 401.161 396.242 406.311C386.163 418.216 376.478 430.439 366.957 442.793C355.035 458.266 343.469 474.003 332.163 489.936C317.89 510.041 304.001 530.407 291.211 551.505C290.818 552.152 290.416 552.792 290.007 553.428C289.851 553.674 289.751 554.018 289.411 553.999Z" fill="#0BEEE0"/>
<path d="M288.411 1203C287.857 1202.89 287.922 1202.4 287.742 1202.09C281.271 1190.88 274.49 1179.88 267.148 1169.22C251.572 1146.61 235.374 1124.45 218.816 1102.55C209.91 1090.77 200.74 1079.19 191.59 1067.61C184.527 1058.66 177.459 1049.71 170.751 1040.48C169.761 1039.12 169.75 1038.11 170.717 1036.75C176.141 1029.19 182.218 1022.14 188.089 1014.93C203.42 996.102 218.242 976.878 232.637 957.324C247.509 937.123 262.16 916.761 275.5 895.495C278.81 890.218 282.009 884.873 285.8 879.911C288.744 876.064 289.061 875.991 291.652 879.926C298.334 890.061 304.85 900.311 311.677 910.347C318.591 920.509 325.747 930.502 332.894 940.503C344.82 957.186 357.188 973.54 369.683 989.803C380.898 1004.4 392.632 1018.57 404.5 1032.64C405.769 1034.14 406.95 1035.73 408.322 1037.14C409.324 1038.16 409.136 1038.81 408.276 1039.81C403.888 1044.95 399.604 1050.16 395.242 1055.31C385.163 1067.22 375.478 1079.44 365.957 1091.79C354.035 1107.27 342.469 1123 331.163 1138.94C316.89 1159.04 303.001 1179.41 290.211 1200.5C289.818 1201.15 289.416 1201.79 289.007 1202.43C288.851 1202.67 288.751 1203.02 288.411 1203Z" fill="#0BEEE0"/>
<path d="M288.411 1776C287.857 1775.89 287.922 1775.4 287.742 1775.09C281.271 1763.88 274.49 1752.88 267.148 1742.22C251.572 1719.61 235.374 1697.45 218.816 1675.55C209.91 1663.77 200.74 1652.19 191.59 1640.61C184.527 1631.66 177.459 1622.71 170.751 1613.48C169.761 1612.12 169.75 1611.11 170.717 1609.75C176.141 1602.19 182.218 1595.14 188.089 1587.93C203.42 1569.1 218.242 1549.88 232.637 1530.32C247.509 1510.12 262.16 1489.76 275.5 1468.49C278.81 1463.22 282.009 1457.87 285.8 1452.91C288.744 1449.06 289.061 1448.99 291.652 1452.93C298.334 1463.06 304.85 1473.31 311.677 1483.35C318.591 1493.51 325.747 1503.5 332.894 1513.5C344.82 1530.19 357.188 1546.54 369.683 1562.8C380.898 1577.4 392.632 1591.57 404.5 1605.64C405.769 1607.14 406.95 1608.73 408.322 1610.14C409.324 1611.16 409.136 1611.81 408.276 1612.81C403.888 1617.95 399.604 1623.16 395.242 1628.31C385.163 1640.22 375.478 1652.44 365.957 1664.79C354.035 1680.27 342.469 1696 331.163 1711.94C316.89 1732.04 303.001 1752.41 290.211 1773.5C289.818 1774.15 289.416 1774.79 289.007 1775.43C288.851 1775.67 288.751 1776.02 288.411 1776Z" fill="#0BEEE0"/>
<path d="M661.411 1776C660.857 1775.89 660.922 1775.4 660.742 1775.09C654.271 1763.88 647.49 1752.88 640.148 1742.22C624.572 1719.61 608.374 1697.45 591.816 1675.55C582.91 1663.77 573.74 1652.19 564.59 1640.61C557.526 1631.66 550.459 1622.71 543.751 1613.48C542.761 1612.12 542.75 1611.11 543.717 1609.75C549.141 1602.19 555.218 1595.14 561.089 1587.93C576.42 1569.1 591.242 1549.88 605.637 1530.32C620.509 1510.12 635.16 1489.76 648.5 1468.49C651.81 1463.22 655.009 1457.87 658.8 1452.91C661.744 1449.06 662.061 1448.99 664.652 1452.93C671.334 1463.06 677.85 1473.31 684.677 1483.35C691.591 1493.51 698.747 1503.5 705.894 1513.5C717.82 1530.19 730.188 1546.54 742.683 1562.8C753.898 1577.4 765.632 1591.57 777.5 1605.64C778.769 1607.14 779.95 1608.73 781.322 1610.14C782.324 1611.16 782.136 1611.81 781.276 1612.81C776.888 1617.95 772.604 1623.16 768.242 1628.31C758.163 1640.22 748.478 1652.44 738.957 1664.79C727.035 1680.27 715.469 1696 704.163 1711.94C689.89 1732.04 676.001 1752.41 663.211 1773.5C662.818 1774.15 662.416 1774.79 662.007 1775.43C661.851 1775.67 661.751 1776.02 661.411 1776Z" fill="#0BEEE0"/>
<path d="M661.411 1203C660.857 1202.89 660.922 1202.4 660.742 1202.09C654.271 1190.88 647.49 1179.88 640.148 1169.22C624.572 1146.61 608.374 1124.45 591.816 1102.55C582.91 1090.77 573.74 1079.19 564.59 1067.61C557.526 1058.66 550.459 1049.71 543.751 1040.48C542.761 1039.12 542.75 1038.11 543.717 1036.75C549.141 1029.19 555.218 1022.14 561.089 1014.93C576.42 996.102 591.242 976.878 605.637 957.324C620.509 937.123 635.16 916.761 648.5 895.495C651.81 890.218 655.009 884.873 658.8 879.911C661.744 876.064 662.061 875.991 664.652 879.926C671.334 890.061 677.85 900.311 684.677 910.347C691.591 920.509 698.747 930.502 705.894 940.503C717.82 957.186 730.188 973.54 742.683 989.803C753.898 1004.4 765.632 1018.57 777.5 1032.64C778.769 1034.14 779.95 1035.73 781.322 1037.14C782.324 1038.16 782.136 1038.81 781.276 1039.81C776.888 1044.95 772.604 1050.16 768.242 1055.31C758.163 1067.22 748.478 1079.44 738.957 1091.79C727.035 1107.27 715.469 1123 704.163 1138.94C689.89 1159.04 676.001 1179.41 663.211 1200.5C662.818 1201.15 662.416 1201.79 662.007 1202.43C661.851 1202.67 661.751 1203.02 661.411 1203Z" fill="#0BEEE0"/>
<path d="M661.411 568.999C660.857 568.888 660.922 568.398 660.742 568.087C654.271 556.883 647.49 545.878 640.148 535.222C624.572 512.607 608.374 490.448 591.816 468.549C582.91 456.77 573.74 445.194 564.59 433.607C557.526 424.656 550.459 415.709 543.751 406.478C542.761 405.118 542.75 404.106 543.717 402.753C549.141 395.186 555.218 388.139 561.089 380.928C576.42 362.102 591.242 342.878 605.637 323.324C620.509 303.123 635.16 282.761 648.5 261.495C651.81 256.218 655.009 250.873 658.8 245.911C661.744 242.064 662.061 241.991 664.652 245.926C671.334 256.061 677.85 266.311 684.677 276.347C691.591 286.509 698.747 296.502 705.894 306.503C717.82 323.186 730.188 339.54 742.683 355.803C753.898 370.402 765.632 384.572 777.5 398.638C778.769 400.14 779.95 401.73 781.322 403.137C782.324 404.163 782.136 404.811 781.276 405.815C776.888 410.946 772.604 416.161 768.242 421.311C758.163 433.216 748.478 445.439 738.957 457.793C727.035 473.266 715.469 489.003 704.163 504.936C689.89 525.041 676.001 545.407 663.211 566.505C662.818 567.152 662.416 567.792 662.007 568.428C661.851 568.674 661.751 569.018 661.411 568.999Z" fill="#0BEEE0"/>
<path d="M1033.41 568.999C1032.86 568.888 1032.92 568.398 1032.74 568.087C1026.27 556.883 1019.49 545.878 1012.15 535.222C996.572 512.607 980.374 490.448 963.816 468.549C954.91 456.77 945.74 445.194 936.59 433.607C929.526 424.656 922.459 415.709 915.751 406.478C914.761 405.118 914.75 404.106 915.717 402.753C921.141 395.186 927.218 388.139 933.089 380.928C948.42 362.102 963.242 342.878 977.637 323.324C992.509 303.123 1007.16 282.761 1020.5 261.495C1023.81 256.218 1027.01 250.873 1030.8 245.911C1033.74 242.064 1034.06 241.991 1036.65 245.926C1043.33 256.061 1049.85 266.311 1056.68 276.347C1063.59 286.509 1070.75 296.502 1077.89 306.503C1089.82 323.186 1102.19 339.54 1114.68 355.803C1125.9 370.402 1137.63 384.572 1149.5 398.638C1150.77 400.14 1151.95 401.73 1153.32 403.137C1154.32 404.163 1154.14 404.811 1153.28 405.815C1148.89 410.946 1144.6 416.161 1140.24 421.311C1130.16 433.216 1120.48 445.439 1110.96 457.793C1099.03 473.266 1087.47 489.003 1076.16 504.936C1061.89 525.041 1048 545.407 1035.21 566.505C1034.82 567.152 1034.42 567.792 1034.01 568.428C1033.85 568.674 1033.75 569.018 1033.41 568.999Z" fill="#0BEEE0"/>
<path d="M1033.41 1203C1032.86 1202.89 1032.92 1202.4 1032.74 1202.09C1026.27 1190.88 1019.49 1179.88 1012.15 1169.22C996.572 1146.61 980.374 1124.45 963.816 1102.55C954.91 1090.77 945.74 1079.19 936.59 1067.61C929.526 1058.66 922.459 1049.71 915.751 1040.48C914.761 1039.12 914.75 1038.11 915.717 1036.75C921.141 1029.19 927.218 1022.14 933.089 1014.93C948.42 996.102 963.242 976.878 977.637 957.324C992.509 937.123 1007.16 916.761 1020.5 895.495C1023.81 890.218 1027.01 884.873 1030.8 879.911C1033.74 876.064 1034.06 875.991 1036.65 879.926C1043.33 890.061 1049.85 900.311 1056.68 910.347C1063.59 920.509 1070.75 930.502 1077.89 940.503C1089.82 957.186 1102.19 973.54 1114.68 989.803C1125.9 1004.4 1137.63 1018.57 1149.5 1032.64C1150.77 1034.14 1151.95 1035.73 1153.32 1037.14C1154.32 1038.16 1154.14 1038.81 1153.28 1039.81C1148.89 1044.95 1144.6 1050.16 1140.24 1055.31C1130.16 1067.22 1120.48 1079.44 1110.96 1091.79C1099.03 1107.27 1087.47 1123 1076.16 1138.94C1061.89 1159.04 1048 1179.41 1035.21 1200.5C1034.82 1201.15 1034.42 1201.79 1034.01 1202.43C1033.85 1202.67 1033.75 1203.02 1033.41 1203Z" fill="#0BEEE0"/>
<path d="M1033.41 1776C1032.86 1775.89 1032.92 1775.4 1032.74 1775.09C1026.27 1763.88 1019.49 1752.88 1012.15 1742.22C996.572 1719.61 980.374 1697.45 963.816 1675.55C954.91 1663.77 945.74 1652.19 936.59 1640.61C929.526 1631.66 922.459 1622.71 915.751 1613.48C914.761 1612.12 914.75 1611.11 915.717 1609.75C921.141 1602.19 927.218 1595.14 933.089 1587.93C948.42 1569.1 963.242 1549.88 977.637 1530.32C992.509 1510.12 1007.16 1489.76 1020.5 1468.49C1023.81 1463.22 1027.01 1457.87 1030.8 1452.91C1033.74 1449.06 1034.06 1448.99 1036.65 1452.93C1043.33 1463.06 1049.85 1473.31 1056.68 1483.35C1063.59 1493.51 1070.75 1503.5 1077.89 1513.5C1089.82 1530.19 1102.19 1546.54 1114.68 1562.8C1125.9 1577.4 1137.63 1591.57 1149.5 1605.64C1150.77 1607.14 1151.95 1608.73 1153.32 1610.14C1154.32 1611.16 1154.14 1611.81 1153.28 1612.81C1148.89 1617.95 1144.6 1623.16 1140.24 1628.31C1130.16 1640.22 1120.48 1652.44 1110.96 1664.79C1099.03 1680.27 1087.47 1696 1076.16 1711.94C1061.89 1732.04 1048 1752.41 1035.21 1773.5C1034.82 1774.15 1034.42 1774.79 1034.01 1775.43C1033.85 1775.67 1033.75 1776.02 1033.41 1776Z" fill="#0BEEE0"/>
</svg>
